<svg width="756" height="996" viewBox="0 0 756 996" fill="none" xmlns="http://www.w3.org/2000/svg">
<path d="M723.926 391.427C715.743 409.624 711.774 429.455 712.904 449.377C716.4 511.816 702.171 653.899 500.062 653.899H500.046C297.967 653.899 283.723 511.816 287.235 449.377C288.334 429.455 284.365 409.624 276.212 391.427C255.588 345.475 247.848 305.233 247.97 270.594V270.533C248.397 160.25 328.82 106.742 328.82 106.742C373.016 -5.72484 500.062 4.06082 500.062 4.06082C500.062 4.06082 627.092 -5.70957 671.303 106.726C671.303 106.726 810.195 199.148 723.926 391.427Z" fill="white"/>
<path d="M751.985 270.518V270.579C752.123 305.233 744.367 345.46 723.743 391.411C722.705 393.732 721.728 396.098 720.827 398.464C714.644 414.662 711.759 431.974 712.721 449.362C714.598 482.856 711.362 539.28 676.769 584.392C646.908 623.336 593.629 653.854 500.031 653.884H499.894C297.937 653.823 283.708 511.786 287.22 449.362C288.319 429.44 284.35 409.609 276.197 391.411C255.573 345.46 247.833 305.218 247.955 270.579V270.518C252.535 223.452 267.022 188.599 286.395 162.86C342.178 88.6969 438.584 90.2846 456.156 93.5058C479.086 97.704 498.703 100.544 499.909 100.711C499.955 100.727 499.97 100.727 499.97 100.727C499.97 100.727 520.106 97.8414 543.784 93.5058C561.356 90.2846 657.762 88.7122 713.545 162.86C732.918 188.599 747.405 223.452 751.985 270.518Z" fill="#C1BFBF"/>
<path d="M751.985 270.518V270.579C752.122 305.233 744.367 345.46 723.742 391.411C722.704 393.732 721.727 396.098 720.827 398.464C650.938 516.427 499.909 523.205 499.909 523.205C499.909 523.205 348.88 516.427 278.991 398.464C278.09 396.098 277.113 393.732 276.075 391.411C267.801 373 261.618 355.49 257.16 338.911C250.519 314.103 247.771 291.341 247.848 270.579V270.518C252.428 223.452 266.915 188.599 286.288 162.86C288.563 159.822 290.899 156.937 293.311 154.159C349.796 88.8342 439.18 90.4219 456.049 93.5057C479.712 97.8413 499.863 100.727 499.863 100.727C499.863 100.727 499.878 100.727 499.924 100.711C499.97 100.727 499.985 100.727 499.985 100.727C499.985 100.727 520.121 97.8413 543.799 93.5057C561.371 90.2845 657.777 88.7121 713.56 162.86C732.918 188.599 747.405 223.452 751.985 270.518Z" fill="#A0A0A0"/>
<path d="M282.029 189.118C282.029 189.118 247.787 257.175 256.794 335.522C256.931 336.682 257.038 337.812 257.145 338.911C250.504 314.103 247.756 291.341 247.833 270.579V270.518C252.412 223.452 266.9 188.599 286.273 162.86C288.548 159.822 290.883 156.937 293.295 154.159C294.7 154.021 295.494 153.975 295.494 153.975L282.029 189.118Z" fill="#C1BFBF"/>
<path d="M717.773 189.118C717.773 189.118 752.016 257.175 743.009 335.522C742.871 336.682 742.764 337.812 742.657 338.911C749.298 314.103 752.046 291.341 751.97 270.579V270.518C747.39 223.452 732.902 188.599 713.529 162.86C711.255 159.822 708.919 156.937 706.507 154.159C705.102 154.021 704.309 153.975 704.309 153.975L717.773 189.118Z" fill="#C1BFBF"/>
<path d="M500.062 653.899C297.952 653.899 283.724 511.816 287.22 449.377C288.334 429.455 284.365 409.624 276.197 391.427C189.928 199.164 328.82 106.742 328.82 106.742C373.031 -5.72484 500.062 4.04556 500.062 4.04556C500.062 4.04556 627.092 -5.7401 671.303 106.726C671.303 106.726 810.196 199.148 723.926 391.411C715.759 409.609 711.789 429.44 712.904 449.362C716.4 511.816 702.172 653.899 500.062 653.899Z" stroke="#595653" stroke-width="7.67679" stroke-miterlimit="10" stroke-linecap="round" stroke-linejoin="round"/>
<path d="M575.675 421.715C573.065 424.371 569.813 427.409 565.981 430.554C551.997 441.927 530.029 454.537 501.298 454.537C472.552 454.537 450.584 441.927 436.6 430.539C432.753 427.409 429.531 424.371 426.921 421.715C430.783 422.646 434.676 423.501 438.539 424.295C460.049 428.768 481.437 427.501 501.298 427.501C521.159 427.501 542.532 428.783 564.058 424.295C567.92 423.501 571.782 422.646 575.675 421.715Z" fill="#379E25"/>
<path d="M340.804 471.666C341.14 472.613 341.552 473.513 342.102 474.399C341.888 474.002 341.384 473.04 340.804 471.666Z" fill="white"/>
<path d="M660.571 474.231C660.541 474.277 660.525 474.353 660.479 474.399C661.044 473.498 661.472 472.551 661.808 471.605C661.289 472.842 660.831 473.742 660.571 474.231Z" fill="white"/>
<path d="M389.87 962.812C373.55 976.155 361.123 979.712 346.849 979.712C339.903 979.712 332.53 978.857 324.057 977.895C309.951 976.292 300.99 973.071 295.677 970.354C296.624 972.674 299.142 975.941 302.058 977.315C306.699 979.468 348.208 997.818 377.977 979.33C408.449 960.385 430.051 938.508 434.982 933.318C434.92 931.73 434.829 930.158 434.707 928.661C425.898 934.997 406.846 948.92 389.87 962.812Z" fill="#424242"/>
<path d="M434.081 922.57C426.875 927.73 405.426 943.241 386.496 958.705C363.978 977.132 350.01 975.529 324.637 972.643C307.264 970.659 298.455 966.186 294.837 963.789C294.791 961.316 294.944 958.736 295.448 956.186C296.578 950.309 299.478 944.538 305.585 940.386C309.89 937.455 314.714 934.63 319.355 931.898C333.079 923.837 347.231 915.532 352.177 902.724C361.887 907.747 376.267 913.136 397.243 916.952C398.327 917.151 399.442 917.349 400.571 917.532C410.769 919.257 419.349 919.944 426.845 919.944C429.241 919.944 431.516 919.883 433.699 919.746C433.821 920.555 433.943 921.517 434.081 922.57Z" fill="#5B5B5B"/>
<path d="M434.081 922.57C426.875 927.73 405.426 943.241 386.496 958.705C363.978 977.132 350.01 975.529 324.637 972.643C307.264 970.659 298.455 966.186 294.837 963.789C294.791 961.316 294.944 958.736 295.448 956.186C295.906 957.484 296.746 958.965 298.165 959.911C301.173 961.881 329.095 966.995 357.948 964.064C381.702 961.636 393.732 928.585 397.243 916.952C398.327 917.151 399.442 917.349 400.571 917.532C410.769 919.257 419.349 919.944 426.845 919.944C429.241 919.944 431.516 919.883 433.699 919.746C433.821 920.555 433.943 921.517 434.081 922.57Z" fill="#424242"/>
<path d="M612.711 962.812C629.031 976.155 641.457 979.712 655.731 979.712C662.677 979.712 670.051 978.857 678.524 977.895C692.63 976.292 701.591 973.071 706.904 970.354C705.957 972.674 703.438 975.941 700.522 977.315C695.881 979.468 654.373 997.818 624.603 979.33C594.132 960.385 572.53 938.508 567.599 933.318C567.66 931.73 567.752 930.158 567.874 928.661C576.683 934.997 595.735 948.92 612.711 962.812Z" fill="#424242"/>
<path d="M568.5 922.57C575.706 927.73 597.155 943.241 616.085 958.705C638.603 977.132 652.571 975.529 677.944 972.643C695.317 970.659 704.126 966.186 707.744 963.789C707.79 961.316 707.637 958.736 707.133 956.186C706.003 950.309 703.103 944.538 696.996 940.386C692.691 937.455 687.867 934.63 683.226 931.898C669.502 923.837 655.35 915.532 650.404 902.724C640.694 907.747 626.313 913.136 605.338 916.952C604.254 917.151 603.139 917.349 602.01 917.532C591.812 919.257 583.232 919.944 575.736 919.944C573.34 919.944 571.065 919.883 568.882 919.746C568.775 920.555 568.638 921.517 568.5 922.57Z" fill="#5B5B5B"/>
<path d="M568.5 922.57C575.706 927.73 597.155 943.241 616.085 958.705C638.603 977.132 652.571 975.529 677.944 972.643C695.317 970.659 704.126 966.186 707.744 963.789C707.79 961.316 707.637 958.736 707.133 956.186C706.675 957.484 705.835 958.965 704.416 959.911C701.408 961.881 673.486 966.995 644.633 964.064C620.879 961.636 608.849 928.585 605.338 916.952C604.254 917.151 603.139 917.349 602.01 917.532C591.812 919.257 583.232 919.944 575.736 919.944C573.34 919.944 571.065 919.883 568.882 919.746C568.775 920.555 568.638 921.517 568.5 922.57Z" fill="#424242"/>
<path d="M434.081 922.57C426.875 927.73 405.426 943.24 386.496 958.705C363.978 977.131 350.01 975.528 324.637 972.643C307.264 970.658 298.456 966.185 294.838 963.788C294.67 955.636 296.807 946.339 305.585 940.385C309.89 937.454 314.714 934.63 319.355 931.897C333.08 923.837 347.231 915.532 352.178 902.723C349.506 901.35 347.186 899.976 345.186 898.693C341.735 909.532 328.881 917.089 315.325 925.058C310.562 927.852 305.646 930.752 301.112 933.821C290.09 941.301 285.22 954.201 287.388 970.17C288.014 974.841 292.517 981.665 298.685 984.535C304.043 987.024 324.057 995.558 346.376 995.558C358.269 995.558 370.818 993.13 382.161 986.092C417.822 963.941 440.966 938.599 441.928 937.531L442.981 936.37L442.951 934.798C442.829 928.691 442.157 922.768 441.623 918.982C439.119 919.318 436.478 919.577 433.684 919.745C433.822 920.554 433.944 921.516 434.081 922.57ZM434.967 933.317C430.02 938.508 408.434 960.384 377.962 979.33C348.193 997.817 306.684 979.467 302.043 977.314C299.127 975.956 296.593 972.673 295.662 970.353C300.99 973.07 309.936 976.292 324.042 977.894C332.515 978.856 339.904 979.711 346.834 979.711C361.108 979.711 373.535 976.154 389.855 962.811C406.831 948.919 425.883 934.996 434.676 928.646C434.814 930.157 434.905 931.729 434.967 933.317Z" fill="#353434"/>
<path d="M650.403 902.709C655.365 915.517 669.501 923.837 683.226 931.882C687.882 934.63 692.691 937.439 696.996 940.371C705.759 946.324 707.911 955.637 707.743 963.774C704.125 966.17 695.301 970.643 677.944 972.628C652.571 975.513 638.602 977.116 616.085 958.69C597.155 943.225 575.706 927.715 568.5 922.555C568.637 921.501 568.759 920.54 568.882 919.7C566.79 919.578 564.805 919.379 562.882 919.15C562.241 919.074 561.584 919.013 560.958 918.921C560.424 922.707 559.752 928.631 559.63 934.737L559.6 936.31L560.653 937.47C561.615 938.523 584.758 963.881 620.42 986.032C631.763 993.085 644.297 995.497 656.204 995.497C678.524 995.497 698.522 986.963 703.896 984.475C710.064 981.605 714.567 974.781 715.193 970.109C717.361 954.141 712.491 941.241 701.469 933.76C696.935 930.692 692.019 927.791 687.256 924.997C673.7 917.044 660.845 909.472 657.395 898.633C656.891 898.953 656.372 899.274 655.838 899.61C654.22 900.648 652.403 901.671 650.403 902.709ZM700.538 977.315C695.897 979.467 654.388 997.817 624.619 979.33C594.147 960.385 572.545 938.508 567.614 933.318C567.675 931.73 567.767 930.157 567.889 928.661C576.683 935.012 595.735 948.935 612.711 962.827C629.031 976.17 641.457 979.727 655.731 979.727C662.677 979.727 670.051 978.872 678.524 977.91C692.63 976.307 701.591 973.086 706.904 970.369C705.988 972.689 703.454 975.956 700.538 977.315Z" fill="#353434"/>
<path d="M655.838 899.656C654.22 900.648 652.418 901.671 650.403 902.709C652.403 901.671 654.22 900.648 655.838 899.656Z" fill="#353434"/>
<path d="M562.882 919.181C564.806 919.41 566.79 919.593 568.882 919.731C566.79 919.593 564.806 919.395 562.882 919.181Z" fill="#353434"/>
<path d="M374.726 672.127C374.726 672.127 374.726 672.158 374.71 672.173C374.329 673.73 365.245 710.262 354.986 732.887C354.208 728.979 352.971 724.307 351.139 718.659C348.254 709.85 344.88 701.668 343.094 697.53C343.231 697.424 343.354 697.301 343.491 697.195L344.041 696.721C347.888 693.485 346.941 685.211 346.712 683.592C345.582 675.578 341.461 669.441 335.385 666.723C333.522 665.883 331.522 665.471 329.507 665.471C329.156 663.319 328.5 660.998 327.767 658.846C330.667 658.174 334.53 656.876 337.919 654.327C339.98 652.77 341.232 649.717 341.796 645.854C343.415 634.756 339.43 616.787 332.942 607.429C329.889 603.017 325.782 600.666 321.477 599.536C346.147 589.583 353.582 575.065 353.857 574.484C351.689 576.377 347.353 578.698 341.934 581.171C318.515 531.647 336.362 479.421 340.697 468.247L342.163 474.552C359.093 494.184 369.138 530.762 370.833 537.311C370.986 537.968 371.077 538.334 371.077 538.334C388.313 560.333 380.237 629.015 374.726 672.127Z" fill="white"/>
<path d="M374.726 672.127C374.726 672.127 374.726 672.158 374.711 672.173C374.329 673.73 365.245 710.262 354.987 732.887C354.208 728.979 352.971 724.307 351.139 718.659C348.254 709.85 344.88 701.667 343.094 697.53C343.232 697.423 343.354 697.301 343.491 697.194L344.041 696.721C347.888 693.485 346.941 685.21 346.712 683.592C345.583 675.577 341.461 669.44 335.385 666.723C333.522 665.883 331.522 665.471 329.507 665.471C329.156 663.318 328.5 660.998 327.767 658.845C330.667 658.174 334.53 656.876 337.919 654.327C339.98 652.769 341.232 649.716 341.797 645.854C373.169 616.008 371.337 547.524 370.879 537.311C371.031 537.967 371.123 538.334 371.123 538.334C388.313 560.332 380.237 629.015 374.726 672.127Z" fill="#C1BFBF"/>
<path d="M508.61 543.387C508.61 547.417 505.328 550.7 501.298 550.7C497.268 550.7 493.985 547.417 493.985 543.387C493.985 542.975 494.031 542.563 494.092 542.181C494.657 538.716 497.68 536.074 501.298 536.074C504.916 536.074 507.939 538.716 508.504 542.181C508.565 542.563 508.61 542.975 508.61 543.387Z" fill="#C1BFBF"/>
<path d="M508.61 494.153C508.61 498.184 505.328 501.466 501.298 501.466C497.268 501.466 493.985 498.184 493.985 494.153C493.985 493.741 494.031 493.329 494.092 492.947C494.657 489.497 497.68 486.841 501.298 486.841C504.916 486.841 507.939 489.497 508.504 492.947C508.565 493.344 508.61 493.756 508.61 494.153Z" fill="#C1BFBF"/>
<path d="M508.504 542.181C507.939 545.631 504.916 548.272 501.298 548.272C497.68 548.272 494.657 545.631 494.093 542.181C494.657 538.716 497.68 536.074 501.298 536.074C504.916 536.074 507.924 538.7 508.504 542.181Z" fill="white"/>
<path d="M508.504 492.947C507.939 496.397 504.916 499.038 501.298 499.038C497.68 499.038 494.657 496.397 494.093 492.947C494.657 489.497 497.68 486.841 501.298 486.841C504.916 486.841 507.924 489.497 508.504 492.947Z" fill="white"/>
<path d="M501.298 462.491C493.238 462.491 485.696 461.575 478.674 460.033L479.346 494.169L480.735 564.973C480.796 568.454 482.368 571.752 484.994 574.026C494.78 582.438 499.253 586.056 501.283 587.613C503.314 586.056 507.787 582.438 517.572 574.026C520.213 571.752 521.77 568.454 521.832 564.973L523.236 493.94L523.893 460.048C516.901 461.575 509.359 462.491 501.298 462.491ZM501.298 481.543C508.26 481.543 513.908 487.192 513.908 494.153C513.908 501.115 508.26 506.763 501.298 506.763C494.337 506.763 488.688 501.115 488.688 494.153C488.688 487.192 494.337 481.543 501.298 481.543ZM501.298 530.777C508.26 530.777 513.908 536.426 513.908 543.387C513.908 550.348 508.26 555.997 501.298 555.997C494.337 555.997 488.688 550.348 488.688 543.387C488.688 536.426 494.337 530.777 501.298 530.777Z" fill="white"/>
<path d="M359.353 788.639C358.009 795.509 356.666 802.043 355.307 808.211C348.697 838.468 342.148 860.177 337.995 872.65C333.263 869.199 330.713 865.459 329.339 862.391C328.286 860.055 327.904 858.116 327.782 857.002C341.262 836.865 351.536 812.73 359.353 788.639Z" fill="white"/>
<path d="M674.799 857.002C674.677 858.116 674.295 860.055 673.242 862.391C671.868 865.444 669.303 869.199 664.586 872.65C660.434 860.177 653.884 838.468 647.274 808.211C645.915 802.058 644.572 795.524 643.229 788.639C651.045 812.73 661.334 836.865 674.799 857.002Z" fill="white"/>
<path d="M355.307 808.21C348.696 838.468 342.147 860.177 337.995 872.649C333.262 869.199 330.713 865.459 329.339 862.39C339.888 846.086 348.422 827.354 355.307 808.21Z" fill="#C1BFBF"/>
<path d="M673.257 862.39C671.883 865.444 669.318 869.199 664.601 872.649C660.449 860.177 653.899 838.468 647.289 808.21C654.159 827.354 662.693 846.086 673.257 862.39Z" fill="#C1BFBF"/>
<path d="M660.815 885.87C656.708 890.099 641.396 902.8 600.697 909.67C571.202 914.662 556.669 910.678 541.296 906.449C530.136 903.396 518.656 900.235 501.39 900.541H501.313C484.001 900.22 472.491 903.396 461.331 906.449C445.958 910.678 431.424 914.662 401.93 909.67C361.23 902.8 345.918 890.099 341.812 885.87C345.75 875.413 361.978 829.339 373.687 752.611C376.496 734.184 379.046 714.002 381.122 692.111C383.168 670.417 384.298 650.342 384.633 631.977C385.152 603.475 383.717 579.095 380.756 559.187C380.74 559.096 380.74 559.05 380.74 559.05C374.451 516.946 363.993 494.138 363.993 494.138C363.993 494.138 367.352 510.03 371.169 538.349C358.589 496.794 342.239 474.567 342.239 474.567L343.323 462.659C343.705 458.369 346.01 454.553 349.658 452.202C367.337 440.782 393.625 419.822 400.297 414.448C404.602 415.761 408.952 417.013 413.319 418.204V418.219H413.334C417.517 423.776 437.241 447.835 470.72 457.942L472.827 565.095C472.949 570.836 475.498 576.27 479.864 580.026C498.825 596.3 499.497 596.3 501.329 596.3C503.161 596.3 503.848 596.3 522.793 580.026C527.144 576.27 529.709 570.836 529.831 565.095L531.937 458.247V457.942C565.416 447.835 585.14 423.761 589.323 418.219H589.339V418.204C593.689 417.028 598.056 415.761 602.361 414.448C609.032 419.822 635.32 440.782 652.999 452.202C656.647 454.553 658.953 458.354 659.334 462.659L660.418 474.567C660.418 474.567 644.068 496.794 631.489 538.364C635.305 510.03 638.664 494.138 638.664 494.138C638.664 494.138 628.206 516.93 621.917 559.05C617.032 591.796 616.299 636.633 621.535 692.111C623.627 714.262 626.207 734.658 629.077 753.252C640.74 829.583 656.892 875.458 660.815 885.87Z" fill="white"/>
<path d="M480.734 564.973L479.345 494.169L484.185 558.867C484.429 562.149 485.925 565.218 488.352 567.447L498.504 576.713C500.077 578.163 502.504 578.163 504.077 576.713L514.229 567.447C516.671 565.218 518.152 562.149 518.396 558.867L523.251 493.94L521.846 564.973C521.785 568.454 520.213 571.752 517.587 574.026C507.802 582.438 503.329 586.056 501.298 587.613C499.268 586.056 494.795 582.438 485.009 574.026C482.368 571.752 480.796 568.454 480.734 564.973Z" fill="#C1BFBF"/>
<path d="M534.563 571.431C534.67 576.286 532.914 581.018 529.632 584.621L507.16 609.322C504 612.803 498.535 612.803 495.39 609.322L472.918 584.621C469.651 581.018 467.88 576.286 467.987 571.431L470.659 457.972L472.765 565.126C472.887 570.866 475.437 576.301 479.803 580.057C498.764 596.33 499.435 596.33 501.267 596.33C503.099 596.33 503.786 596.33 522.732 580.057C527.083 576.301 529.647 570.866 529.77 565.126L531.876 458.278L534.563 571.431Z" fill="#C1BFBF"/>
<path d="M660.815 885.87C656.708 890.099 641.396 902.8 600.697 909.67C571.202 914.662 556.669 910.678 541.296 906.449C530.136 903.396 518.656 900.235 501.39 900.541H501.313C484.001 900.22 472.491 903.396 461.331 906.449C445.958 910.678 431.424 914.662 401.93 909.67C361.23 902.8 345.918 890.099 341.812 885.87C345.75 875.413 361.978 829.339 373.687 752.611C371.84 792.013 367.81 834.468 360.07 875.504C358.65 883.046 363.2 890.465 370.97 893.182C386.694 898.678 413.838 905.808 439.287 900.877C478.17 893.366 473.391 802.409 501.313 802.409H501.39C529.312 802.409 524.533 893.366 563.401 900.877C588.881 905.808 616.009 898.678 631.718 893.182C639.488 890.45 644.053 883.03 642.618 875.504C634.924 834.697 630.893 792.471 629.046 753.252C640.74 829.583 656.892 875.458 660.815 885.87Z" fill="#C1BFBF"/>
<path d="M345.307 445.561C330.866 454.492 342.208 474.597 342.208 474.597L343.292 462.689C343.674 458.4 345.979 454.583 349.628 452.232C367.306 440.813 393.595 419.852 400.266 414.479C397.228 413.547 394.205 412.616 391.213 411.624C381.244 419.684 360.085 436.416 345.307 445.561Z" fill="#595653"/>
<path d="M628.695 560.622C633.473 518.518 638.633 494.168 638.633 494.168C638.633 494.168 628.176 516.961 621.886 559.08C617.001 591.827 616.268 636.664 621.505 692.141C632.161 805.157 655.945 872.939 660.815 885.885C656.709 890.114 641.397 902.815 600.697 909.685C571.202 914.677 556.669 910.693 541.296 906.464C530.136 903.411 518.61 900.235 501.314 900.556C484.002 900.235 472.491 903.411 461.331 906.464C445.958 910.693 431.425 914.677 401.93 909.685C361.23 902.815 345.918 890.114 341.812 885.885C346.682 872.924 370.482 805.157 381.122 692.141C386.359 636.664 385.626 591.827 380.741 559.08C374.451 516.976 363.994 494.168 363.994 494.168C363.994 494.168 369.154 518.518 373.932 560.622C375.291 572.591 376.237 586.147 376.649 601.215C376.71 604.04 376.787 606.91 376.802 609.825C377.031 628.542 376.451 649.38 374.802 672.142H374.756C374.665 673.287 365.001 788.257 320.485 853.658L319.828 854.62L319.798 855.78C319.783 856.406 319.645 870.298 335.339 880.435C334.255 883.442 333.598 885.03 333.568 885.137L332.789 887.076L333.934 888.831C334.179 889.198 337.033 893.381 345.231 898.693C347.231 899.976 349.552 901.35 352.223 902.724C362.436 908.006 377.825 913.685 400.617 917.532C410.815 919.257 419.395 919.944 426.891 919.944C429.287 919.944 431.562 919.883 433.745 919.746C436.539 919.578 439.18 919.303 441.684 918.982C449.836 917.883 456.706 916.005 463.453 914.143C474.582 911.09 485.085 908.22 501.252 908.51H501.405C517.572 908.22 528.075 911.074 539.204 914.143C545.967 915.99 552.822 917.883 560.974 918.982C561.6 919.059 562.256 919.135 562.898 919.211C564.821 919.44 566.806 919.623 568.897 919.761C571.08 919.898 573.355 919.959 575.752 919.959C583.232 919.959 591.812 919.272 602.025 917.547C624.802 913.7 640.206 908.021 650.419 902.739C652.419 901.701 654.236 900.678 655.854 899.686C656.388 899.35 656.907 899.029 657.411 898.709C665.609 893.411 668.464 889.228 668.708 888.847L669.853 887.091L669.074 885.152C669.029 885.045 668.387 883.458 667.303 880.45C682.997 870.313 682.86 856.421 682.845 855.795L682.814 854.635L682.158 853.673C637.656 788.257 627.978 673.303 627.886 672.158H627.84C626.191 649.38 625.611 628.557 625.84 609.841C625.871 606.925 625.932 604.055 625.993 601.231C626.39 586.132 627.336 572.576 628.695 560.622ZM327.782 857.001C341.247 836.865 351.536 812.714 359.353 788.639C351.475 829.232 343.002 857.627 337.995 872.649C329.675 866.604 328.087 859.597 327.782 857.001ZM674.799 857.001C674.494 859.581 672.906 866.589 664.586 872.649C659.579 857.627 651.121 829.232 643.229 788.639C651.045 812.729 661.334 836.865 674.799 857.001Z" fill="#595653"/>
<path d="M663.059 468.17C661.853 471.956 660.372 474.597 660.372 474.597L659.38 463.697L659.289 462.689C658.907 458.4 656.602 454.583 652.953 452.232C635.275 440.813 608.986 419.852 602.315 414.479C605.353 413.547 608.376 412.616 611.368 411.624C621.321 419.684 642.48 436.416 657.258 445.561C666.479 451.255 665.212 461.514 663.059 468.17Z" fill="#595653"/>
<path d="M501.298 454.537C464.659 454.537 439.027 434.05 426.921 421.715C422.372 420.631 417.838 419.471 413.303 418.249C417.486 423.806 437.21 447.866 470.689 457.972L472.796 565.126C472.918 570.866 475.468 576.301 479.834 580.056C498.794 596.33 499.466 596.33 501.298 596.33C503.13 596.33 503.817 596.33 522.762 580.056C527.113 576.301 529.678 570.866 529.8 565.126L531.907 457.972C565.386 447.866 585.11 423.791 589.293 418.249C584.759 419.486 580.24 420.631 575.675 421.715C563.569 434.05 537.937 454.537 501.298 454.537ZM521.846 564.973C521.785 568.454 520.213 571.752 517.587 574.026C507.802 582.438 503.329 586.056 501.298 587.613C499.268 586.056 494.795 582.438 485.009 574.026C482.368 571.752 480.811 568.454 480.75 564.973L478.689 460.033C485.711 461.575 493.253 462.491 501.313 462.491C509.374 462.491 516.916 461.575 523.938 460.033L521.846 564.973Z" fill="#595653"/>
<path d="M488.688 494.153C488.688 501.115 494.352 506.763 501.298 506.763C508.244 506.763 513.908 501.099 513.908 494.153C513.908 487.207 508.244 481.543 501.298 481.543C494.352 481.543 488.688 487.207 488.688 494.153ZM508.611 494.153C508.611 498.184 505.328 501.466 501.298 501.466C497.268 501.466 493.986 498.184 493.986 494.153C493.986 490.123 497.268 486.841 501.298 486.841C505.328 486.841 508.611 490.123 508.611 494.153Z" fill="#595653"/>
<path d="M501.298 530.762C494.337 530.762 488.688 536.426 488.688 543.372C488.688 550.333 494.352 555.982 501.298 555.982C508.244 555.982 513.908 550.318 513.908 543.372C513.908 536.426 508.244 530.762 501.298 530.762ZM501.298 550.684C497.268 550.684 493.986 547.402 493.986 543.372C493.986 539.341 497.268 536.059 501.298 536.059C505.328 536.059 508.611 539.341 508.611 543.372C508.611 547.417 505.328 550.684 501.298 550.684Z" fill="#595653"/>
<path d="M277.785 602.62C273.312 604.376 269.282 606.04 265.694 607.582C262.213 609.078 259.145 610.467 256.489 611.749L207.087 507.007L226.948 497.634L228.017 497.13V497.145L277.785 602.62Z" fill="#FFCD85"/>
<path d="M336.82 709.194C338.209 712.14 338.377 715.453 337.262 718.537C336.163 721.59 333.919 724.063 330.973 725.452L326.744 727.437C327.293 728.124 327.874 728.826 328.454 729.513C341.308 744.978 346.33 746.413 347.323 746.55C347.414 746.428 347.491 746.321 347.582 746.199C348.269 744.733 349.475 739.192 343.567 721.147C341.201 713.896 338.407 706.98 336.606 702.629C335.888 703.148 335.171 703.667 334.453 704.171L336.82 709.194Z" fill="#595653"/>
<path d="M309.065 717.285C308.272 717.575 307.462 717.865 306.653 718.14L308.119 721.269C309.218 723.62 311.768 724.841 314.195 724.368C314.653 724.292 315.111 724.139 315.554 723.941L321.706 721.04L327.583 718.262C328.621 717.788 329.4 716.918 329.782 715.85C330.163 714.781 330.118 713.605 329.629 712.583L327.69 708.507C324.133 710.644 320.439 712.552 316.668 714.247C314.195 715.346 311.645 716.369 309.065 717.285Z" fill="#E59E41"/>
<path d="M333.14 648.022C330.362 650.128 326.881 651.014 324.82 651.38C324.667 651.044 324.561 650.8 324.484 650.648C322.179 645.793 319.462 642.648 317.065 640.618C320.5 636.877 322.164 631.84 321.675 626.832C321.477 624.954 320.988 623.077 320.164 621.291C318.042 616.665 315.294 612.222 311.966 608.085C311.615 607.643 311.248 607.23 310.867 606.818C316.164 606.238 322.835 606.772 326.438 611.978C326.881 612.619 327.293 613.291 327.69 613.993C334.529 625.87 335.461 645.442 333.14 648.022Z" fill="#56D13D"/>
<path d="M338.621 690.935L338.331 691.18C326.042 701.683 311.905 708.995 296.349 712.919C275.388 718.231 271.297 713.758 257.298 685.363C256.489 683.714 255.649 681.989 254.748 680.173C240.154 650.251 244.566 629.962 250.779 624.176C253.863 621.321 267.114 615.215 286.212 607.887C293.265 605.17 301.112 607.261 305.783 613.077C306.028 613.398 306.287 613.703 306.531 614.024C306.531 614.024 306.531 614.024 306.531 614.039C309.188 617.367 311.737 620.772 312.958 624.634C317.752 639.885 291.051 650.465 291.051 650.465C291.051 650.465 297.845 649.579 304.638 647.457C306.516 646.877 308.394 646.205 310.134 645.411C311.264 646.068 313.081 647.396 314.928 649.991C314.928 649.991 314.943 650.007 314.958 650.037C315.752 651.136 316.546 652.464 317.309 654.067C320.332 660.449 321.523 665.227 321.843 667.563C321.294 667.883 320.729 668.219 320.21 668.616C315.661 672.051 302.547 685.043 301.646 685.943C302.806 685.119 323.996 670.265 332.179 674.02C335.491 675.532 337.186 678.677 338.01 681.104C339.506 685.531 339.079 689.729 338.621 690.935Z" fill="#56D13D"/>
<path d="M374.726 672.127C374.726 672.127 374.726 672.158 374.711 672.173C374.329 673.73 365.245 710.262 354.987 732.887C354.208 728.979 352.971 724.307 351.139 718.659C348.254 709.85 344.88 701.667 343.094 697.53C340.987 699.316 338.835 701.011 336.621 702.614C338.438 706.965 341.216 713.88 343.583 721.132C349.491 739.177 348.285 744.703 347.598 746.184C347.506 746.306 347.43 746.413 347.338 746.535C346.346 746.398 341.323 744.963 328.469 729.498C327.889 728.811 327.324 728.109 326.759 727.422L319.309 730.933C327.935 741.711 339.064 753.664 346.544 754.443C346.88 754.489 347.201 754.489 347.491 754.489C349.536 754.489 351.338 753.771 352.788 752.397C353.353 751.848 353.933 751.161 354.452 750.245C361.566 740.215 368.116 722.536 373.001 706.934C378.008 690.966 381.244 677.18 381.504 676.051L374.726 672.127Z" fill="#595653"/>
<path d="M321.508 599.567C346.178 589.613 353.612 575.095 353.887 574.515C351.719 576.408 347.384 578.728 341.964 581.202C318.546 531.678 336.392 479.452 340.728 468.277C341.262 466.918 341.583 466.17 341.613 466.109L340.331 459.911L339.705 456.95C338.468 459.636 307.142 525.342 334.667 584.362C320.072 590.407 301.814 596.529 294.181 598.819C296.822 599.002 299.387 599.597 301.829 600.574C305.295 599.552 313.676 597.521 321.508 599.567Z" fill="#595653"/>
<path d="M309.065 717.285C311.645 716.369 314.195 715.331 316.683 714.232C320.454 712.537 324.133 710.629 327.705 708.491C330.011 707.148 332.255 705.698 334.468 704.171C335.201 703.667 335.919 703.148 336.621 702.629C338.834 701.026 340.987 699.332 343.094 697.546C343.231 697.439 343.353 697.317 343.491 697.21L344.04 696.736C347.887 693.5 346.941 685.226 346.712 683.607C345.582 675.593 341.46 669.456 335.384 666.738C333.522 665.899 331.522 665.486 329.507 665.486C329.156 663.334 328.499 661.013 327.766 658.861C330.667 658.189 334.529 656.891 337.918 654.342C345.872 648.312 341.689 620.069 332.957 607.444C329.904 603.032 325.797 600.681 321.492 599.551C313.66 597.506 305.279 599.521 301.829 600.574C299.386 599.597 296.822 599.002 294.181 598.819C291.219 598.605 288.181 598.926 285.219 599.811C284.578 599.994 283.952 600.208 283.326 600.452C281.403 601.2 279.556 601.902 277.769 602.605C268.961 606.07 261.862 609.123 256.473 611.734C253.634 613.093 251.298 614.344 249.42 615.444C247.619 616.528 246.26 617.489 245.344 618.344C235.528 627.458 232.047 651.777 247.588 683.638C260.351 709.82 266.64 722.689 284.074 722.689C288.135 722.689 292.776 722.002 298.242 720.613C298.47 720.567 298.699 720.491 298.913 720.43C301.524 719.773 304.088 718.995 306.623 718.14C307.462 717.865 308.271 717.575 309.065 717.285ZM326.438 611.993C334.407 623.519 335.598 645.289 333.14 648.022C330.362 650.129 326.881 651.014 324.82 651.38C324.667 651.044 324.561 650.8 324.484 650.648C322.179 645.793 319.462 642.648 317.065 640.618C321.782 635.473 323.171 627.855 320.164 621.291C318.042 616.665 315.294 612.222 311.966 608.085C311.615 607.643 311.248 607.23 310.867 606.818C316.164 606.253 322.835 606.788 326.438 611.993ZM296.333 712.903C274.167 718.521 270.854 713.178 254.748 680.157C240.153 650.235 244.565 629.947 250.779 624.161C253.863 621.306 267.114 615.199 286.212 607.872C293.265 605.154 301.112 607.246 305.783 613.062C308.699 616.695 311.63 620.375 312.958 624.619C317.752 639.87 291.051 650.449 291.051 650.449C291.051 650.449 302.134 648.999 310.134 645.396C311.752 646.327 314.76 648.663 317.294 654.052C320.316 660.433 321.507 665.212 321.828 667.547C321.278 667.868 320.713 668.204 320.194 668.601C315.645 672.036 302.531 685.027 301.631 685.928C302.791 685.104 323.98 670.249 332.163 674.005C335.476 675.516 337.17 678.661 337.995 681.089C339.506 685.5 339.079 689.714 338.621 690.905L338.331 691.149C326.041 701.667 311.905 708.98 296.333 712.903Z" fill="#204712"/>
<path d="M330.972 725.452C333.919 724.063 336.163 721.605 337.262 718.537C338.361 715.468 338.209 712.14 336.819 709.194L334.468 704.171C332.27 705.698 330.011 707.148 327.705 708.492L329.644 712.568C330.117 713.606 330.178 714.766 329.797 715.835C329.415 716.903 328.637 717.773 327.598 718.247L321.721 721.025L315.569 723.926C315.126 724.124 314.683 724.277 314.21 724.353C311.767 724.826 309.233 723.605 308.134 721.254L306.668 718.125C304.134 718.979 301.57 719.758 298.959 720.414L300.944 724.643C303.249 729.528 308.134 732.398 313.202 732.398C315.141 732.398 317.095 731.986 318.958 731.101L319.309 730.933L326.759 727.422L330.972 725.452Z" fill="#70340A"/>
<path d="M277.785 602.62C279.571 601.918 281.434 601.2 283.342 600.467C283.968 600.223 284.594 600.009 285.235 599.826L235.207 493.741L228.032 497.13L277.785 602.62Z" fill="#70340A"/>
<path d="M207.087 506.992L199.896 510.381L249.435 615.444C251.298 614.344 253.649 613.093 256.488 611.734L207.087 506.992Z" fill="#70340A"/>
<path d="M737.33 612.085C737.299 611.993 737.284 611.902 737.253 611.825C724.124 568.439 677.44 480.658 665.471 458.415C663.945 455.575 662.998 453.82 662.723 453.331L661.044 461.972L660.708 463.712C661.273 464.766 714.934 565.752 729.59 613.978C729.925 615.627 733.269 634.664 720.842 652.54C708.308 670.585 680.951 679.928 676.448 680.523C670.937 679.073 620.619 662.57 583.247 650.235C614.009 627.214 625.26 597.719 629.245 576.392C631.519 564.134 631.733 553.325 631.336 545.432C644.541 561.294 670.143 593.002 684.478 617.077C684.203 616.222 674.616 588.666 629.184 530.578C629.122 530.487 629.046 530.395 628.97 530.304C628.313 529.464 627.336 529.006 626.313 528.945C625.84 528.899 625.352 528.96 624.863 529.098C624.634 529.143 624.405 529.25 624.191 529.342C622.573 530.136 621.703 531.937 622.054 533.693C622.069 533.738 622.405 535.448 622.756 538.441C623.55 545.326 624.405 559.065 621.352 575.217C618.665 589.384 613.719 602.223 606.559 613.673C605.078 616.024 603.506 618.329 601.826 620.573C595.476 629.153 587.736 636.847 578.652 643.655C579.614 630.74 583.263 619.016 585.247 613.383C582.927 612.009 580.637 610.436 578.5 608.665C576.286 614.451 570.103 632.496 570.469 651.579H570.485C570.485 651.731 570.485 651.869 570.515 652.021C570.714 653.517 571.767 654.785 573.202 655.273C602.987 665.135 672.555 688.096 675.578 688.447C675.669 688.462 675.776 688.477 675.913 688.477C681.257 688.477 712.583 678.295 727.33 657.059C742.367 635.473 737.528 613.047 737.33 612.085Z" fill="#595653"/>
<path d="M621.291 522.564C618.527 519.663 615.199 517.068 611.459 515.785C607.292 514.366 595.796 512.503 577.385 509.587C558.012 506.534 533.891 502.718 527.754 500.092C526.625 499.619 525.358 499.664 524.289 500.26C523.831 500.504 513.083 506.611 514.473 521.602C515.16 529.037 521.281 534.96 533.739 538.318C533.189 538.792 532.655 539.311 532.197 539.906C529.937 542.791 529.25 546.623 530.334 550.135C532.945 558.531 537.83 564.363 544.395 567.141C544.471 567.172 544.501 567.263 544.456 567.324C543.479 568.897 542.837 570.5 542.7 571.904C542.456 574.683 544.135 597.124 549.692 604.589C552.089 607.81 556.455 609.566 561.874 609.566C562.76 609.566 563.691 609.52 564.638 609.413C568.149 609.062 572.393 607.917 575.293 605.856C575.339 605.811 575.416 605.811 575.461 605.872C576.423 606.849 577.461 607.78 578.515 608.65C580.652 610.421 582.942 611.993 585.262 613.367C591.277 616.924 597.506 619.214 601.826 620.558C603.505 618.314 605.078 616.008 606.559 613.657C599.933 611.841 582.362 606.009 576.484 593.949C575.813 592.559 574.408 591.842 572.851 591.705C565.752 591.094 561.386 586.468 560.302 585.186C560.21 585.079 560.058 585.155 560.058 585.293C560.21 587.216 561.325 595.002 570.24 599.383C570.256 599.536 570.256 599.506 570.271 599.658C568.683 600.589 565.019 601.719 561.31 601.597C558.76 601.521 556.806 600.849 556.043 599.826C552.593 595.17 550.379 575.95 550.577 572.774C550.577 572.759 550.593 572.759 550.593 572.729C550.944 571.431 554.15 567.92 556.348 567.477C558.47 567.141 573.339 567.37 582.728 569.034C582.881 569.065 582.957 568.836 582.804 568.775C579.904 567.385 570.744 563.126 563.035 560.958C560.989 560.378 559.462 558.668 559.188 556.562C559.004 554.913 558.867 552.623 558.928 549.448C558.959 547.86 559.279 546.501 559.752 545.371C560.821 542.73 563.355 541.005 566.18 540.715C576.087 539.723 581.919 537.265 583.568 536.487C583.705 536.425 583.644 536.227 583.507 536.227C536.212 534.67 522.808 525.571 522.381 520.854C521.724 513.877 524.884 509.939 526.777 508.229C526.823 508.183 526.854 508.183 526.915 508.198C535.754 511.022 556.256 514.259 576.164 517.419C590.422 519.663 605.154 522.014 608.879 523.281C615.001 525.388 620.726 534.426 622.787 538.425C622.436 535.433 622.1 533.723 622.084 533.678C621.733 531.922 622.604 530.121 624.222 529.327C624.451 529.22 624.664 529.128 624.893 529.082C625.367 528.93 625.855 528.884 626.344 528.93C624.97 526.884 623.26 524.655 621.291 522.564ZM538.258 545.097C538.899 544.059 539.967 543.54 541.128 543.57C545.158 543.799 548.883 543.448 551.814 542.99C551.921 542.975 551.982 543.066 551.967 543.173C551.417 544.776 551.035 546.776 550.99 549.325C550.913 553.921 551.158 557.569 551.783 560.363C551.554 560.607 551.539 560.607 551.325 560.867C544.898 559.951 540.425 555.615 537.983 547.967C537.693 547.005 537.738 545.936 538.258 545.097Z" fill="#204712"/>
<path d="M551.784 560.348C551.555 560.592 551.539 560.592 551.326 560.851C544.899 559.936 540.426 555.6 537.983 547.951C537.861 547.539 537.8 547.112 537.815 546.7C537.83 546.15 537.968 545.585 538.258 545.097C538.899 544.059 539.968 543.54 541.128 543.57C545.158 543.799 548.883 543.448 551.814 542.99C551.921 542.975 551.982 543.066 551.967 543.173C551.417 544.776 551.036 546.776 550.99 549.325C550.99 549.478 550.975 549.646 550.99 549.799C550.929 554.165 551.188 557.646 551.784 560.348Z" fill="#56D13D"/>
<path d="M585.293 613.367C591.308 616.924 597.536 619.214 601.857 620.558C595.506 629.137 587.766 636.831 578.682 643.64C579.659 630.74 583.293 619.016 585.293 613.367Z" fill="#595653"/>
<path d="M622.207 570.286C622.207 570.286 622.207 570.332 622.192 570.439C622.161 570.561 622.146 570.683 622.131 570.79C622.1 570.958 622.07 571.156 622.039 571.416C622.009 571.599 621.993 571.798 621.963 571.981C621.948 572.027 621.948 572.057 621.932 572.103C621.78 573.126 621.581 574.149 621.383 575.202C621.077 576.82 620.726 578.423 620.375 579.996C617.536 592.27 612.925 603.521 606.59 613.658C599.964 611.841 582.393 606.009 576.515 593.949C575.843 592.56 574.439 591.842 572.882 591.705C565.783 591.094 561.417 586.468 560.333 585.186C560.241 585.079 560.089 585.156 560.089 585.293C560.241 587.216 561.356 595.002 570.271 599.384C570.287 599.536 570.287 599.506 570.302 599.658C568.714 600.59 565.05 601.719 561.341 601.597C558.791 601.521 556.837 600.849 556.074 599.826C552.624 595.17 550.41 575.95 550.608 572.775C550.608 572.759 550.624 572.759 550.624 572.729C550.975 571.431 554.181 567.92 556.379 567.477C558.501 567.141 573.37 567.37 582.759 569.034C582.881 569.05 582.942 568.943 582.912 568.851C582.912 568.821 582.881 568.79 582.851 568.775C579.95 567.386 570.79 563.126 563.081 560.959C561.035 560.378 559.509 558.669 559.234 556.562C559.051 554.913 558.913 552.623 558.974 549.448C558.99 548.425 559.127 547.509 559.356 546.685C559.356 546.669 559.356 546.669 559.356 546.669C559.478 546.211 559.615 545.769 559.799 545.372C560.867 542.731 563.401 541.005 566.226 540.715C576.134 539.723 581.965 537.265 583.614 536.487C583.751 536.426 583.69 536.227 583.553 536.227C536.258 534.67 522.854 525.571 522.427 520.854C521.77 513.877 524.931 509.939 526.824 508.229C526.869 508.183 526.9 508.183 526.961 508.198C535.8 511.023 556.303 514.259 576.21 517.419C590.469 519.663 605.2 522.014 608.925 523.281C615.047 525.388 620.772 534.426 622.833 538.426C623.505 544.608 624.253 556.302 622.207 570.286Z" fill="#56D13D"/>
<path d="M726.032 643.075C724.719 646.205 723.025 649.38 720.842 652.525C708.308 670.57 680.951 679.913 676.448 680.508C672.6 679.501 646.999 671.181 619.169 662.051C607.078 658.082 594.575 653.945 583.247 650.205C599.918 637.747 610.833 623.351 618.008 609.413C618.924 607.612 619.779 605.826 620.588 604.055C625.061 594.162 627.702 584.636 629.244 576.362C631.519 564.103 631.733 553.295 631.336 545.402C644.541 561.264 670.143 592.972 684.478 617.046C684.218 616.222 675.104 589.995 632.542 534.853C641.64 494.519 660.372 474.582 660.372 474.582C660.372 474.582 661.853 471.941 663.059 468.155C673.639 488.321 716.689 571.538 729.574 613.932C729.864 615.321 732.185 628.481 726.032 643.075Z" fill="white"/>
<path d="M551.326 560.851C544.899 559.935 540.426 555.6 537.983 547.951C537.861 547.539 537.8 547.112 537.815 546.7C538.059 547.448 538.578 548.15 539.494 548.7C542.532 550.547 548.624 550.073 550.99 549.799C550.929 554.165 551.188 557.661 551.784 560.363C551.555 560.592 551.555 560.607 551.326 560.851Z" fill="#379E25"/>
<path d="M559.203 556.577C559.02 554.928 558.882 552.638 558.943 549.463C558.959 548.44 559.096 547.524 559.325 546.7C559.325 547.066 559.508 554.363 564.439 557.264C569.492 560.241 589.064 568.851 595.476 569.446C595.476 569.446 589.552 569.507 582.896 568.881C582.896 568.851 582.866 568.82 582.835 568.805C579.935 567.416 570.775 563.157 563.065 560.989C560.989 560.393 559.462 558.684 559.203 556.577Z" fill="#379E25"/>
<path d="M606.59 613.657C599.964 611.841 582.393 606.009 576.515 593.949C575.843 592.559 574.439 591.842 572.882 591.704C565.783 591.094 561.417 586.468 560.333 585.186C560.241 585.079 560.089 585.155 560.089 585.293C560.241 587.216 561.356 595.002 570.271 599.383C570.286 599.536 570.286 599.505 570.302 599.658C568.714 600.589 565.05 601.719 561.34 601.597C558.791 601.521 556.837 600.849 556.074 599.826C552.623 595.17 550.41 575.95 550.608 572.774C550.608 572.759 550.624 572.759 550.624 572.729C550.624 572.729 551.54 580.728 560.959 580.56C560.959 580.56 570.119 586.941 581.874 586.01C581.874 586.01 593.873 596.971 607.002 595.948C614.528 595.353 618.421 587.002 620.375 579.995C617.535 592.285 612.925 603.536 606.59 613.657Z" fill="#379E25"/>
<path d="M726.032 643.075C724.719 646.205 723.025 649.38 720.842 652.525C708.308 670.57 680.951 679.913 676.448 680.508C670.936 679.058 620.619 662.555 583.247 650.22C602.055 636.145 613.566 619.642 620.588 604.07C621.428 616.711 624.39 629.718 632.145 636.816C650.464 653.579 688.126 667.227 708.507 657.899C715.712 654.601 721.529 648.968 726.032 643.075Z" fill="#C1BFBF"/>
<path d="M265.694 607.566C262.213 609.062 259.145 610.452 256.489 611.734L207.087 506.992L226.948 497.619C224.781 501.771 220.521 510.351 221.101 512.686C221.498 514.183 243.237 560.21 265.694 607.566Z" fill="#E59E41"/>
<path d="M228.032 497.13L271.648 605.078L277.785 602.62L228.032 497.13Z" fill="#FFF0D2"/>
<path d="M304.623 647.442C290.059 654.602 265.679 655.212 265.679 655.212C312.15 646.755 306.669 614.802 306.516 614.024C309.173 617.352 311.722 620.756 312.944 624.619C317.737 639.87 291.036 650.449 291.036 650.449C291.036 650.449 297.83 649.564 304.623 647.442Z" fill="#379E25"/>
<path d="M317.065 640.633C320.5 636.893 322.164 631.855 321.675 626.847C326.912 622.68 326.744 614.009 326.744 614.009H327.69C334.53 625.87 335.446 645.442 333.14 648.022C330.362 650.128 326.881 651.014 324.82 651.38C324.668 651.044 324.561 650.8 324.484 650.648C322.179 645.793 319.462 642.663 317.065 640.633Z" fill="#379E25"/>
<path d="M338.621 690.935L338.331 691.18C326.042 701.683 311.905 708.995 296.349 712.919C275.388 718.231 271.297 713.758 257.298 685.363C265.908 686.92 282.426 684.829 301.112 676.554C324.515 666.189 315.569 650.999 314.958 650.052C315.752 651.151 316.546 652.48 317.309 654.083C320.332 660.464 321.523 665.242 321.843 667.578C321.294 667.899 320.729 668.234 320.21 668.631C315.66 672.066 302.547 685.058 301.646 685.958C302.806 685.134 323.996 670.28 332.179 674.036C335.491 675.547 337.186 678.692 338.01 681.119C339.506 685.531 339.079 689.729 338.621 690.935Z" fill="#379E25"/>
<path d="M499.969 424.005C805.523 424.005 694.232 206.293 694.232 206.293C694.232 206.293 704.842 47.1727 499.969 97.8414C295.081 47.1727 305.706 206.293 305.706 206.293C305.706 206.293 194.415 424.005 499.969 424.005Z" fill="#56D13D"/>
<path d="M499.97 406.678C331.324 406.678 289.662 340.361 286.181 280.93C282.67 343.949 314.668 424.02 499.97 424.02C685.272 424.02 717.27 343.964 713.758 280.93C710.278 340.361 668.616 406.678 499.97 406.678Z" fill="#379E25"/>
<path d="M361.535 145.442C340.224 154.555 326.912 176.585 330.377 199.515C333.308 218.903 348.361 239.558 398.174 241.863C494.382 246.306 492.886 195.5 476.597 164.524C463.59 139.762 402.602 127.885 361.535 145.442Z" fill="white"/>
<path d="M414.494 232.947C436.036 232.947 453.499 215.033 453.499 192.935C453.499 170.836 436.036 152.922 414.494 152.922C392.952 152.922 375.489 170.836 375.489 192.935C375.489 215.033 392.952 232.947 414.494 232.947Z" fill="#1E300C"/>
<path d="M424.142 206.766C433.02 206.766 440.218 198.359 440.218 187.989C440.218 177.618 433.02 169.211 424.142 169.211C415.264 169.211 408.067 177.618 408.067 187.989C408.067 198.359 415.264 206.766 424.142 206.766Z" fill="white"/>
<path opacity="0.35" d="M405.187 217.828C409.466 214.217 409.073 206.715 404.31 201.071C399.547 195.426 392.217 193.778 387.939 197.388C383.66 200.998 384.053 208.501 388.817 214.145C393.58 219.789 400.909 221.438 405.187 217.828Z" fill="white"/>
<path opacity="0.15" d="M329.919 195.347C329.919 195.347 410.372 134.007 484.597 201.927C484.597 201.927 482.918 192.141 481.437 182.6C481.437 182.6 411.838 117.718 330.652 183.332L329.919 195.347Z" fill="#1E1E1E"/>
<path d="M361.535 145.442C340.224 154.555 326.912 176.585 330.377 199.515C333.308 218.903 348.361 239.558 398.174 241.863C494.382 246.306 492.886 195.5 476.597 164.524C463.59 139.762 402.602 127.885 361.535 145.442Z" stroke="#204712" stroke-width="8.24149" stroke-miterlimit="10" stroke-linecap="round" stroke-linejoin="round"/>
<path d="M487.421 179.638C487.406 181.409 486.245 182.722 484.795 183.18C483.726 183.515 482.505 183.378 481.452 182.599C410.8 130.374 350.925 165.547 332.591 179.012C332.514 179.058 332.438 179.134 332.362 179.165C329.751 180.829 326.347 178.722 326.652 175.562C329.598 146.48 369.168 114.023 432.6 124.527C482.169 132.725 487.558 165.104 487.421 179.638Z" fill="#46C130"/>
<path d="M484.795 183.18C483.727 183.515 482.505 183.378 481.452 182.599C410.8 130.374 350.926 165.547 332.591 179.012C332.515 179.058 332.438 179.134 332.362 179.165C330.072 177.775 328.82 176.966 328.82 176.966C328.82 176.966 351.323 139.961 407.426 139.854C459.163 139.732 482.215 171.608 484.795 183.18Z" fill="#379E25"/>
<path d="M332.591 179.012C350.925 165.532 410.815 130.374 481.452 182.599C483.925 184.431 487.39 182.691 487.421 179.623C487.574 165.104 482.169 132.709 432.6 124.496C369.168 113.993 329.598 146.449 326.652 175.531C326.331 178.813 329.95 180.951 332.591 179.012Z" stroke="#204712" stroke-width="8.24149" stroke-miterlimit="10" stroke-linecap="round" stroke-linejoin="round"/>
<path d="M335.415 215.178C335.415 215.178 386.282 248.962 472.109 227.177C472.185 227.162 464.155 255.939 400.586 251.618C337.185 247.328 335.415 215.178 335.415 215.178Z" fill="#46C130"/>
<path d="M335.415 215.178C335.415 215.178 386.282 248.962 472.109 227.177C472.185 227.162 464.155 255.939 400.586 251.618C337.185 247.328 335.415 215.178 335.415 215.178Z" stroke="#204712" stroke-width="8.24149" stroke-miterlimit="10" stroke-linecap="round" stroke-linejoin="round"/>
<path d="M472.689 242.611C463.941 254.519 450.293 261.801 436.386 265.938C434.966 266.304 431.134 267.175 429.653 267.541C422.173 268.915 414.372 269.388 406.815 268.823C405.075 268.716 405.044 266.152 406.8 266.014C414.082 265.159 421.44 264.213 428.569 262.518C438.462 260.091 448.095 256.473 456.98 251.481C462.064 248.657 467.025 245.405 471.544 241.665C472.155 241.008 473.238 241.894 472.689 242.611Z" fill="#204712"/>
<path d="M638.404 145.442C659.715 154.555 673.028 176.585 669.562 199.515C666.631 218.903 651.579 239.558 601.765 241.863C505.557 246.306 507.053 195.5 523.342 164.524C536.334 139.762 597.338 127.885 638.404 145.442Z" fill="white"/>
<path d="M585.445 232.947C606.987 232.947 624.45 215.033 624.45 192.935C624.45 170.836 606.987 152.922 585.445 152.922C563.903 152.922 546.44 170.836 546.44 192.935C546.44 215.033 563.903 232.947 585.445 232.947Z" fill="#1E300C"/>
<path d="M575.797 206.766C584.675 206.766 591.872 198.359 591.872 187.989C591.872 177.618 584.675 169.211 575.797 169.211C566.919 169.211 559.721 177.618 559.721 187.989C559.721 198.359 566.919 206.766 575.797 206.766Z" fill="white"/>
<path opacity="0.35" d="M611.072 214.161C615.835 208.516 616.228 201.014 611.949 197.404C607.671 193.793 600.342 195.442 595.579 201.086C590.815 206.73 590.422 214.233 594.701 217.843C598.979 221.454 606.308 219.805 611.072 214.161Z" fill="white"/>
<path opacity="0.15" d="M670.005 195.347C670.005 195.347 589.552 134.007 515.327 201.927C515.327 201.927 517.007 192.141 518.488 182.6C518.488 182.6 588.086 117.718 669.272 183.332L670.005 195.347Z" fill="#1E1E1E"/>
<path d="M638.404 145.442C659.715 154.555 673.028 176.585 669.562 199.515C666.631 218.903 651.579 239.558 601.765 241.863C505.557 246.306 507.053 195.5 523.342 164.524C536.334 139.762 597.338 127.885 638.404 145.442Z" stroke="#204712" stroke-width="8.24149" stroke-miterlimit="10" stroke-linecap="round" stroke-linejoin="round"/>
<path d="M512.519 179.638C512.534 181.409 513.694 182.722 515.145 183.18C516.213 183.515 517.435 183.378 518.488 182.599C589.14 130.374 649.014 165.547 667.349 179.012C667.426 179.058 667.502 179.134 667.578 179.165C670.189 180.829 673.593 178.722 673.288 175.562C670.341 146.48 630.771 114.023 567.34 124.527C517.77 132.725 512.381 165.104 512.519 179.638Z" fill="#46C130"/>
<path d="M515.144 183.18C516.213 183.515 517.434 183.378 518.488 182.599C589.14 130.374 649.014 165.547 667.349 179.012C667.425 179.058 667.501 179.134 667.578 179.165C669.868 177.775 671.12 176.966 671.12 176.966C671.12 176.966 648.617 139.961 592.514 139.854C540.776 139.732 517.709 171.608 515.144 183.18Z" fill="#379E25"/>
<path d="M667.349 179.012C649.014 165.532 589.125 130.374 518.488 182.599C516.015 184.431 512.549 182.691 512.519 179.623C512.366 165.104 517.77 132.709 567.34 124.496C630.771 113.993 670.341 146.449 673.288 175.531C673.608 178.813 669.99 180.951 667.349 179.012Z" stroke="#204712" stroke-width="8.24149" stroke-miterlimit="10" stroke-linecap="round" stroke-linejoin="round"/>
<path d="M664.509 215.178C664.509 215.178 613.642 248.962 527.815 227.177C527.739 227.162 535.769 255.939 599.338 251.618C662.754 247.328 664.509 215.178 664.509 215.178Z" fill="#46C130"/>
<path d="M664.509 215.178C664.509 215.178 613.642 248.962 527.815 227.177C527.739 227.162 535.769 255.939 599.338 251.618C662.754 247.328 664.509 215.178 664.509 215.178Z" stroke="#204712" stroke-width="8.24149" stroke-miterlimit="10" stroke-linecap="round" stroke-linejoin="round"/>
<path d="M528.395 241.649C546.913 256.351 569.889 263.556 593.139 266.014C594.834 266.167 594.849 268.686 593.124 268.823C574.789 270.487 555.646 266.03 540.456 255.481C535.418 251.924 530.746 247.802 527.235 242.611C526.762 241.894 527.739 241.023 528.395 241.649Z" fill="#204712"/>
<path d="M662.174 290.608C661.67 291.799 660.388 294.272 659.838 295.509C659.823 295.539 659.808 295.57 659.792 295.6C629.321 350.635 556.547 356.207 499.97 356.971C493.222 356.757 483.055 356.833 476.414 356.406C466.751 355.917 456.934 355.169 447.317 353.994C443.317 353.643 434.295 352.055 430.142 351.398C397.335 345.17 363.23 331.552 344.514 302.638C343.399 301.157 342.605 299.493 341.659 297.906L340.285 295.493C340.285 295.493 340.27 295.478 340.254 295.432L339.094 293.005C338.331 291.234 336.728 288.853 337.216 286.883C337.491 284.593 339.644 282.609 341.903 282.181C342.651 282.09 343.353 282.059 344.101 282.273C344.529 282.334 344.834 282.594 345.292 282.685C355.719 287.357 366.344 291.86 376.924 296.18C416.189 311.462 457.408 323.751 499.97 324.041C542.502 323.629 583.98 312.317 623.245 296.867C632.847 292.898 642.511 288.792 651.945 284.334C652.922 283.906 655.457 282.685 656.418 282.471C658.418 282.074 660.739 283.006 661.93 284.777C662.388 285.387 662.739 286.105 662.876 286.853C663.197 288.089 662.708 289.494 662.174 290.608Z" fill="white"/>
<path d="M662.174 290.608C661.67 291.799 660.388 294.272 659.838 295.509C659.823 295.509 659.807 295.524 659.792 295.524C485.024 381.427 340.3 295.524 340.3 295.524C340.3 295.524 340.285 295.509 340.27 295.463L339.109 293.036C338.346 291.265 336.743 288.883 337.232 286.914C337.506 284.624 339.659 282.639 341.918 282.212C342.666 282.12 343.369 282.09 344.117 282.304C344.544 282.365 344.849 282.624 345.307 282.716C355.734 287.387 366.36 291.891 376.939 296.211C416.204 311.493 457.423 323.782 499.985 324.072C542.517 323.66 583.995 312.348 623.26 296.898C632.863 292.929 642.526 288.822 651.961 284.365C652.938 283.937 655.472 282.716 656.434 282.502C658.433 282.105 660.754 283.036 661.945 284.807C662.403 285.418 662.754 286.135 662.891 286.883C663.197 288.089 662.708 289.494 662.174 290.608Z" fill="#C1BFBF"/>
<path d="M654.037 263.236C650.663 263.572 647.151 264.946 644.052 266.167C638.587 268.228 632.771 270.564 627.229 272.35C616.39 276.09 604.04 279.617 592.895 282.303C561.492 289.662 529.25 294.791 497.099 294.761C466.72 293.967 436.553 289.814 406.876 282.96C391.625 279.372 375.809 274.609 361.291 268.778C359.596 268.106 354.513 266.075 352.955 265.449C345.399 262.167 336.132 262.839 329.354 267.602C319.522 273.999 315.645 287.28 320.576 297.921C321.217 299.417 322.683 302.546 323.308 304.058C324.835 306.806 326.407 310.225 328.133 312.882L331.705 318.545C333.399 320.729 335.888 324.408 337.72 326.591C339.933 329.018 342.055 331.797 344.376 334.102C346.391 335.949 349.429 339.262 351.551 341.094C392.312 376.496 447.683 386.77 500 387.198C507.267 386.908 518.197 386.862 525.342 386.251C568.332 383 612.176 371.55 645.9 343.231C648.953 340.804 652.815 336.941 655.655 334.132C657.884 331.781 660.143 329.094 662.28 326.606C663.883 324.744 666.646 320.561 668.265 318.53C670.356 315.278 673.364 310.348 675.028 306.958L676.539 303.981L677.867 300.913L679.241 297.844L679.592 297.066C679.913 295.967 680.478 294.715 680.707 293.6C684.92 277.479 670.524 261.251 654.037 263.236ZM662.189 290.608C661.654 291.83 660.341 294.394 659.792 295.6C629.32 350.635 556.546 356.207 499.969 356.971C493.222 356.757 483.054 356.833 476.414 356.406C466.75 355.917 456.934 355.169 447.316 353.994C443.316 353.643 434.294 352.055 430.142 351.398C397.334 345.17 363.23 331.552 344.513 302.638C343.399 301.157 342.605 299.493 341.658 297.906L340.284 295.493L339.094 293.005C338.33 291.234 336.727 288.853 337.216 286.883C337.491 284.593 339.643 282.609 341.903 282.181C342.651 282.09 343.353 282.059 344.101 282.273C344.529 282.334 344.834 282.593 345.292 282.685C355.719 287.357 366.344 291.86 376.923 296.18C416.188 311.462 457.407 323.751 499.969 324.041C542.501 323.629 583.98 312.317 623.244 296.867C632.847 292.898 642.51 288.792 651.945 284.334C652.922 283.906 655.456 282.685 656.418 282.471C658.418 282.074 660.738 283.006 661.929 284.777C662.387 285.387 662.738 286.105 662.876 286.853C663.212 288.089 662.708 289.494 662.189 290.608Z" fill="#FB4E0A"/>
<path d="M500.061 338.926V320.53" stroke="#4C3A27" stroke-width="3.29659" stroke-miterlimit="10" stroke-linecap="round" stroke-linejoin="round"/>
<path d="M464.583 337.43V317.523" stroke="#4C3A27" stroke-width="3.29659" stroke-miterlimit="10" stroke-linecap="round" stroke-linejoin="round"/>
<path d="M431.18 333.14V307.783" stroke="#4C3A27" stroke-width="3.29659" stroke-miterlimit="10" stroke-linecap="round" stroke-linejoin="round"/>
<path d="M398.175 325.705V304.531" stroke="#4C3A27" stroke-width="3.29659" stroke-miterlimit="10" stroke-linecap="round" stroke-linejoin="round"/>
<path d="M366.955 315.126V292.043" stroke="#4C3A27" stroke-width="3.29659" stroke-miterlimit="10" stroke-linecap="round" stroke-linejoin="round"/>
<path d="M535.372 337.43V317.523" stroke="#4C3A27" stroke-width="3.29659" stroke-miterlimit="10" stroke-linecap="round" stroke-linejoin="round"/>
<path d="M568.759 333.14V307.783" stroke="#4C3A27" stroke-width="3.29659" stroke-miterlimit="10" stroke-linecap="round" stroke-linejoin="round"/>
<path d="M601.766 325.705V304.531" stroke="#4C3A27" stroke-width="3.29659" stroke-miterlimit="10" stroke-linecap="round" stroke-linejoin="round"/>
<path d="M632.985 315.126V292.043" stroke="#4C3A27" stroke-width="3.29659" stroke-miterlimit="10" stroke-linecap="round" stroke-linejoin="round"/>
<path d="M500.061 356.574V338.178" stroke="#4C3A27" stroke-width="3.29659" stroke-miterlimit="10" stroke-linecap="round" stroke-linejoin="round"/>
<path d="M464.583 355.093V335.186" stroke="#4C3A27" stroke-width="3.29659" stroke-miterlimit="10" stroke-linecap="round" stroke-linejoin="round"/>
<path d="M431.18 350.788V325.446" stroke="#4C3A27" stroke-width="3.29659" stroke-miterlimit="10" stroke-linecap="round" stroke-linejoin="round"/>
<path d="M398.175 343.368V322.179" stroke="#4C3A27" stroke-width="3.29659" stroke-miterlimit="10" stroke-linecap="round" stroke-linejoin="round"/>
<path d="M366.955 328.865V309.691" stroke="#4C3A27" stroke-width="3.29659" stroke-miterlimit="10" stroke-linecap="round" stroke-linejoin="round"/>
<path d="M535.372 355.093V335.186" stroke="#4C3A27" stroke-width="3.29659" stroke-miterlimit="10" stroke-linecap="round" stroke-linejoin="round"/>
<path d="M568.759 350.788V325.446" stroke="#4C3A27" stroke-width="3.29659" stroke-miterlimit="10" stroke-linecap="round" stroke-linejoin="round"/>
<path d="M601.766 343.368V322.179" stroke="#4C3A27" stroke-width="3.29659" stroke-miterlimit="10" stroke-linecap="round" stroke-linejoin="round"/>
<path d="M632.985 326.102V309.691" stroke="#4C3A27" stroke-width="3.29659" stroke-miterlimit="10" stroke-linecap="round" stroke-linejoin="round"/>
<path d="M653.93 305.157C653.93 305.157 599.201 338.911 500.062 338.911C400.922 338.911 346.208 305.157 346.208 305.157" stroke="#4C3A27" stroke-width="3.29659" stroke-miterlimit="10" stroke-linecap="round" stroke-linejoin="round"/>
<path d="M680.676 282.609C680.447 283.708 679.867 284.96 679.562 286.074L679.211 286.853L677.837 289.921L676.509 292.99L674.997 295.967C673.333 299.356 670.326 304.287 668.234 307.539C666.616 309.569 663.853 313.752 662.25 315.614C660.113 318.103 657.853 320.79 655.625 323.141C652.785 325.95 648.923 329.812 645.869 332.239C612.146 360.558 568.302 372.008 525.312 375.26C518.167 375.87 507.252 375.901 499.97 376.206C447.652 375.779 392.282 365.505 351.521 330.102C349.414 328.27 346.361 324.957 344.346 323.11C342.025 320.805 339.888 318.011 337.69 315.599C335.858 313.416 333.369 309.737 331.675 307.554L328.102 301.89C326.377 299.234 324.805 295.829 323.278 293.066C322.652 291.57 321.187 288.44 320.546 286.929C319.889 285.525 319.401 284.074 319.065 282.594C317.905 287.647 318.301 293.066 320.546 297.921C321.187 299.417 322.652 302.547 323.278 304.058C324.805 306.806 326.377 310.225 328.102 312.882L331.675 318.546C333.369 320.729 335.858 324.408 337.69 326.591C339.903 329.018 342.025 331.797 344.346 334.102C346.361 335.949 349.399 339.262 351.521 341.094C392.282 376.496 447.652 386.77 499.97 387.198C507.237 386.908 518.167 386.862 525.312 386.251C568.302 383 612.146 371.55 645.869 343.231C648.923 340.804 652.785 336.941 655.625 334.132C657.853 331.781 660.113 329.095 662.25 326.606C663.853 324.744 666.616 320.561 668.234 318.53C670.326 315.279 673.333 310.348 674.997 306.958L676.509 303.982L677.837 300.913L679.211 297.845L679.562 297.066C679.883 295.967 680.447 294.715 680.676 293.601C681.684 289.753 681.623 285.906 680.753 282.303C680.722 282.41 680.707 282.517 680.676 282.609Z" fill="#D13100"/>
<path d="M662.86 275.907C662.723 275.159 662.387 274.441 661.914 273.831C660.723 272.045 658.403 271.129 656.403 271.526C655.441 271.739 652.907 272.961 651.93 273.388C642.495 277.846 632.847 281.937 623.229 285.922C583.964 301.386 542.486 312.683 499.954 313.096C457.392 312.821 416.173 300.516 376.908 285.235C366.329 280.914 355.719 276.396 345.277 271.739C344.819 271.648 344.513 271.388 344.086 271.327C343.338 271.113 342.636 271.129 341.888 271.236C339.628 271.663 337.491 273.648 337.201 275.938C336.712 277.892 338.315 280.288 339.079 282.059L339.628 283.22C340.315 282.746 341.094 282.395 341.872 282.243C342.62 282.151 343.323 282.12 344.071 282.334C344.498 282.395 344.803 282.655 345.261 282.746C355.688 287.418 366.314 291.921 376.893 296.242C416.158 311.523 457.377 323.813 499.939 324.103C542.471 323.69 583.949 312.378 623.214 296.929C632.817 292.959 642.48 288.853 651.915 284.395C652.892 283.968 655.426 282.746 656.388 282.533C657.716 282.273 659.181 282.594 660.357 283.372C660.967 282.105 661.761 280.517 662.143 279.632C662.708 278.487 663.212 277.098 662.86 275.907Z" fill="#D13100"/>
<path d="M499.97 356.97C556.531 356.207 629.321 350.65 659.792 295.6C660.342 294.409 661.655 291.829 662.189 290.608C662.708 289.478 663.212 288.089 662.845 286.883C662.723 286.15 662.387 285.417 661.914 284.807C660.723 283.036 658.403 282.104 656.403 282.501C655.456 282.715 652.907 283.921 651.93 284.364C642.511 288.822 632.847 292.913 623.229 296.882C583.965 312.347 542.486 323.659 499.954 324.056C457.407 323.781 416.173 311.492 376.924 296.195C366.344 291.89 355.719 287.356 345.292 282.7C344.834 282.593 344.529 282.349 344.101 282.288C343.369 282.059 342.636 282.089 341.903 282.181C339.644 282.608 337.506 284.593 337.231 286.883C336.743 288.852 338.361 291.234 339.109 292.989L340.285 295.478L341.659 297.874C342.605 299.462 343.384 301.126 344.514 302.607C363.245 331.521 397.35 345.124 430.142 351.367C434.294 352.009 443.317 353.612 447.332 353.963C456.949 355.138 466.766 355.871 476.429 356.375C483.055 356.833 493.222 356.756 499.97 356.97ZM499.97 387.197C447.652 386.77 392.282 376.496 351.536 341.093C349.414 339.246 346.361 335.949 344.361 334.101C342.04 331.796 339.918 329.002 337.705 326.59C335.873 324.407 333.384 320.728 331.69 318.545L328.118 312.866C326.377 310.21 324.82 306.805 323.278 304.042C322.652 302.546 321.187 299.416 320.545 297.92C315.615 287.28 319.492 273.998 329.324 267.617C336.102 262.854 345.384 262.182 352.925 265.449C354.498 266.09 359.566 268.105 361.261 268.777C375.794 274.593 391.61 279.372 406.861 282.959C436.538 289.814 466.72 293.951 497.084 294.76C529.25 294.791 561.477 289.646 592.88 282.303C604.024 279.616 616.375 276.09 627.229 272.349C632.786 270.578 638.587 268.227 644.068 266.182C647.167 264.96 650.663 263.571 654.052 263.251C670.54 261.266 684.92 277.479 680.676 293.615C680.447 294.73 679.882 295.966 679.562 297.081L679.211 297.859L677.837 300.912L676.509 303.981L674.982 306.958C673.318 310.362 670.326 315.278 668.234 318.53C666.616 320.56 663.853 324.743 662.25 326.606C660.097 329.094 657.853 331.766 655.609 334.147C652.785 336.941 648.907 340.803 645.854 343.246C612.146 371.565 568.301 383.014 525.312 386.281C518.167 386.877 507.236 386.907 499.97 387.197Z" stroke="#4C3A27" stroke-width="8.24149" stroke-miterlimit="10" stroke-linecap="round" stroke-linejoin="round"/>
<path d="M310.012 194.324C309.02 204.476 310.18 214.582 311.966 224.627C312.088 225.543 311.447 226.368 310.531 226.49C309.936 226.566 309.355 226.307 309.004 225.879C306.302 222.521 304.531 218.536 303.341 214.43C301.86 208.934 301.112 203.224 301.402 197.515C301.554 194.019 301.722 189.194 306.592 189.714C308.806 190.065 310.287 192.141 310.012 194.324Z" fill="#204712"/>
<path d="M698.08 193.088C699.515 204.308 697.881 216.674 690.935 225.864C689.958 227.193 687.714 226.215 687.989 224.613C689.79 214.491 690.935 204.308 689.928 194.08C689.607 188.889 697.118 187.974 698.08 193.088Z" fill="#204712"/>
<path d="M499.969 424.005C805.523 424.005 694.232 206.293 694.232 206.293C694.232 206.293 704.842 47.1727 499.969 97.8414C295.081 47.1727 305.706 206.293 305.706 206.293C305.706 206.293 194.415 424.005 499.969 424.005Z" stroke="#204712" stroke-width="8.24149" stroke-miterlimit="10" stroke-linecap="round" stroke-linejoin="round"/>
<path d="M732.795 227.177C732.795 227.177 728.811 209.606 717.437 188.233C703.331 161.67 677.806 129.229 634.465 117.382C582.316 103.154 539.922 109.49 517.45 115.291C511.71 116.756 505.847 117.504 499.985 117.504C494.108 117.504 488.23 116.756 482.49 115.291C460.018 109.49 417.639 103.154 365.489 117.382C287.265 138.724 267.129 227.177 267.129 227.177C267.129 227.177 266.533 196.843 286.395 162.86C311.691 119.55 370.207 70.2705 505.466 70.2705C661.609 70.2705 710.858 135.946 726.155 182.31C734.551 207.621 732.795 227.177 732.795 227.177Z" fill="white"/>
<path d="M713.545 162.861C657.762 88.697 561.355 90.2847 543.784 93.5059C520.121 97.8415 499.97 100.727 499.97 100.727C499.97 100.727 479.834 97.8415 456.156 93.5059C438.584 90.2847 342.178 88.7123 286.395 162.861C266.533 196.843 267.129 227.177 267.129 227.177C267.129 227.177 287.25 138.725 365.489 117.382C417.639 103.154 460.018 109.49 482.49 115.291C488.23 116.756 494.092 117.504 499.985 117.504C505.863 117.504 511.74 116.756 517.48 115.291C539.952 109.49 582.331 103.154 634.481 117.382C712.705 138.725 732.841 227.177 732.841 227.177C732.841 227.177 733.406 196.858 713.545 162.861Z" fill="#C1BFBF"/>
<path d="M732.795 227.177C732.795 227.177 728.811 209.606 717.437 188.233L704.339 153.975C704.339 153.975 705.133 154.021 706.537 154.159C708.949 156.937 711.285 159.822 713.56 162.86C718.063 168.845 722.292 175.302 726.185 182.31C734.551 207.621 732.795 227.177 732.795 227.177Z" fill="#C1BFBF"/>
<path d="M744.184 325.996C742.123 246.153 720.567 140.938 630.16 120.512C593.857 111.703 555.249 110.253 518.854 119.306C506.565 122.573 493.268 122.603 481.009 119.275C458.171 113.016 434.569 109.093 410.952 111.047C345.368 116.115 293.188 160.296 271.77 221.727C261.022 251.603 256.259 283.418 254.595 315.111C254.565 315.767 254.015 316.286 253.343 316.256C252.748 316.225 252.29 315.783 252.214 315.218C248.733 282.807 254.229 249.924 265.068 219.3C287.25 154.983 341.796 108.849 410.311 103.078C434.874 100.895 459.529 104.803 483.131 111.108C494.184 113.963 505.725 114.009 516.763 111.138C554.531 101.872 594.483 103.46 632.084 112.711C708.293 129.977 740.49 206.644 747.314 277.632C748.779 293.814 749.268 309.997 747.772 326.209C747.68 327.186 746.794 327.919 745.817 327.812C744.871 327.706 744.169 326.912 744.184 325.996Z" fill="#595653"/>
<path d="M500.062 29.5707C677.486 29.5707 654.633 78.9112 654.633 78.9112C654.633 78.9112 606.712 52.8517 497.375 52.8517C388.038 52.8517 345.491 78.9265 345.491 78.9265C345.491 78.9265 322.638 29.5707 500.062 29.5707Z" fill="#5B5B5B"/>
<path d="M499.97 43.2188C371.81 43.2188 345.491 78.9265 345.491 78.9265C383 52.4396 499.97 52.8518 499.97 52.8518C499.97 52.8518 616.94 52.4396 654.449 78.9112C654.464 78.9265 628.13 43.2188 499.97 43.2188Z" fill="#424242"/>
<path d="M500.062 36.3943C629.687 36.3943 652.404 62.7286 655.228 76.9262C657.212 67.7054 656.006 29.5856 500.062 29.5856C344.117 29.5856 342.896 67.6901 344.88 76.9262C347.72 62.7286 370.436 36.3943 500.062 36.3943Z" fill="#757575"/>
<path d="M500.062 29.5707C677.486 29.5707 654.633 78.9112 654.633 78.9112C654.633 78.9112 606.712 52.8517 497.375 52.8517C388.038 52.8517 345.491 78.9265 345.491 78.9265C345.491 78.9265 322.638 29.5707 500.062 29.5707Z" stroke="#353434" stroke-width="7.43863" stroke-miterlimit="10" stroke-linecap="round" stroke-linejoin="round"/>
<path d="M500.062 52.0579C696.63 52.0579 671.303 106.726 671.303 106.726C671.303 106.726 618.222 77.8426 497.085 77.8426C375.947 77.8426 328.82 106.726 328.82 106.726C328.82 106.726 303.493 52.0579 500.062 52.0579Z" fill="#5B5B5B"/>
<path d="M499.97 67.1715C357.979 67.1715 328.82 106.726 328.82 106.726C370.375 77.3999 499.97 77.8579 499.97 77.8579C499.97 77.8579 629.565 77.3999 671.12 106.742C671.12 106.726 641.961 67.1715 499.97 67.1715Z" fill="#424242"/>
<path d="M500.061 59.6147C643.671 59.6147 668.845 88.7885 671.975 104.513C674.173 94.2843 672.83 52.0579 500.061 52.0579C327.293 52.0579 325.935 94.2843 328.133 104.513C331.278 88.7885 356.452 59.6147 500.061 59.6147Z" fill="#757575"/>
<path d="M500.062 52.0579C696.63 52.0579 671.303 106.726 671.303 106.726C671.303 106.726 618.222 77.8426 497.085 77.8426C375.947 77.8426 328.82 106.726 328.82 106.726C328.82 106.726 303.493 52.0579 500.062 52.0579Z" stroke="#353434" stroke-width="8.24149" stroke-miterlimit="10" stroke-linecap="round" stroke-linejoin="round"/>
<path d="M340.132 435.47L231.818 486.551L214.155 494.886L88.1931 554.287C85.2467 555.676 81.7202 554.409 80.331 551.463L8.51854 399.167C7.84683 397.732 7.7705 396.129 8.30482 394.648C8.83914 393.167 9.92304 391.976 11.3428 391.289L20.8079 386.832L263.297 272.487C264.091 272.121 264.946 271.922 265.816 271.922C266.472 271.922 267.159 272.045 267.816 272.274C269.297 272.808 270.487 273.892 271.159 275.312L334.163 408.907L342.972 427.577C344.346 430.554 343.078 434.081 340.132 435.47Z" fill="#C1BFBF"/>
<path d="M334.148 408.922L235.299 455.53L217.636 463.865L91.6739 523.266C88.7275 524.655 85.201 523.388 83.8118 520.442L20.7927 386.847L263.282 272.503C264.076 272.136 264.931 271.938 265.801 271.938C266.457 271.938 267.144 272.06 267.801 272.289C269.281 272.823 270.472 273.907 271.144 275.327L334.148 408.922Z" fill="white"/>
<path d="M228.032 497.115L235.207 493.741L343.521 442.66V442.645C350.437 439.393 353.398 431.119 350.147 424.203L278.334 271.922C276.762 268.579 273.968 266.045 270.472 264.793C266.991 263.541 263.221 263.724 259.893 265.297L7.95372 384.129C4.59515 385.702 2.07622 388.48 0.809118 391.976C-0.442714 395.457 -0.259519 399.228 1.32817 402.571L73.1406 554.852C75.4916 559.859 80.4989 562.806 85.6895 562.806C87.6741 562.806 89.674 562.378 91.5822 561.477L199.896 510.397L207.087 507.007L228.032 497.115ZM88.1931 554.272C85.2467 555.661 81.7202 554.394 80.331 551.447L8.51857 399.167C7.84686 397.732 7.77053 396.129 8.30485 394.648C8.83917 393.167 9.92307 391.976 11.3428 391.289L263.297 272.487C264.091 272.121 264.946 271.922 265.816 271.922C266.472 271.922 267.159 272.045 267.816 272.274C269.297 272.808 270.487 273.892 271.159 275.312L342.972 427.592C344.361 430.539 343.109 434.065 340.147 435.454L231.833 486.535L214.17 494.871L88.1931 554.272Z" fill="#595653"/>
<path d="M101.139 427.257L110.192 446.675C112.253 451.087 113.505 454.415 113.963 456.644C114.42 458.888 114.298 461.224 113.611 463.682C112.924 466.14 111.688 468.246 109.902 470.002C108.131 471.758 105.917 473.254 103.276 474.49C99.7954 476.109 96.7269 477.055 94.04 477.33C91.3684 477.605 88.9411 477.208 86.7886 476.139C84.6208 475.07 82.8194 473.727 81.3691 472.124C79.9188 470.506 78.2395 467.651 76.3159 463.544L66.8356 443.225C64.3472 437.882 62.9427 433.653 62.6221 430.569C62.3015 427.47 63.1412 424.493 65.141 421.593C67.1409 418.707 70.0873 416.356 73.9955 414.525C77.1861 413.044 80.3004 412.265 83.3384 412.204C86.3764 412.143 88.8953 412.631 90.8952 413.654C92.8951 414.677 94.5744 416.097 95.9636 417.898C97.3528 419.73 99.0779 422.845 101.139 427.257ZM84.3154 429.134C82.8804 426.035 81.827 424.173 81.1553 423.532C80.4989 422.89 79.6134 422.829 78.499 423.348C77.4151 423.852 76.896 424.6 76.9418 425.593C76.9724 426.585 77.7052 428.569 79.0944 431.577L92.3455 459.987C93.9179 463.361 95.0324 465.331 95.6888 465.88C96.33 466.43 97.2002 466.445 98.2841 465.941C99.368 465.437 99.887 464.705 99.8412 463.728C99.7954 462.751 99.1084 460.842 97.7803 457.988L84.3154 429.134Z" fill="#1C1B1B"/>
<path d="M121.931 405.655L126.588 415.654C127.809 418.265 128.481 420.341 128.587 421.883C128.71 423.425 128.175 425.043 127.015 426.783C125.855 428.508 123.931 429.989 121.275 431.226C118.206 432.661 115.657 433.287 113.611 433.119C111.581 432.951 109.978 432.34 108.802 431.302C107.642 430.264 106.482 428.539 105.352 426.127L100.467 415.654C99.1235 412.769 98.4213 410.509 98.3755 408.861C98.3144 407.212 98.9251 405.563 100.207 403.914C101.49 402.266 103.352 400.876 105.825 399.716C108.558 398.449 111.001 397.884 113.138 398.037C115.275 398.189 116.955 398.8 118.161 399.884C119.382 400.937 120.634 402.861 121.931 405.655ZM111.535 407.395C110.817 405.853 110.298 404.952 109.978 404.662C109.657 404.372 109.138 404.388 108.451 404.723C107.81 405.029 107.474 405.41 107.459 405.884C107.444 406.357 107.78 407.334 108.482 408.83L115.321 423.501C116.1 425.18 116.664 426.142 116.985 426.401C117.306 426.661 117.825 426.615 118.542 426.279C119.168 425.989 119.473 425.608 119.473 425.134C119.473 424.661 119.153 423.73 118.481 422.31L111.535 407.395ZM133.717 386.709L139.136 457.789L133.595 460.369L128.252 389.259L133.717 386.709ZM162.051 421.18L166.738 431.21C167.944 433.806 168.616 435.867 168.738 437.424C168.86 438.966 168.341 440.614 167.18 442.339C166.02 444.065 164.097 445.545 161.44 446.797C158.402 448.217 155.838 448.828 153.792 448.66C151.731 448.477 150.128 447.881 148.953 446.843C147.792 445.805 146.647 444.095 145.533 441.698L140.632 431.195C139.304 428.34 138.617 426.096 138.556 424.432C138.495 422.783 139.106 421.119 140.373 419.471C141.64 417.807 143.518 416.402 145.991 415.257C148.754 413.975 151.197 413.41 153.349 413.578C155.502 413.746 157.166 414.372 158.357 415.44C159.532 416.509 160.769 418.433 162.051 421.18ZM151.67 422.951C150.952 421.425 150.433 420.509 150.098 420.203C149.762 419.898 149.258 419.913 148.556 420.234C147.914 420.539 147.579 420.921 147.579 421.394C147.579 421.867 147.93 422.844 148.632 424.356L155.471 439.027C156.25 440.675 156.784 441.637 157.12 441.897C157.441 442.156 157.96 442.126 158.647 441.805C159.288 441.5 159.608 441.133 159.608 440.675C159.608 440.233 159.273 439.286 158.601 437.836L151.67 422.951Z" fill="#1C1B1B"/>
<path d="M161.609 375.061L176.722 368.024C181.501 365.795 185.287 364.482 188.08 364.085C190.889 363.688 193.576 364.268 196.141 365.825C198.706 367.382 201.163 370.68 203.514 375.718C205.102 379.122 205.667 381.748 205.24 383.58C204.797 385.412 203.179 387.427 200.37 389.61C204.232 388.77 207.224 388.984 209.331 390.236C211.438 391.488 213.361 394.007 215.132 397.808L217.651 403.212C219.483 407.151 220.399 410.28 220.384 412.586C220.368 414.906 219.544 416.86 217.895 418.478C216.247 420.097 212.384 422.31 206.293 425.15L188.783 433.317L161.609 375.061ZM181.409 377.962L187.439 390.908C188.08 390.587 188.569 390.327 188.935 390.16C190.416 389.473 191.195 388.663 191.271 387.732C191.332 386.816 190.569 384.618 188.95 381.168C188.096 379.351 187.332 378.145 186.661 377.565C185.989 376.985 185.332 376.741 184.706 376.786C184.065 376.878 182.966 377.275 181.409 377.962ZM191.668 399.976L199.255 416.265C201.362 415.196 202.568 414.234 202.873 413.349C203.179 412.479 202.782 410.861 201.698 408.51L199.164 403.075C198.003 400.586 197.026 399.197 196.263 398.907C195.484 398.663 193.958 398.999 191.668 399.976Z" fill="#1C1B1B"/>
<path d="M236.719 340.056L254.855 378.969C256.916 383.381 258.213 386.542 258.763 388.465C259.313 390.389 259.313 392.617 258.778 395.167C258.244 397.701 257.038 400.006 255.175 402.052C253.313 404.098 250.809 405.853 247.68 407.319C244.199 408.937 240.871 409.792 237.665 409.884C234.459 409.975 231.772 409.41 229.604 408.174C227.421 406.937 225.742 405.365 224.536 403.426C223.345 401.487 221.208 397.228 218.155 390.663L202.095 356.207L217.239 349.154L237.589 392.816C238.78 395.35 239.665 396.923 240.276 397.503C240.886 398.083 241.604 398.174 242.443 397.777C243.405 397.335 243.833 396.648 243.756 395.747C243.665 394.846 242.947 392.938 241.604 390.037L221.605 347.124L236.719 340.056Z" fill="#1C1B1B"/>
<path d="M274.838 322.286L281.113 364.589L290.944 385.671L276.915 392.205L267.083 371.123L239.115 338.926L253.023 332.438C260.488 342.788 265.282 349.872 267.404 353.673C265.343 347.063 263.19 338.758 260.931 328.759L274.838 322.286Z" fill="#1C1B1B"/>
</svg>
