<svg width="1007" height="1435" viewBox="0 0 1007 1435" fill="none" xmlns="http://www.w3.org/2000/svg">
<path d="M2 -3H0L0 1435H2L2 -3Z" fill="#3C8430" fill-opacity="0.05"/>
<path d="M102 -3H100L100 1435H102L102 -3Z" fill="#3C8430" fill-opacity="0.05"/>
<path d="M203 -3H201L201 1435H203L203 -3Z" fill="#3C8430" fill-opacity="0.05"/>
<path d="M303 -3H301L301 1435H303L303 -3Z" fill="#3C8430" fill-opacity="0.05"/>
<path d="M404 -3H402L402 1435H404L404 -3Z" fill="#3C8430" fill-opacity="0.05"/>
<path d="M504 -3H502L502 1435H504L504 -3Z" fill="#3C8430" fill-opacity="0.05"/>
<path d="M605 -3H603L603 1435H605L605 -3Z" fill="#3C8430" fill-opacity="0.05"/>
<path d="M705 -3H703L703 1435H705L705 -3Z" fill="#3C8430" fill-opacity="0.05"/>
<path d="M806 -3H804L804 1435H806L806 -3Z" fill="#3C8430" fill-opacity="0.05"/>
<path d="M904 -3H902L902 1435H904L904 -3Z" fill="#3C8430" fill-opacity="0.05"/>
<path d="M1007 0L1005 0L1005 1438H1007L1007 0Z" fill="#3C8430" fill-opacity="0.05"/>
</svg>
