<svg width="1507" height="1575" viewBox="0 0 1507 1575" fill="none" xmlns="http://www.w3.org/2000/svg">
<g clip-path="url(#clip0_445_910)">
<path d="M1322.77 1173.03L1317.46 1182.57C1329.23 1189.13 1344.52 1203.29 1357.21 1221.27C1348.45 1202.14 1335.34 1185.04 1322.77 1173.03Z" fill="#4C4C4C"/>
<path d="M1417.26 1266.96C1413.1 1242.84 1401.63 1218.89 1387.15 1198.54C1394.49 1212.93 1399.99 1228.26 1402.58 1243.67C1407.94 1275.39 1400.58 1304.01 1381.33 1326.39C1359.54 1351.73 1320.33 1365.33 1267.91 1365.75C1267.1 1365.75 1266.25 1365.75 1265.44 1365.75C1132.31 1365.75 921.538 1282.34 796.697 1141.55C754.651 1094.15 722.095 1035.13 699.886 966.128C682.299 911.461 671.146 850.434 666.768 784.736C666.327 778.083 665.96 771.552 665.667 765.095V607.453H663.612V788.405C663.906 794.862 664.297 801.393 664.737 808.046C669.238 873.744 680.636 934.771 698.614 989.438C721.312 1058.41 754.626 1117.43 797.602 1164.86C925.281 1305.65 1140.82 1389.06 1276.96 1389.06C1277.82 1389.06 1278.65 1389.06 1279.5 1389.06C1333.12 1388.64 1373.21 1375.04 1395.49 1349.7C1415.21 1327.3 1422.74 1298.68 1417.26 1266.96Z" fill="#4C4C4C"/>
<path d="M1381.33 1326.39C1359.56 1351.73 1320.35 1365.33 1267.91 1365.75H1265.41C1132.28 1365.75 921.511 1282.34 796.669 1141.58C754.623 1094.15 722.068 1035.15 699.883 966.153C682.297 911.485 671.143 850.434 666.74 784.76C666.3 778.107 665.933 771.577 665.64 765.119V607.453H701.253V788.405C701.546 794.324 701.889 800.317 702.305 806.383C709.104 903.903 735.961 1040.88 825.458 1139.6C946.093 1272.63 1148.96 1351.44 1276.86 1351.44H1279.23C1321.2 1351.12 1352.49 1341.68 1367.26 1324.85C1379.37 1311.08 1383.7 1293.76 1380.2 1273.34C1377 1254.78 1368.07 1236.63 1357.21 1221.24C1348.43 1202.11 1335.32 1185.02 1322.77 1173.03L1335.73 1149.7C1352.9 1159.26 1371.74 1176.9 1387.1 1198.52C1394.44 1212.93 1399.94 1228.24 1402.56 1243.65C1407.94 1275.37 1400.6 1303.99 1381.33 1326.39Z" fill="#666666"/>
<path d="M701.279 607.453H665.666V662.12H701.279V607.453Z" fill="#4C4C4C"/>
<path d="M1277.01 1396.37C1206.83 1396.37 1117.21 1374.53 1031.19 1336.44C964.268 1306.82 868.485 1253.84 792.22 1169.78C748.535 1121.59 714.707 1061.69 691.691 991.735C673.517 936.481 661.997 874.867 657.472 808.558C657.032 802.125 656.64 795.472 656.322 788.77C656.322 788.648 656.322 788.55 656.322 788.427V607.476C656.322 603.44 659.6 600.162 663.636 600.162H701.303C705.339 600.162 708.617 603.44 708.617 607.476V788.256C708.91 794.249 709.253 800.168 709.669 805.892C716.371 902.262 742.836 1037.55 830.939 1134.7C949.837 1265.8 1151.07 1344.15 1276.91 1344.15H1279.21C1318.49 1343.85 1348.6 1335.07 1361.81 1320.06C1372.38 1308.05 1376.14 1292.76 1373.01 1274.61C1366.53 1237.04 1333.97 1200.13 1313.94 1188.98C1310.42 1187.02 1309.15 1182.57 1311.1 1179.02L1329.4 1146.17C1330.35 1144.49 1331.92 1143.24 1333.78 1142.7C1335.64 1142.16 1337.64 1142.41 1339.33 1143.34C1374.16 1162.73 1415.52 1213.8 1424.47 1265.73C1430.32 1299.71 1422.22 1330.43 1401.02 1354.54C1377.32 1381.5 1335.34 1395.95 1279.6 1396.39C1278.74 1396.37 1277.86 1396.37 1277.01 1396.37ZM670.925 788.256C671.243 794.787 671.61 801.293 672.05 807.555C676.501 872.642 687.777 933.081 705.584 987.161C727.964 1055.16 760.765 1113.3 803.055 1159.94C928.949 1298.78 1142.9 1381.74 1277.01 1381.74C1277.84 1381.74 1278.65 1381.74 1279.48 1381.74C1330.97 1381.35 1369.2 1368.58 1390.04 1344.86C1408.21 1324.17 1415.13 1297.68 1410.07 1268.2C1402.39 1223.69 1368.83 1179.88 1338.47 1159.89L1327.25 1180.07C1349.51 1195.51 1380.42 1231.54 1387.42 1272.12C1391.33 1294.81 1386.42 1314.19 1372.79 1329.69C1356.6 1348.11 1323.41 1358.43 1279.33 1358.78H1276.91C1210.92 1358.78 1126.61 1338.13 1045.52 1302.1C982.466 1274.1 892.186 1224 820.104 1144.51C729.187 1044.25 701.939 905.564 695.066 806.894C694.65 801.024 694.308 794.934 693.99 788.77C693.99 788.648 693.99 788.525 693.99 788.403V614.764H670.949V788.256H670.925Z" fill="#333333"/>
<path d="M678.311 610.189H37.3486V1460.43H678.311V610.189Z" fill="#ED3535"/>
<path d="M634.164 610.189H81.5V1460.43H634.164V610.189Z" fill="#ED3535"/>
<path d="M678.311 1250.08H37.3486V1460.46H678.311V1250.08Z" fill="#C91818"/>
<path d="M678.311 610.189H37.3486V658.473H678.311V610.189Z" fill="#C91818"/>
<path d="M678.289 1466.72H37.3261C33.8528 1466.72 31.0645 1463.91 31.0645 1460.46V610.193C31.0645 606.72 33.8773 603.932 37.3261 603.932H678.289C681.762 603.932 684.55 606.744 684.55 610.193V1460.46C684.575 1463.91 681.762 1466.72 678.289 1466.72ZM43.6122 1454.19H672.052V616.455H43.6122V1454.19Z" fill="#630808"/>
<path d="M634.163 1466.72H81.4745C78.0013 1466.72 75.2129 1463.91 75.2129 1460.46V610.193C75.2129 606.72 78.0257 603.932 81.4745 603.932H634.138C637.612 603.932 640.4 606.744 640.4 610.193V1460.46C640.424 1463.91 637.612 1466.72 634.163 1466.72ZM87.7606 1454.19H627.877V616.455H87.7606V1454.19Z" fill="#630808"/>
<path d="M527.886 862.539H187.775V912.681H527.886V862.539Z" fill="#7F7E7E"/>
<path d="M527.886 709.939H187.775V736.111H527.886V709.939Z" fill="#B7B7B7"/>
<path d="M527.886 736.084H187.775V862.54H527.886V736.084Z" fill="#939393"/>
<path d="M527.862 918.942H187.776C184.303 918.942 181.515 916.13 181.515 912.681V709.935C181.515 706.462 184.327 703.674 187.776 703.674H527.886C531.36 703.674 534.148 706.487 534.148 709.935V912.681C534.148 916.154 531.335 918.942 527.862 918.942ZM194.038 906.419H521.6V716.197H194.038V906.419Z" fill="#353535"/>
<path d="M709.351 1460.43H6.26074V1519.31H709.351V1460.43Z" fill="#4C4C4C"/>
<path d="M709.351 1460.43H8.70703V1484.16H709.351V1460.43Z" fill="#666666"/>
<path d="M709.376 1525.59H6.26165C2.78839 1525.59 0 1522.78 0 1519.33V1460.46C0 1456.98 2.81285 1454.19 6.26165 1454.19H709.352C712.825 1454.19 715.613 1457.01 715.613 1460.46V1519.33C715.638 1522.78 712.825 1525.59 709.376 1525.59ZM12.5478 1513.04H703.114V1466.72H12.5478V1513.04Z" fill="#3A3A3A"/>
<path d="M709.351 580.766H6.26074V610.19H709.351V580.766Z" fill="#4C4C4C"/>
<path d="M709.351 417.256H6.26074V444.235H709.351V417.256Z" fill="#939393"/>
<path d="M709.351 444.232H6.26074V580.766H709.351V444.232Z" fill="#636363"/>
<path d="M709.376 616.452H6.26165C2.78839 616.452 0 613.64 0 610.191V417.254C0 413.781 2.81285 410.992 6.26165 410.992H709.352C712.825 410.992 715.613 413.805 715.613 417.254V610.191C715.638 613.664 712.825 616.452 709.376 616.452ZM12.5478 603.929H703.114V423.515H12.5478V603.929Z" fill="#353535"/>
<path d="M1401.14 619.683C1388.2 648.496 1381.92 679.878 1383.68 711.431C1389.21 810.272 1366.68 1035.23 1046.7 1035.23H1046.67C726.742 1035.23 704.191 810.296 709.767 711.431C711.504 679.878 705.218 648.496 692.303 619.683C659.65 546.94 647.395 483.223 647.591 428.385V428.287C648.276 253.694 775.588 168.966 775.588 168.966C845.616 -9.05022 1046.72 6.40822 1046.72 6.40822C1046.72 6.40822 1247.83 -9.07469 1317.83 168.966C1317.83 168.966 1537.72 315.284 1401.14 619.683Z" fill="white"/>
<path d="M1445.56 428.262V428.36C1445.78 483.223 1433.5 546.916 1400.85 619.658C1399.21 623.327 1397.67 627.07 1396.23 630.836C1386.44 656.495 1381.87 683.889 1383.38 711.431C1386.37 764.459 1381.26 853.785 1326.47 925.207C1279.19 986.87 1194.85 1035.18 1046.67 1035.23H1046.45C726.742 1035.13 704.191 810.247 709.743 711.431C711.48 679.878 705.193 648.496 692.279 619.683C659.625 546.94 647.371 483.223 647.567 428.385V428.287C654.831 353.783 677.75 298.602 708.422 257.853C796.721 140.447 949.349 142.966 977.184 148.054C1013.48 154.707 1044.55 159.207 1046.43 159.452C1046.5 159.476 1046.53 159.476 1046.53 159.476C1046.53 159.476 1078.42 154.902 1115.89 148.054C1143.7 142.966 1296.33 140.471 1384.66 257.853C1415.38 298.578 1438.3 353.759 1445.56 428.262Z" fill="#C1BFBF"/>
<path d="M1445.56 428.263V428.361C1445.78 483.224 1433.5 546.916 1400.85 619.659C1399.21 623.328 1397.67 627.07 1396.22 630.837C1285.57 817.61 1046.48 828.324 1046.48 828.324C1046.48 828.324 807.361 817.61 696.73 630.837C695.287 627.07 693.746 623.352 692.107 619.659C678.997 590.503 669.213 562.791 662.144 536.545C651.627 497.263 647.273 461.234 647.395 428.361V428.263C654.66 353.759 677.578 298.578 708.25 257.829C711.846 253.035 715.564 248.461 719.355 244.058C808.779 140.643 950.302 143.138 976.988 148.03C1014.46 154.903 1046.35 159.452 1046.35 159.452C1046.35 159.452 1046.38 159.452 1046.45 159.428C1046.53 159.452 1046.55 159.452 1046.55 159.452C1046.55 159.452 1078.45 154.878 1115.92 148.03C1143.73 142.942 1296.36 140.447 1384.68 257.829C1415.38 298.578 1438.3 353.759 1445.56 428.263Z" fill="#A0A0A0"/>
<path d="M701.549 299.41C701.549 299.41 647.346 407.154 661.606 531.189C661.826 533.023 661.997 534.809 662.144 536.57C651.627 497.288 647.273 461.259 647.395 428.385V428.288C654.66 353.784 677.578 298.603 708.25 257.853C711.846 253.059 715.564 248.485 719.355 244.083C721.581 243.862 722.828 243.789 722.828 243.789L701.549 299.41Z" fill="#C1BFBF"/>
<path d="M1391.41 299.41C1391.41 299.41 1445.61 407.154 1431.35 531.189C1431.13 533.023 1430.96 534.809 1430.81 536.57C1441.33 497.288 1445.68 461.259 1445.56 428.385V428.288C1438.3 353.784 1415.38 298.603 1384.7 257.853C1381.11 253.059 1377.39 248.485 1373.6 244.083C1371.37 243.862 1370.13 243.789 1370.13 243.789L1391.41 299.41Z" fill="#C1BFBF"/>
<path d="M1046.72 1035.2C726.767 1035.2 704.215 810.272 709.767 711.406C711.528 679.878 705.242 648.472 692.303 619.658C555.721 315.284 775.612 168.966 775.612 168.966C845.616 -9.07469 1046.72 6.40822 1046.72 6.40822C1046.72 6.40822 1247.83 -9.07469 1317.83 168.966C1317.83 168.966 1537.72 315.284 1401.14 619.683C1388.2 648.496 1381.92 679.902 1383.68 711.431C1389.23 810.296 1366.7 1035.2 1046.72 1035.2Z" stroke="#595653" stroke-width="12.1535" stroke-miterlimit="10" stroke-linecap="round" stroke-linejoin="round"/>
<path d="M1181.91 658.477C1177.34 663.613 1171.64 669.434 1164.91 675.476C1140.38 697.367 1101.86 721.656 1051.44 721.656C1001.03 721.656 962.484 697.392 937.952 675.452C931.225 669.434 925.551 663.564 920.977 658.477C927.752 660.262 934.576 661.925 941.351 663.442C979.092 672.052 1016.61 663.344 1051.44 663.344C1086.27 663.344 1123.77 672.052 1161.51 663.442C1168.31 661.925 1175.11 660.262 1181.91 658.477Z" fill="#379E25"/>
<path d="M796.794 748.686C797.308 750.178 797.968 751.596 798.849 752.99C798.506 752.355 797.699 750.838 796.794 748.686Z" fill="white"/>
<path d="M1301.18 752.718C1301.13 752.791 1301.1 752.913 1301.03 752.987C1301.93 751.568 1302.59 750.076 1303.11 748.584C1302.3 750.516 1301.57 751.959 1301.18 752.718Z" fill="white"/>
<path d="M874.16 1523.36C848.429 1544.4 828.812 1550.03 806.309 1550.03C795.351 1550.03 783.733 1548.68 770.354 1547.16C748.096 1544.64 733.982 1539.56 725.568 1535.28C727.06 1538.92 731.047 1544.08 735.646 1546.23C742.959 1549.61 808.437 1578.57 855.375 1549.41C903.438 1519.55 937.51 1485.01 945.289 1476.84C945.191 1474.32 945.044 1471.88 944.848 1469.48C931.004 1479.48 900.968 1501.45 874.16 1523.36Z" fill="#424242"/>
<path d="M943.919 1459.89C932.545 1468.01 898.718 1492.5 868.877 1516.88C833.362 1545.94 811.324 1543.42 771.308 1538.87C743.913 1535.74 729.996 1528.67 724.297 1524.9C724.223 1520.99 724.468 1516.96 725.251 1512.92C727.036 1503.65 731.61 1494.55 741.223 1488C748.022 1483.37 755.629 1478.92 762.943 1474.59C784.589 1461.9 806.896 1448.76 814.724 1428.56C830.035 1436.48 852.734 1444.97 885.803 1450.99C887.515 1451.31 889.276 1451.62 891.037 1451.92C907.132 1454.63 920.658 1455.71 932.472 1455.71C936.263 1455.71 939.859 1455.61 943.283 1455.39C943.503 1456.71 943.699 1458.23 943.919 1459.89Z" fill="#5B5B5B"/>
<path d="M943.919 1459.89C932.545 1468.01 898.718 1492.5 868.877 1516.88C833.362 1545.94 811.324 1543.42 771.308 1538.87C743.913 1535.74 729.996 1528.67 724.297 1524.9C724.223 1520.99 724.468 1516.95 725.251 1512.92C725.984 1514.97 727.305 1517.3 729.531 1518.79C734.276 1521.9 778.328 1529.97 823.823 1525.32C861.295 1521.5 880.275 1469.36 885.803 1451.01C887.515 1451.33 889.276 1451.65 891.037 1451.94C907.132 1454.66 920.658 1455.73 932.472 1455.73C936.263 1455.73 939.859 1455.63 943.283 1455.41C943.503 1456.71 943.699 1458.23 943.919 1459.89Z" fill="#424242"/>
<path d="M1225.67 1523.36C1251.4 1544.4 1271.02 1550.03 1293.52 1550.03C1304.48 1550.03 1316.09 1548.68 1329.47 1547.16C1351.73 1544.64 1365.85 1539.56 1374.26 1535.28C1372.77 1538.92 1368.78 1544.08 1364.18 1546.23C1356.87 1549.61 1291.39 1578.57 1244.45 1549.41C1196.39 1519.55 1162.32 1485.01 1154.54 1476.84C1154.64 1474.32 1154.78 1471.88 1154.98 1469.48C1168.85 1479.48 1198.88 1501.45 1225.67 1523.36Z" fill="#424242"/>
<path d="M1155.93 1459.89C1167.31 1468.01 1201.14 1492.5 1230.98 1516.88C1266.49 1545.94 1288.53 1543.42 1328.55 1538.87C1355.94 1535.74 1369.86 1528.67 1375.56 1524.9C1375.63 1520.99 1375.39 1516.96 1374.6 1512.92C1372.82 1503.65 1368.24 1494.55 1358.63 1488C1351.83 1483.37 1344.22 1478.92 1336.91 1474.59C1315.26 1461.9 1292.96 1448.76 1285.13 1428.56C1269.82 1436.48 1247.12 1444.97 1214.05 1450.99C1212.34 1451.31 1210.58 1451.62 1208.82 1451.92C1192.72 1454.63 1179.2 1455.71 1167.38 1455.71C1163.59 1455.71 1159.99 1455.61 1156.57 1455.39C1156.35 1456.71 1156.15 1458.23 1155.93 1459.89Z" fill="#5B5B5B"/>
<path d="M1155.93 1459.89C1167.31 1468.01 1201.14 1492.5 1230.98 1516.88C1266.49 1545.94 1288.53 1543.42 1328.55 1538.87C1355.94 1535.74 1369.86 1528.67 1375.56 1524.9C1375.63 1520.99 1375.39 1516.95 1374.6 1512.92C1373.87 1514.97 1372.55 1517.3 1370.32 1518.79C1365.58 1521.9 1321.53 1529.97 1276.03 1525.32C1238.56 1521.5 1219.58 1469.36 1214.05 1451.01C1212.34 1451.33 1210.58 1451.65 1208.82 1451.94C1192.72 1454.66 1179.2 1455.73 1167.38 1455.73C1163.59 1455.73 1159.99 1455.63 1156.57 1455.41C1156.35 1456.71 1156.15 1458.23 1155.93 1459.89Z" fill="#424242"/>
<path d="M943.919 1459.89C932.545 1468.01 898.718 1492.5 868.877 1516.88C833.362 1545.94 811.324 1543.42 771.308 1538.87C743.913 1535.74 729.996 1528.67 724.297 1524.9C724.027 1512.06 727.403 1497.39 741.247 1488C748.047 1483.37 755.654 1478.92 762.967 1474.59C784.614 1461.9 806.921 1448.76 814.748 1428.56C810.516 1426.38 806.872 1424.23 803.717 1422.2C798.287 1439.3 777.985 1451.21 756.632 1463.78C749.099 1468.18 741.369 1472.76 734.203 1477.6C716.812 1489.41 709.132 1509.76 712.556 1534.93C713.534 1542.32 720.652 1553.06 730.387 1557.61C738.85 1561.55 770.403 1575 805.6 1575C824.361 1575 844.148 1571.18 862.028 1560.05C918.261 1525.13 954.779 1485.13 956.295 1483.47L957.959 1481.64L957.91 1479.14C957.714 1469.5 956.662 1460.16 955.831 1454.19C951.893 1454.71 947.735 1455.12 943.307 1455.42C943.503 1456.71 943.699 1458.23 943.919 1459.89ZM945.313 1476.84C937.511 1485.04 903.463 1519.55 855.4 1549.41C808.462 1578.57 742.984 1549.63 735.67 1546.23C731.072 1544.08 727.085 1538.92 725.593 1535.28C733.982 1539.56 748.12 1544.64 770.378 1547.16C783.758 1548.68 795.376 1550.02 806.334 1550.02C828.861 1550.02 848.453 1544.4 874.185 1523.36C900.968 1501.45 931.004 1479.48 944.897 1469.48C945.068 1471.88 945.215 1474.32 945.313 1476.84Z" fill="#353434"/>
<path d="M1285.13 1428.56C1292.93 1448.76 1315.26 1461.87 1336.91 1474.59C1344.25 1478.92 1351.86 1483.37 1358.63 1488C1372.45 1497.39 1375.85 1512.06 1375.58 1524.9C1369.88 1528.7 1355.96 1535.74 1328.57 1538.87C1288.55 1543.42 1266.52 1545.96 1231 1516.88C1201.14 1492.47 1167.31 1468.01 1155.96 1459.89C1156.18 1458.23 1156.37 1456.71 1156.57 1455.39C1153.27 1455.2 1150.14 1454.88 1147.1 1454.53C1146.1 1454.41 1145.05 1454.31 1144.07 1454.19C1143.24 1460.16 1142.16 1469.5 1141.99 1479.14L1141.94 1481.64L1143.61 1483.47C1145.12 1485.13 1181.64 1525.13 1237.87 1560.05C1255.75 1571.16 1275.54 1575 1294.3 1575C1329.5 1575 1361.05 1561.55 1369.52 1557.61C1379.25 1553.08 1386.34 1542.32 1387.35 1534.93C1390.77 1509.76 1383.09 1489.41 1365.7 1477.6C1358.56 1472.76 1350.8 1468.18 1343.27 1463.78C1321.89 1451.23 1301.62 1439.3 1296.19 1422.2C1295.4 1422.71 1294.57 1423.23 1293.71 1423.74C1291.12 1425.31 1288.28 1426.92 1285.13 1428.56ZM1364.21 1546.26C1356.89 1549.63 1291.42 1578.59 1244.48 1549.44C1196.41 1519.57 1162.34 1485.04 1154.56 1476.87C1154.66 1474.35 1154.81 1471.9 1155 1469.5C1168.87 1479.51 1198.93 1501.47 1225.72 1523.39C1251.45 1544.42 1271.07 1550.05 1293.57 1550.05C1304.53 1550.05 1316.14 1548.7 1329.52 1547.19C1351.78 1544.67 1365.9 1539.58 1374.31 1535.3C1372.79 1538.94 1368.81 1544.11 1364.21 1546.26Z" fill="#353434"/>
<path d="M1147.08 1454.54C1150.11 1454.88 1153.24 1455.2 1156.54 1455.4C1153.24 1455.2 1150.11 1454.91 1147.08 1454.54Z" fill="#353434"/>
<path d="M1223.57 653.975C1218.82 655.54 1214.05 657.032 1209.28 658.5C1214.05 657.008 1218.82 655.54 1223.57 653.975Z" fill="#70340A"/>
<path d="M848.771 861.783L846.52 856.476C839.011 872.448 808.046 901.75 799.754 909.382C787.915 909.015 776.028 908.966 765.192 909.137C765.217 909.137 765.217 909.113 765.241 909.113C780.822 902.044 821.89 849.627 845.273 818.588C847.768 831.967 849.138 846.423 848.771 861.783Z" fill="#C1BFBF"/>
<path d="M1420.1 993.741C1419.66 994.964 1418.07 999.611 1418.07 999.611C1411.83 1017.83 1363.01 1086.91 1333.61 1127.58L1324.54 1122.03L1309.76 1112.98C1300.76 1045.06 1247.61 1007.54 1237.61 1001.08C1237.8 1000.39 1238.14 999.734 1238.68 999.196C1258.08 978.919 1278.87 959.131 1300.54 940.346L1301.98 939.074L1300.66 937.289C1300.44 936.995 1300.27 936.726 1300.05 936.457C1299.93 936.286 1299.81 936.09 1299.68 935.943C1274.17 900.77 1253.92 855.765 1250.5 847.987L1253.6 844.244L1252.6 837.127C1252.6 837.127 1253.43 803.372 1266.64 776.76C1275.81 758.293 1296.14 747.115 1304.72 737.063C1306 735.57 1306.95 734.078 1308.05 732.855C1326.57 758.342 1368.95 817.363 1398.79 863.641C1399.38 864.546 1399.94 865.426 1400.51 866.282C1418.73 894.729 1428.78 913.073 1430.37 920.876C1435.97 947.586 1427.88 971.043 1420.1 993.741Z" fill="white"/>
<path d="M1329.38 913.64L1310.88 933.917L1304.55 934.945L1300.07 936.412C1299.95 936.241 1299.83 936.045 1299.71 935.899C1274.2 900.726 1253.94 855.72 1250.52 847.942L1253.62 844.2L1255.29 842.243L1255.46 840.408C1255.46 840.384 1255.36 837.253 1257.42 831.334L1329.38 913.64Z" fill="#C1BFBF"/>
<path d="M1336.25 1354.55L1336.2 1352.71L1335.15 1351.17C1264.95 1248.02 1249.71 1066.68 1249.57 1064.85H1249.52C1246.9 1028.94 1246 996.092 1246.36 966.544C1246.39 961.946 1246.48 957.421 1246.61 952.969C1247.27 929.195 1248.78 907.817 1250.89 888.959C1258.45 822.527 1266.57 784.125 1266.57 784.125C1266.57 784.125 1250.08 820.081 1240.15 886.488C1232.42 938.122 1231.27 1008.86 1239.54 1096.35C1256.32 1274.64 1293.84 1381.55 1301.54 1401.97C1295.06 1408.63 1270.9 1428.66 1206.71 1439.49C1160.19 1447.37 1137.27 1441.08 1113.01 1434.43C1095.4 1429.61 1077.22 1424.6 1049.93 1425.11C1022.63 1424.6 1004.43 1429.59 986.846 1434.43C962.582 1441.08 939.664 1447.37 893.142 1439.49C828.911 1428.66 804.794 1408.63 798.312 1401.97C805.992 1381.55 843.513 1274.64 860.317 1096.35C862.372 1074.36 863.864 1053.4 864.769 1033.56C860.61 1033.98 856.306 1033.93 852.245 1033C852.196 1034.18 852.147 1035.37 852.074 1036.57C854.814 1038.38 858.14 1040 861.785 1040.56C862.005 1040.93 862.665 1042.08 863.79 1043.71C859.583 1044.91 855.523 1045.55 851.585 1045.7C851.242 1051.96 850.827 1058.34 850.362 1064.82H850.313C850.166 1066.66 834.928 1247.98 764.705 1351.15L763.653 1352.69L763.628 1354.52C763.604 1355.52 763.359 1377.44 788.137 1393.41C786.425 1398.16 785.397 1400.68 785.348 1400.85L784.101 1403.88L785.911 1406.65C786.302 1407.26 790.827 1413.84 803.742 1422.2C806.897 1424.21 810.542 1426.38 814.773 1428.54C830.868 1436.88 855.18 1445.83 891.112 1451.9C907.182 1454.61 920.732 1455.71 932.522 1455.71C936.313 1455.71 939.908 1455.61 943.357 1455.39C947.76 1455.12 951.918 1454.71 955.88 1454.19C968.746 1452.46 979.582 1449.47 990.222 1446.54C1007.78 1441.72 1024.32 1437.2 1049.85 1437.66H1050.12C1075.61 1437.2 1092.19 1441.7 1109.76 1446.54C1120.4 1449.45 1131.23 1452.43 1144.1 1454.19C1145.1 1454.32 1146.13 1454.41 1147.15 1454.54C1150.19 1454.88 1153.32 1455.2 1156.62 1455.39C1160.07 1455.61 1163.64 1455.71 1167.43 1455.71C1179.25 1455.71 1192.77 1454.61 1208.87 1451.9C1244.8 1445.83 1269.06 1436.9 1285.2 1428.54C1288.36 1426.92 1291.2 1425.31 1293.76 1423.74C1294.62 1423.23 1295.43 1422.69 1296.21 1422.2C1309.15 1413.86 1313.67 1407.26 1314.04 1406.65L1315.85 1403.88L1314.63 1400.85C1314.58 1400.68 1313.53 1398.16 1311.84 1393.41C1336.5 1377.47 1336.28 1355.55 1336.25 1354.55ZM776.249 1356.48C797.48 1324.73 813.722 1286.62 826.049 1248.66C813.624 1312.67 800.269 1357.48 792.368 1381.16C779.234 1371.62 776.739 1360.54 776.249 1356.48ZM1307.49 1381.13C1299.61 1357.46 1286.26 1312.67 1273.83 1248.64C1286.16 1286.6 1302.35 1324.71 1323.63 1356.45C1323.12 1360.54 1320.62 1371.62 1307.49 1381.13Z" fill="#595653"/>
<path d="M1061.45 861.783C1061.45 868.143 1056.26 873.328 1049.9 873.328C1043.54 873.328 1038.36 868.143 1038.36 861.783C1038.36 861.147 1038.43 860.487 1038.53 859.875C1039.43 854.396 1044.18 850.238 1049.9 850.238C1055.6 850.238 1060.37 854.396 1061.28 859.875C1061.4 860.487 1061.45 861.147 1061.45 861.783Z" fill="#C1BFBF"/>
<path d="M1061.45 784.148C1061.45 790.508 1056.26 795.693 1049.9 795.693C1043.54 795.693 1038.36 790.508 1038.36 784.148C1038.36 783.512 1038.43 782.852 1038.53 782.241C1039.43 776.786 1044.18 772.604 1049.9 772.604C1055.6 772.604 1060.37 776.786 1061.28 782.241C1061.4 782.852 1061.45 783.512 1061.45 784.148Z" fill="#C1BFBF"/>
<path d="M1061.3 859.899C1060.4 865.353 1055.65 869.511 1049.93 869.511C1044.23 869.511 1039.46 865.353 1038.55 859.899C1039.46 854.42 1044.2 850.262 1049.93 850.262C1055.63 850.262 1060.4 854.42 1061.3 859.899Z" fill="white"/>
<path d="M1061.3 782.241C1060.4 787.695 1055.65 791.853 1049.93 791.853C1044.23 791.853 1039.46 787.695 1038.55 782.241C1039.46 776.786 1044.2 772.604 1049.93 772.604C1055.63 772.628 1060.4 776.786 1061.3 782.241Z" fill="white"/>
<path d="M1049.93 734.203C1037.21 734.203 1025.32 732.759 1014.24 730.338L1015.32 784.173L1017.52 895.856C1017.61 901.359 1020.09 906.545 1024.24 910.14C1039.68 923.397 1046.75 929.121 1049.95 931.567C1053.15 929.096 1060.2 923.397 1075.66 910.14C1079.82 906.545 1082.29 901.335 1082.38 895.856L1084.61 783.807L1085.66 730.338C1074.53 732.759 1062.64 734.203 1049.93 734.203ZM1049.93 764.263C1060.88 764.263 1069.81 773.191 1069.81 784.149C1069.81 795.107 1060.88 804.035 1049.93 804.035C1038.97 804.035 1030.04 795.107 1030.04 784.149C1030.04 773.191 1038.94 764.263 1049.93 764.263ZM1049.93 841.898C1060.88 841.898 1069.81 850.826 1069.81 861.784C1069.81 872.741 1060.88 881.669 1049.93 881.669C1038.97 881.669 1030.04 872.741 1030.04 861.784C1030.04 850.826 1038.94 841.898 1049.93 841.898Z" fill="white"/>
<path d="M826.023 1248.64C823.92 1259.47 821.792 1269.77 819.639 1279.5C809.22 1327.23 798.898 1361.47 792.342 1381.16C784.882 1375.73 780.846 1369.81 778.67 1364.99C777.031 1361.32 776.419 1358.24 776.224 1356.48C797.503 1324.73 813.696 1286.62 826.023 1248.64Z" fill="white"/>
<path d="M1323.6 1356.48C1323.41 1358.24 1322.82 1361.3 1321.16 1364.99C1318.98 1369.81 1314.94 1375.73 1307.48 1381.16C1300.93 1361.47 1290.61 1327.23 1280.19 1279.5C1278.06 1269.79 1275.93 1259.5 1273.8 1248.64C1286.13 1286.62 1302.35 1324.73 1323.6 1356.48Z" fill="white"/>
<path d="M819.663 1279.5C809.243 1327.22 798.921 1361.47 792.366 1381.16C784.906 1375.73 780.87 1369.81 778.693 1364.99C795.35 1339.26 808.803 1309.69 819.663 1279.5Z" fill="#C1BFBF"/>
<path d="M1321.16 1364.99C1318.98 1369.81 1314.95 1375.73 1307.49 1381.16C1300.93 1361.47 1290.61 1327.22 1280.19 1279.5C1291.05 1309.69 1304.5 1339.26 1321.16 1364.99Z" fill="#C1BFBF"/>
<path d="M1301.54 1402C1295.06 1408.65 1270.92 1428.71 1206.71 1439.54C1160.19 1447.42 1137.27 1441.13 1113.01 1434.45C1095.42 1429.64 1077.3 1424.65 1050.05 1425.14H1049.93C1022.63 1424.62 1004.46 1429.64 986.846 1434.45C962.582 1441.11 939.663 1447.42 893.141 1439.54C828.935 1428.71 804.793 1408.67 798.312 1402C804.524 1385.51 830.109 1312.82 848.6 1191.82C853.028 1162.76 857.063 1130.91 860.317 1096.4C863.545 1062.18 865.331 1030.53 865.844 1001.54C866.651 956.588 864.401 918.137 859.729 886.731C859.705 886.585 859.705 886.511 859.705 886.511C849.774 820.103 833.289 784.123 833.289 784.123L798.972 753.255L800.684 734.471C801.296 727.695 804.916 721.678 810.664 717.985C838.547 699.983 880.006 666.913 890.549 658.45C897.348 660.529 904.221 662.511 911.095 664.369V664.394H911.119C917.723 673.15 948.836 711.112 1001.62 727.059L1004.95 896.075C1005.14 905.125 1009.18 913.71 1016.05 919.629C1045.94 945.312 1047.02 945.312 1049.93 945.312C1052.84 945.312 1053.89 945.312 1083.8 919.629C1090.68 913.71 1094.71 905.125 1094.91 896.075L1098.23 727.524V727.035C1151.04 711.087 1182.13 673.126 1188.74 664.369V664.345C1195.61 662.486 1202.48 660.505 1209.28 658.426C1219.82 666.913 1261.26 699.958 1289.17 717.96C1294.91 721.654 1298.56 727.671 1299.15 734.446L1300.86 753.231L1266.54 784.099C1266.54 784.099 1250.06 820.055 1240.12 886.487C1232.42 938.145 1231.27 1008.86 1239.51 1096.35C1242.82 1131.28 1246.9 1163.47 1251.4 1192.79C1269.89 1313.23 1295.35 1385.58 1301.54 1402Z" fill="white"/>
<path d="M1017.49 895.854L1015.29 784.172L1022.92 886.217C1023.31 891.402 1025.66 896.245 1029.5 899.767L1045.5 914.394C1047.99 916.669 1051.81 916.669 1054.31 914.394L1070.3 899.767C1074.14 896.245 1076.49 891.402 1076.88 886.217L1084.54 783.805L1082.31 895.854C1082.21 901.357 1079.74 906.543 1075.58 910.138C1060.15 923.395 1053.08 929.119 1049.88 931.565C1046.67 929.094 1039.63 923.395 1024.17 910.138C1020.06 906.543 1017.59 901.333 1017.49 895.854Z" fill="#C1BFBF"/>
<path d="M1102.42 906.031C1102.59 913.687 1099.8 921.147 1094.64 926.846L1059.2 965.81C1054.23 971.314 1045.6 971.314 1040.63 965.81L1005.19 926.846C1000.03 921.172 997.24 913.711 997.411 906.031L1001.64 727.061L1004.97 896.076C1005.16 905.126 1009.2 913.711 1016.07 919.631C1045.96 945.313 1047.04 945.313 1049.95 945.313C1052.86 945.313 1053.91 945.313 1083.83 919.631C1090.7 913.711 1094.74 905.126 1094.93 896.076L1098.26 727.525L1102.42 906.031Z" fill="#C1BFBF"/>
<path d="M1301.54 1402C1295.06 1408.65 1270.92 1428.71 1206.71 1439.54C1160.19 1447.42 1137.27 1441.13 1113.01 1434.46C1095.42 1429.64 1077.3 1424.65 1050.05 1425.14H1049.93C1022.63 1424.62 1004.46 1429.64 986.846 1434.46C962.582 1441.11 939.663 1447.42 893.141 1439.54C828.935 1428.71 804.793 1408.67 798.312 1402C804.524 1385.51 830.109 1312.82 848.6 1191.82C845.665 1253.97 839.33 1320.94 827.125 1385.66C824.899 1397.55 832.066 1409.24 844.32 1413.54C869.122 1422.2 911.926 1433.45 952.089 1425.67C1013.43 1413.84 1005.9 1270.36 1049.93 1270.36H1050.05C1094.1 1270.36 1086.54 1413.84 1147.86 1425.67C1188.05 1433.45 1230.85 1422.2 1255.63 1413.54C1267.89 1409.24 1275.08 1397.55 1272.83 1385.66C1260.7 1321.28 1254.34 1254.7 1251.4 1192.84C1269.89 1313.23 1295.35 1385.59 1301.54 1402Z" fill="#C1BFBF"/>
<path d="M890.573 658.473C880.056 666.961 838.597 700.006 810.688 718.032C807.973 719.744 805.723 722.044 804.06 724.661C802.176 727.571 801.027 730.922 800.709 734.494L798.997 753.278C798.997 753.278 797.603 750.808 796.111 746.943C792.197 736.94 787.476 717.641 803.889 707.49C827.223 693.084 860.586 666.692 876.313 653.973C881.01 655.538 885.779 657.03 890.573 658.473Z" fill="#595653"/>
<path d="M1305.09 743.153C1303.18 749.121 1300.86 753.28 1300.86 753.28L1299.29 736.084L1299.14 734.495C1298.53 727.719 1294.91 721.702 1289.17 718.009C1261.28 700.007 1219.82 666.937 1209.28 658.474C1214.07 657.007 1218.82 655.539 1223.56 653.949C1239.27 666.668 1272.63 693.06 1295.97 707.467C1310.49 716.468 1308.49 732.66 1305.09 743.153Z" fill="#595653"/>
<path d="M1049.93 721.65C992.128 721.65 951.697 689.339 932.618 669.87C925.427 668.157 918.285 666.347 911.143 664.391C917.747 673.147 948.859 711.108 1001.64 727.056L1004.97 896.072C1005.17 905.122 1009.2 913.707 1016.07 919.626C1045.96 945.309 1047.04 945.309 1049.95 945.309C1052.86 945.309 1053.91 945.309 1083.83 919.626C1090.7 913.707 1094.74 905.122 1094.93 896.072L1098.26 727.056C1151.07 711.108 1182.15 673.147 1188.76 664.391C1181.62 666.323 1174.47 668.157 1167.28 669.87C1148.13 689.339 1107.72 721.65 1049.93 721.65ZM1082.36 895.851C1082.26 901.355 1079.79 906.54 1075.63 910.136C1060.2 923.393 1053.13 929.092 1049.93 931.562C1046.72 929.092 1039.65 923.393 1024.22 910.136C1020.06 906.54 1017.59 901.33 1017.49 895.851L1014.24 730.334C1025.32 732.755 1037.21 734.198 1049.93 734.198C1062.65 734.198 1074.53 732.755 1085.61 730.334L1082.36 895.851Z" fill="#595653"/>
<path d="M1030.04 784.145C1030.04 795.103 1038.97 804.031 1049.92 804.031C1060.88 804.031 1069.81 795.103 1069.81 784.145C1069.81 773.188 1060.88 764.26 1049.92 764.26C1038.97 764.26 1030.04 773.188 1030.04 784.145ZM1061.45 784.145C1061.45 790.505 1056.26 795.69 1049.9 795.69C1043.54 795.69 1038.36 790.505 1038.36 784.145C1038.36 777.786 1043.54 772.6 1049.9 772.6C1056.28 772.625 1061.45 777.786 1061.45 784.145Z" fill="#595653"/>
<path d="M1049.92 841.896C1038.97 841.896 1030.04 850.824 1030.04 861.782C1030.04 872.74 1038.97 881.668 1049.92 881.668C1060.88 881.668 1069.81 872.74 1069.81 861.782C1069.81 850.824 1060.88 841.896 1049.92 841.896ZM1049.92 873.327C1043.57 873.327 1038.38 868.142 1038.38 861.782C1038.38 855.423 1043.57 850.237 1049.92 850.237C1056.28 850.237 1061.47 855.423 1061.47 861.782C1061.45 868.142 1056.28 873.327 1049.92 873.327Z" fill="#595653"/>
<path d="M964.391 924.963C964.391 924.963 964.391 924.963 964.391 924.988C963.462 935.408 959.793 947.882 957.983 951.893C957.127 952.505 955.146 953.336 953.14 954.07C945.215 947.173 930.833 941.669 921.024 938.465H921C915.301 936.582 911.143 935.481 910.629 935.383C912.243 936.484 945.998 959.525 946.365 964.27C946.511 966.276 946.609 968.526 946.585 970.947V971.119C946.462 983.226 943.992 998.831 937.706 1005.61C935.578 1007.93 931.077 1008.98 928.118 1008.98C921.587 1002.62 912.17 997.241 904.221 993.352C896.296 989.488 889.765 987.164 889.007 986.871C888.958 986.846 888.934 986.846 888.934 986.846C888.934 986.846 923.691 1017.05 923.691 1024.42C923.691 1024.56 923.691 1024.73 923.642 1024.86C920.658 1037.5 902.606 1052.79 892.48 1051.17C885.46 1050.05 878.954 1043.2 875.236 1038.16C882.011 1034.4 885.778 1027.84 885.778 1027.84C881.914 1029.58 873.695 1032.68 864.816 1033.59C860.658 1034 856.353 1033.96 852.293 1033.03C849.554 1032.41 846.912 1031.44 844.515 1029.94C844.808 1030.29 847.695 1033.69 852.097 1036.6C854.837 1038.41 858.163 1040.02 861.808 1040.58C862.028 1040.95 862.688 1042.1 863.814 1043.74C859.607 1044.94 855.546 1045.57 851.608 1045.72C830.622 1046.53 813.867 1034.27 808.657 1029.94C805.453 1009.25 806.016 989.341 810.516 970.776C811.079 968.453 811.69 966.178 812.4 963.903C820.496 936.753 834.511 922.077 834.633 921.93C834.853 921.686 835.049 921.441 835.245 921.197H835.269C835.318 921.099 840.675 913.712 850.777 906.668C853.932 904.442 857.552 902.265 861.637 900.357C862.028 900.137 862.444 899.966 862.835 899.794C884.188 890.206 890.695 869.22 889.814 858.189C889.349 852.367 891.624 843.293 896.222 842.363C902.166 841.189 923.666 848.601 928.583 867.997C932.961 885.412 913.466 895.367 912.659 895.783C909.92 897.128 908.526 900.259 909.455 903.194C910.311 906.154 913.148 908.013 916.206 907.622C935.578 905.2 958.888 906.056 962.704 911.242C964.636 913.932 964.929 919.118 964.391 924.963Z" fill="#56D13D"/>
<path d="M848.771 861.783L846.521 856.476C839.012 872.423 808.022 901.75 799.754 909.382C787.916 908.99 776.029 908.966 765.193 909.113C739.29 909.455 719.185 910.751 719.185 910.751C719.185 910.751 773.362 918.725 818.05 922.712C812.718 930.466 805.625 942.842 800.537 959.573C797.088 970.849 794.3 985.109 794.055 1002.08C793.762 1021.68 796.893 1044.91 806.309 1071.21C736.869 1027.13 686.727 993.841 682.348 988.875C674.717 979.287 663.93 957.64 677.065 920.193C679.633 912.904 685.357 901.97 693.135 888.982C697.269 882.06 701.989 874.527 707.101 866.651C707.15 866.602 707.175 866.577 707.175 866.577C734.496 824.483 773.191 772.433 796.037 746.921C797.553 750.786 798.923 753.256 798.923 753.256L800.635 734.471C800.953 730.9 802.102 727.549 803.986 724.639C812.522 735.719 836.199 769.962 845.2 818.539V818.563C847.768 831.967 849.163 846.423 848.771 861.783Z" fill="white"/>
<path d="M800.927 720.773C795.986 726.986 680.195 873.597 665.299 916.059C650.158 959.205 663.366 985.108 672.563 996.702C679.265 1005.14 764.311 1059.51 814.38 1091.16C816.019 1092.22 817.853 1092.71 819.663 1092.71C822.794 1092.71 825.851 1091.16 827.759 1088.35C830.89 1083.66 836.834 1073.65 842.679 1057.95C844.954 1058.22 847.253 1058.36 849.626 1058.36C856.866 1058.36 864.571 1057.12 872.594 1054.01C877.314 1058.41 883.405 1062.47 890.522 1063.6C891.623 1063.77 892.748 1063.87 893.898 1063.87C911.24 1063.87 931.884 1044.4 935.822 1027.79C936.36 1025.44 936.262 1023.14 935.724 1020.89C939.931 1019.84 943.746 1017.59 946.902 1014.17C957.909 1002.3 959.645 978.112 958.985 965.32C962.972 963.779 966.934 961.578 968.695 958.569C970.187 955.928 983.982 919.092 972.78 903.902C966.396 895.243 948.907 893.507 934.256 893.825C939.931 886.462 943.649 876.679 940.713 865.011C934.207 839.28 906.225 827.637 893.751 830.157C880.249 832.847 876.507 849.431 877.29 859.288C877.632 863.446 875.284 880.519 857.698 888.419C841.995 895.464 831.771 905.957 827.368 911.044C827.343 911.069 827.343 911.093 827.343 911.093C824.237 910.8 821.082 910.555 817.853 910.335C823.405 905.345 830.107 899.108 836.491 892.235C842.679 885.582 848.525 878.293 852.708 871.077L849.895 864.376L848.819 861.881L846.569 856.548C839.059 872.521 808.069 901.848 799.802 909.479C759.688 908.207 719.257 910.873 719.257 910.873C719.257 910.873 773.043 918.798 817.657 922.761C817.804 922.785 818 922.785 818.147 922.809C812.79 930.563 805.721 942.94 800.609 959.645C798.359 967.008 796.402 975.618 795.228 985.426C795.203 985.499 795.204 985.597 795.179 985.695C795.106 986.551 795.008 987.432 794.91 988.361C794.886 988.434 794.886 988.483 794.886 988.581C793.809 999.515 793.736 1011.84 795.375 1025.44C795.913 1030.28 796.696 1035.32 797.747 1040.51C799.704 1050.24 802.492 1060.52 806.382 1071.33C736.965 1027.25 686.799 993.962 682.42 988.997C674.789 979.409 664.027 957.787 677.137 920.315C688.535 887.832 763.724 782.46 798.041 744.939C799.973 742.812 797.503 737.259 797.674 733.15M957.957 951.892C957.101 952.454 955.145 953.359 953.114 954.069C940.298 942.915 910.555 935.357 910.555 935.357C910.555 935.357 945.972 959.401 946.364 964.268C947.293 976.523 945.238 997.484 937.68 1005.63C935.552 1007.95 931.052 1009 928.092 1009V1009.03C914.591 995.846 888.933 986.869 888.933 986.869C888.933 986.869 925.157 1018.37 923.616 1024.88C920.632 1037.52 902.581 1052.81 892.455 1051.17C885.41 1050.07 878.929 1043.22 875.235 1038.19C881.986 1034.39 885.777 1027.86 885.777 1027.86C878.88 1030.97 858.211 1038.41 844.514 1029.97C844.954 1030.5 852.292 1039.11 861.782 1040.58C862.003 1040.95 862.663 1042.1 863.788 1043.74C837.323 1051.42 814.845 1035.08 808.632 1029.94C805.036 1006.68 806.21 984.374 812.374 963.926C820.495 936.825 834.486 922.1 834.608 921.953C834.828 921.709 835.024 921.489 835.219 921.22C835.268 921.146 837.69 917.795 842.337 913.441C847.009 909.112 853.882 903.78 862.785 899.793C884.138 890.254 890.645 869.218 889.764 858.187C889.299 852.366 891.574 843.291 896.173 842.362C902.116 841.188 923.616 848.599 928.533 867.996C932.911 885.411 913.441 895.39 912.634 895.782C909.87 897.127 908.5 900.258 909.405 903.217C910.261 906.128 913.148 907.987 916.181 907.62C935.552 905.199 958.838 906.055 962.654 911.24C968.108 918.676 960.819 945.63 957.957 951.892Z" fill="#595653"/>
<path d="M972.757 903.853C966.373 895.195 948.884 893.458 934.233 893.776C939.907 886.414 943.625 876.63 940.69 864.963C934.184 839.231 906.202 827.588 893.728 830.108C880.226 832.798 876.484 849.382 877.266 859.239C877.584 863.201 875.432 879.051 859.827 887.294C859.117 887.685 858.408 888.028 857.65 888.37C854.666 889.691 851.902 891.159 849.358 892.675C838.302 899.181 830.891 906.862 827.344 910.995C827.32 911.02 827.32 911.044 827.32 911.044C827.32 911.044 823.064 914.86 817.609 922.687C809.416 934.403 798.507 955.096 795.205 985.377C795.18 985.45 795.18 985.548 795.156 985.646C795.082 986.502 794.984 987.383 794.887 988.312C794.862 988.385 794.862 988.434 794.862 988.532C793.859 999.588 793.859 1011.87 795.351 1025.39C795.865 1030.19 796.574 1035.18 797.479 1040.29C797.479 1040.29 797.553 1040.34 797.724 1040.44C799.827 1041.71 816.876 1051.83 842.681 1057.97C844.955 1058.24 847.254 1058.39 849.627 1058.39C856.867 1058.39 864.572 1057.14 872.595 1054.03C877.315 1058.44 883.406 1062.5 890.523 1063.62C891.624 1063.79 892.749 1063.89 893.899 1063.89C911.241 1063.89 931.885 1044.42 935.823 1027.81C936.361 1025.47 936.263 1023.17 935.725 1020.92C939.932 1019.86 943.747 1017.61 946.903 1014.19C957.91 1002.33 959.646 978.137 958.986 965.345C962.973 963.804 966.935 961.602 968.696 958.594C970.164 955.879 983.959 919.043 972.757 903.853ZM957.958 951.892C957.102 952.454 955.146 953.359 953.115 954.069C940.299 942.915 910.556 935.357 910.556 935.357C910.556 935.357 945.973 959.401 946.365 964.268C947.294 976.523 945.239 997.484 937.681 1005.63C935.553 1007.95 931.053 1009 928.093 1009V1009.03C914.592 995.846 888.934 986.869 888.934 986.869C888.934 986.869 925.158 1018.37 923.617 1024.88C920.633 1037.52 902.582 1052.81 892.456 1051.17C885.411 1050.07 878.93 1043.22 875.236 1038.19C881.987 1034.39 885.778 1027.86 885.778 1027.86C878.881 1030.97 858.212 1038.41 844.515 1029.97C844.955 1030.5 852.293 1039.11 861.783 1040.58C862.004 1040.95 862.664 1042.1 863.789 1043.74C837.324 1051.42 814.846 1035.08 808.633 1029.94C805.037 1006.68 806.211 984.374 812.375 963.926C820.496 936.825 834.487 922.1 834.609 921.953C834.829 921.709 835.025 921.489 835.22 921.22C835.269 921.146 837.691 917.795 842.338 913.441C844.613 911.338 847.426 908.99 850.752 906.691C851.535 906.128 852.342 905.565 853.198 905.052C853.981 904.514 854.788 904 855.62 903.535C855.693 903.486 855.791 903.437 855.913 903.388C856.769 902.85 857.699 902.337 858.628 901.872C859.533 901.358 860.512 900.869 861.49 900.429C861.514 900.404 861.563 900.404 861.588 900.38C861.979 900.16 862.395 899.989 862.786 899.817C884.139 890.278 890.646 869.243 889.765 858.212C889.3 852.39 891.575 843.316 896.174 842.386C902.117 841.212 923.617 848.624 928.534 868.02C932.912 885.435 913.442 895.415 912.635 895.806C909.871 897.151 908.501 900.282 909.406 903.242C910.262 906.152 913.149 908.011 916.182 907.644C935.554 905.223 958.839 906.079 962.655 911.264C968.109 918.676 960.82 945.63 957.958 951.892Z" fill="#204712"/>
<path d="M859.829 887.293C859.119 887.685 858.41 888.027 857.652 888.37C854.668 889.69 851.904 891.158 849.36 892.674C849.262 891.451 849.091 890.229 848.969 889.006C841.435 822.573 833.314 784.172 833.314 784.172C833.314 784.172 849.776 820.127 859.731 886.535C859.755 886.78 859.804 887.024 859.829 887.293Z" fill="#595653"/>
<path d="M806.358 1071.23C736.942 1027.18 686.776 993.868 682.397 988.903C674.79 979.339 663.979 957.668 677.139 920.196C679.682 912.931 685.43 901.998 693.208 889.01C684.158 907.403 676.772 933.942 692.621 956.42C716.2 989.832 777.472 999.934 794.104 1002.09C793.786 1021.7 796.941 1044.91 806.358 1071.23Z" fill="#C1BFBF"/>
<path d="M923.641 1024.44C923.641 1024.61 923.641 1024.76 923.592 1024.88C920.608 1037.55 902.557 1052.79 892.431 1051.2C885.387 1050.1 878.905 1043.23 875.163 1038.19C881.962 1034.42 885.705 1027.87 885.705 1027.87C878.831 1030.95 858.163 1038.41 844.441 1029.94C844.906 1030.48 852.244 1039.09 861.734 1040.58C861.954 1040.95 862.615 1042.08 863.74 1043.74C837.275 1051.42 814.796 1035.08 808.584 1029.94C805.355 1009.23 805.942 989.318 810.443 970.777C810.443 970.777 811.714 1025.71 887.759 1014.27C887.759 1014.27 889.104 1024.69 904.832 1026.94C917.355 1028.72 922.174 1025.76 923.641 1024.44Z" fill="#379E25"/>
<path d="M946.537 971.115C946.415 983.223 943.944 998.852 937.658 1005.6C935.53 1007.93 931.029 1008.98 928.094 1008.98V1009C915.008 996.26 890.476 987.43 888.984 986.892C884.85 984.886 880.3 983.247 875.311 982.171C875.311 982.171 896.272 980.654 916.085 989.533C935.848 998.388 946.121 984.959 946.537 971.115Z" fill="#379E25"/>
<path d="M964.391 924.986C963.462 935.382 959.793 947.88 957.983 951.892C957.127 952.479 955.146 953.335 953.115 954.044C945.191 947.171 930.833 941.643 921 938.463L920.976 938.439C920.976 938.439 956.809 946.609 961.872 932.838C962.899 929.976 963.731 927.359 964.391 924.986Z" fill="#379E25"/>
<path d="M982.174 1065.4C981.391 1065.62 980.658 1065.89 979.924 1066.21L882.134 1110.97C880.496 1111.73 878.563 1111.07 877.707 1109.51L870.051 1095.66L863.276 1083.41L861.246 1079.74C860.61 1078.59 860.806 1077.51 861.001 1077C861.173 1076.46 861.637 1075.48 862.836 1074.94L979.459 1022.72L979.973 1031.19L980.927 1046.35L982.174 1065.4Z" fill="#878E96"/>
<path d="M1037.7 1028.1L1034.32 1034.39L1025.2 1051.51L1014.73 1071.08L994.794 1066.31L993.376 1044.12L992.373 1028.44L991.933 1021.38L1037.7 1028.1Z" fill="#878E96"/>
<path d="M1332.85 1144.92L1331.77 1146.76L1330.65 1148.69L1313.92 1177.13C1313.75 1177.45 1313.5 1177.55 1313.31 1177.62C1313.11 1177.67 1312.84 1177.7 1312.55 1177.5L1155.84 1082.45C1153.64 1081.11 1151.21 1080.47 1148.79 1080.47C1145.56 1080.47 1142.38 1081.64 1139.82 1083.92L1095.89 1122.98C1095.79 1123.08 1095.62 1123.18 1095.45 1123.2L1049.85 1133.82C1049.49 1133.89 1049.1 1133.77 1048.85 1133.47C1025.57 1107.89 1023.49 1087.44 1023.41 1081.82C1023.41 1081.59 1023.46 1081.45 1023.54 1081.28L1028.13 1072.67L1033.07 1063.42L1033.1 1063.4L1051.64 1028.71C1051.86 1028.32 1052.35 1028.13 1052.84 1028.22C1091.34 1037.57 1117.63 1024.29 1127.15 1018.15C1127.44 1017.95 1127.83 1017.98 1128.15 1018.17L1332.58 1143.55C1332.97 1143.84 1333.12 1144.46 1332.85 1144.92Z" fill="#ED3535"/>
<path d="M1284.74 1175.28L1254.95 1218.33C1247.71 1228.77 1236.82 1235.74 1224.27 1237.9C1211.73 1240.05 1199.13 1237.14 1188.83 1229.7L1067.78 1142.5L1080.94 1139.42L1098.28 1135.39C1098.75 1135.29 1099.21 1135.17 1099.65 1134.99L1195.78 1201.13C1202.55 1205.78 1210.33 1208.01 1218.06 1208.01C1230.41 1208.01 1242.64 1202.31 1250.3 1191.62L1268.91 1165.67L1278.6 1171.56L1284.74 1175.28Z" fill="#44535E"/>
<path d="M1278.62 1171.59L1254.95 1205.78C1247.71 1216.22 1236.82 1223.2 1224.27 1225.35C1211.73 1227.5 1199.13 1224.59 1188.83 1217.15L1080.94 1139.42L1098.28 1135.39C1098.75 1135.29 1099.21 1135.17 1099.65 1134.99L1195.78 1201.13C1202.55 1205.78 1210.33 1208.01 1218.06 1208.01C1230.41 1208.01 1242.64 1202.31 1250.3 1191.62L1268.91 1165.67L1278.62 1171.59Z" fill="#68727A"/>
<path d="M1254.94 1218.31C1247.7 1228.75 1236.82 1235.72 1224.27 1237.87C1211.72 1240.03 1199.13 1237.11 1188.83 1229.68L1067.78 1142.48L1052.66 1146C1052.3 1146.1 1051.88 1146.17 1051.51 1146.22L1181.49 1239.85C1191.74 1247.24 1203.78 1251.11 1216.13 1251.11C1219.53 1251.11 1222.95 1250.84 1226.38 1250.22C1242.25 1247.51 1256.05 1238.68 1265.22 1225.45L1295.45 1181.81L1284.71 1175.28L1254.94 1218.31Z" fill="#30353A"/>
<path d="M1218.06 1208.01C1230.41 1208.01 1242.64 1202.31 1250.3 1191.62L1268.91 1165.67L1258.17 1159.13L1240.1 1184.33C1231.59 1196.17 1214.91 1199.08 1202.9 1190.81L1110.17 1127.02L1104.2 1132.33C1102.88 1133.53 1101.34 1134.41 1099.68 1134.99L1195.8 1201.13C1202.55 1205.8 1210.33 1208.01 1218.06 1208.01Z" fill="#30353A"/>
<path d="M1012.45 1075.36L1014.73 1071.08L994.77 1066.31L991.933 1021.38L1037.7 1028.1L1040.53 1022.8C1042 1020.06 1044.33 1018 1047.02 1016.8L987.628 1008.07C984.619 1007.65 981.537 1008.07 978.773 1009.29L857.723 1063.52C853.663 1065.33 850.507 1068.8 849.113 1073.03C847.695 1077.27 848.135 1081.91 850.287 1085.83L866.724 1115.59C869.61 1120.83 875.089 1123.84 880.739 1123.84C882.965 1123.84 885.216 1123.37 887.319 1122.42L985.108 1077.66C985.793 1077.34 986.601 1077.27 987.334 1077.44L1010.86 1083.09C1010.86 1082.72 1010.84 1082.33 1010.84 1082.01C1010.84 1079.66 1011.38 1077.36 1012.45 1075.36ZM882.134 1110.97C880.495 1111.73 878.563 1111.07 877.707 1109.5L861.27 1079.74C860.634 1078.59 860.829 1077.51 861.025 1077C861.196 1076.46 861.661 1075.48 862.86 1074.94L979.483 1022.72L982.173 1065.38C981.391 1065.6 980.657 1065.87 979.923 1066.19L882.134 1110.97Z" fill="#283744"/>
<path d="M1339.09 1132.89L1134.65 1007.51C1130.25 1004.79 1124.6 1004.87 1120.27 1007.63C1112.13 1012.89 1089.53 1024.24 1055.72 1016.05C1052.74 1015.31 1049.68 1015.63 1047.02 1016.8C1044.32 1018 1042 1020.06 1040.53 1022.8L1037.7 1028.1L1014.73 1071.08L1012.45 1075.36C1011.38 1077.37 1010.82 1079.67 1010.84 1081.99C1010.84 1082.33 1010.86 1082.7 1010.86 1083.07C1011.26 1092.46 1015.05 1114.94 1039.56 1141.89C1042.59 1145.24 1047.09 1146.83 1051.52 1146.22C1051.88 1146.15 1052.3 1146.1 1052.67 1146L1067.78 1142.48L1098.28 1135.38C1098.75 1135.29 1099.21 1135.16 1099.65 1134.99C1101.32 1134.41 1102.88 1133.5 1104.18 1132.33L1110.15 1127.02L1148.11 1093.26C1148.45 1092.97 1148.91 1092.92 1149.31 1093.17L1258.15 1159.18L1268.89 1165.71L1284.71 1175.3L1295.45 1181.83L1305.99 1188.22C1308.15 1189.51 1310.54 1190.17 1312.99 1190.17C1314.09 1190.17 1315.21 1190.05 1316.34 1189.76C1319.86 1188.88 1322.85 1186.65 1324.7 1183.52L1343.66 1151.31C1347.38 1144.95 1345.32 1136.71 1339.09 1132.89ZM1332.85 1144.92L1313.89 1177.11C1313.72 1177.43 1313.48 1177.53 1313.28 1177.6C1313.09 1177.65 1312.82 1177.67 1312.52 1177.48L1155.81 1082.43C1153.61 1081.08 1151.19 1080.45 1148.77 1080.45C1145.54 1080.45 1142.36 1081.62 1139.79 1083.9L1095.86 1122.96C1095.76 1123.06 1095.59 1123.15 1095.42 1123.18L1049.83 1133.79C1049.46 1133.87 1049.07 1133.75 1048.83 1133.45C1025.54 1107.87 1023.46 1087.42 1023.39 1081.79C1023.39 1081.57 1023.44 1081.43 1023.51 1081.26L1051.59 1028.72C1051.81 1028.32 1052.3 1028.13 1052.79 1028.23C1091.29 1037.57 1117.58 1024.29 1127.1 1018.15C1127.39 1017.95 1127.78 1017.98 1128.1 1018.17L1332.53 1143.55C1332.97 1143.85 1333.12 1144.46 1332.85 1144.92Z" fill="#630808"/>
<path d="M980.95 1046.38L982.173 1065.41C981.391 1065.63 980.657 1065.9 979.923 1066.21L882.134 1110.97C880.495 1111.73 878.563 1111.07 877.707 1109.51L870.051 1095.66C898.571 1082.94 959.548 1055.89 980.95 1046.38Z" fill="#626970"/>
<path d="M1025.2 1051.51L1014.73 1071.08L994.795 1066.31L993.376 1044.12L1025.2 1051.51Z" fill="#626970"/>
<path d="M979.457 1022.75L979.971 1031.21C956.172 1041.75 884.603 1073.57 863.25 1083.43L861.22 1079.76C860.584 1078.61 860.779 1077.54 860.975 1077.02C861.146 1076.48 861.611 1075.51 862.809 1074.97L979.457 1022.75Z" fill="#A3AAB2"/>
<path d="M1037.7 1028.1L1034.32 1034.39L992.373 1028.44L991.933 1021.38L1037.7 1028.1Z" fill="#A3AAB2"/>
<path d="M1330.65 1148.67L1313.92 1177.11C1313.75 1177.43 1313.5 1177.53 1313.31 1177.6C1313.11 1177.65 1312.84 1177.67 1312.55 1177.48L1155.84 1082.43C1153.64 1081.08 1151.21 1080.45 1148.79 1080.45C1145.56 1080.45 1142.38 1081.62 1139.82 1083.9L1095.89 1122.96C1095.79 1123.06 1095.62 1123.15 1095.45 1123.18L1049.85 1133.79C1049.49 1133.87 1049.1 1133.74 1048.85 1133.45C1025.57 1107.87 1023.49 1087.42 1023.41 1081.79C1023.41 1081.57 1023.46 1081.43 1023.54 1081.25L1028.13 1072.64C1029.63 1078.59 1035.4 1099.6 1044.33 1105.37C1054.72 1112.12 1083.78 1107.62 1091.95 1099.43L1131.87 1066.7C1137.86 1061.81 1146.27 1061.15 1152.95 1065.06L1303.28 1153.12C1309 1156.49 1316.07 1156.59 1321.89 1153.43L1330.65 1148.67Z" fill="#BF1111"/>
<path d="M1332.85 1144.92L1331.77 1146.76L1127.41 1027.88C1098.26 1048.57 1054.38 1038.82 1054.38 1038.82L1033.07 1063.4L1051.61 1028.71C1051.83 1028.32 1052.32 1028.13 1052.81 1028.22C1091.31 1037.57 1117.6 1024.29 1127.12 1018.15C1127.41 1017.95 1127.8 1017.98 1128.12 1018.17L1332.56 1143.55C1332.97 1143.84 1333.12 1144.46 1332.85 1144.92Z" fill="#FF6E6E"/>
<path d="M1307.51 1111.93L1306.73 1112.37C1300.57 1115.9 1288.56 1125.68 1281.63 1132.21C1269.99 1143.24 1256.88 1155.64 1238.88 1161.93C1232.52 1164.13 1225.91 1165.23 1219.24 1165.23C1197.98 1165.23 1181.3 1154.05 1176.68 1150.63L1175.75 1149.97L1174.7 1150.34C1173.13 1150.9 1171.76 1151.19 1170.64 1151.19C1168.75 1151.19 1166.84 1151.02 1164.99 1150.7C1152.63 1148.6 1144.46 1140.06 1140.7 1135.15L1139.65 1133.78L1138.13 1134.53C1132.7 1137.2 1127.17 1138.55 1121.74 1138.55H1121.11C1118.1 1138.55 1115.16 1138.23 1112.4 1137.62C1097.62 1134.31 1091.85 1123.21 1091.8 1123.09C1091.02 1121.55 1091.24 1119.71 1092.37 1118.42C1093 1117.63 1101.02 1108.41 1111.2 1096.79C1111.71 1096.21 1112.25 1095.62 1112.76 1095.01C1124.31 1081.9 1139.87 1064.41 1148.65 1055.31C1152.36 1051.47 1157.18 1047.87 1162.93 1044.65L1164.47 1043.79L1163.86 1042.13C1163.59 1041.37 1163.3 1040.56 1162.93 1039.63C1162.81 1039.36 1162.71 1039.09 1162.56 1038.82C1160.12 1032.81 1155.81 1024.34 1149.23 1018.4C1143 1012.8 1139.92 1003.11 1140.99 992.424C1142.07 981.638 1147.25 971.389 1155.35 963.88C1155.98 963.244 1156.67 962.657 1157.35 962.095C1159.29 960.456 1161.37 959.013 1163.59 957.692C1168.65 954.757 1173.47 953.24 1177.95 953.24C1181.08 953.24 1184.04 953.998 1186.71 955.442C1197.27 961.165 1200.77 976.208 1201.16 984.206C1201.5 990.81 1207.28 997.903 1215.57 1001.79C1217.77 1002.84 1222.22 1004.58 1227.53 1004.58C1230.61 1004.58 1233.55 1003.99 1236.29 1002.82L1236.48 1002.75C1246.12 1009.06 1298.12 1045.62 1307.51 1111.93Z" fill="#56D13D"/>
<path d="M1147.89 1019.96C1141.14 1013.92 1137.81 1003.55 1138.96 992.224C1140.21 979.848 1146.47 968.449 1156.08 960.5C1154.2 969.844 1152.51 978.135 1151.68 981.78C1149.21 992.395 1154.12 1000.44 1162.71 1005.9C1171.29 1011.35 1185.87 1034.37 1185.87 1034.37L1171.15 1039.68L1160.7 1039.63C1158.38 1033.9 1154.2 1025.64 1147.89 1019.96Z" fill="#379E25"/>
<path d="M1422 994.552C1421.32 996.46 1420.68 998.392 1420.02 1000.3C1413.62 1019.13 1362.76 1090.85 1334.17 1130.38L1323.46 1123.8L1314.99 1118.64L1310.03 1115.58C1309.96 1114.72 1309.88 1113.87 1309.76 1112.96C1308.07 1097.97 1304.94 1084.88 1300.88 1073.48C1307.66 1070.4 1340.92 1052.42 1379.74 983.007C1423.35 905.054 1382.4 856.404 1382.4 856.404L1402.27 865.112C1418.38 890.305 1430.59 911.414 1432.42 920.439C1438.15 947.785 1429.93 971.56 1422 994.552Z" fill="#C1BFBF"/>
<path d="M1310.03 1115.58L1307.75 1114.18C1301.81 1117.58 1289.87 1127.27 1283.05 1133.73C1271.33 1144.83 1258.03 1157.48 1239.59 1163.89C1232.52 1166.31 1225.64 1167.31 1219.26 1167.31C1197.59 1167.31 1180.69 1156.2 1175.45 1152.27C1173.77 1152.88 1172.15 1153.27 1170.68 1153.27C1168.68 1153.27 1166.67 1153.1 1164.67 1152.78C1151.63 1150.53 1142.97 1141.5 1139.08 1136.42C1133.65 1139.08 1127.66 1140.77 1121.1 1140.65C1117.92 1140.65 1114.89 1140.31 1111.98 1139.69C1096.4 1136.2 1090.24 1124.55 1089.99 1124.06C1088.82 1121.77 1089.16 1119.03 1090.82 1117.07C1091.26 1116.58 1094.25 1113.13 1098.7 1108.02C1099.19 1107.46 1099.7 1106.87 1100.24 1106.23C1100.9 1105.48 1101.56 1104.67 1102.29 1103.86C1102.71 1103.37 1103.15 1102.91 1103.57 1102.39C1104.13 1101.71 1104.76 1101 1105.4 1100.31C1105.96 1099.65 1106.55 1098.99 1107.14 1098.31C1108.46 1096.79 1109.83 1095.25 1111.2 1093.66V1105.38C1111.2 1105.38 1112.35 1106.97 1114.57 1108.85C1117.34 1111.22 1121.72 1114.06 1127.54 1114.92C1137.81 1116.41 1167.65 1106.8 1168.82 1106.43C1168.19 1107.21 1158.36 1119.42 1158.36 1119.81C1158.36 1119.86 1158.53 1120.08 1158.89 1120.37C1161.32 1122.55 1171.37 1130.03 1180.27 1130.84C1190.5 1131.79 1233.98 1123.09 1256.02 1088.21C1271.92 1063.14 1267.91 1042.27 1264.46 1032.54C1263.21 1029.04 1262.02 1026.99 1261.82 1026.64L1299.63 1074.02C1299.63 1074.02 1300.07 1073.87 1300.91 1073.48C1304.94 1084.88 1308.07 1097.97 1309.78 1112.96C1309.88 1113.84 1309.96 1114.7 1310.03 1115.58Z" fill="#379E25"/>
<path d="M1422.01 994.55C1421.35 996.458 1420.69 998.366 1420.03 1000.3C1413.62 1019.13 1362.79 1090.82 1334.17 1130.37L1323.46 1123.79C1355.21 1079.91 1402.63 1012.45 1408.16 996.238C1408.82 994.305 1409.51 992.373 1410.17 990.465C1417.87 968.06 1425.16 946.927 1420.17 922.932C1416.16 903.512 1348.33 803.594 1301.54 739.461L1303.06 735.792L1306.58 727.207C1307.05 727.843 1307.63 728.626 1308.34 729.604C1326.61 754.724 1426.8 893.165 1432.45 920.413C1438.15 947.759 1429.93 971.534 1422.01 994.55Z" fill="#595653"/>
<path d="M1251.06 1001.69C1306.97 944.625 1338.38 907.545 1340.29 905.294C1339.06 906.151 1326.96 915.127 1308.73 930.561C1285.6 898.935 1263.12 855.593 1256.73 842.996C1255.61 840.746 1255 839.474 1254.95 839.4L1252.92 841.822L1248.1 847.619C1249.03 849.796 1270.87 900.329 1299.19 938.78C1281.58 954.067 1259.89 974.05 1237.19 997.776C1236.33 998.657 1235.75 999.782 1235.5 1000.96C1227.6 1004.33 1219.82 1001.52 1216.52 999.953C1209.01 996.406 1203.61 989.9 1203.31 984.128C1202.9 975.665 1199.13 959.79 1187.76 953.627C1182.74 950.912 1174.28 949.077 1162.61 955.926C1149.36 963.679 1140.5 977.254 1138.96 992.224C1137.81 1003.55 1141.16 1013.92 1147.89 1019.96C1155.54 1026.81 1160.02 1037.47 1161.93 1042.85C1156.57 1045.86 1151.41 1049.48 1147.15 1053.86C1131.13 1070.4 1092.44 1115.16 1090.8 1117.07C1089.14 1119.02 1088.79 1121.76 1089.97 1124.06C1090.24 1124.55 1096.38 1136.19 1111.96 1139.69C1114.87 1140.33 1117.9 1140.64 1121.08 1140.64C1127.64 1140.77 1133.63 1139.08 1139.06 1136.41C1142.95 1141.5 1151.58 1150.53 1164.64 1152.78C1166.65 1153.09 1168.65 1153.27 1170.66 1153.27C1172.13 1153.27 1173.74 1152.87 1175.43 1152.26C1180.66 1156.18 1197.59 1167.31 1219.24 1167.31C1225.62 1167.31 1232.49 1166.3 1239.56 1163.88C1258.01 1157.47 1271.31 1144.83 1283.03 1133.72C1289.88 1127.24 1301.79 1117.58 1307.73 1114.18L1310.01 1115.57L1314.97 1118.63C1310.86 1086.69 1296.6 1039.09 1251.06 1001.69ZM1274.44 1124.62C1263.61 1134.87 1251.35 1146.49 1235.45 1152.04C1215.2 1159.06 1196.59 1150.7 1187.51 1145.24C1194.19 1140.25 1199.67 1134.75 1199.67 1134.75C1199.67 1134.75 1175.53 1141.87 1166.84 1140.42C1158.53 1139.08 1152.54 1133.18 1149.58 1129.54C1161.37 1119.85 1168.39 1107.21 1168.8 1106.43C1141.43 1127.44 1124.41 1129.49 1114.97 1127.51C1109.39 1126.34 1105.72 1123.64 1103.57 1121.44C1113.5 1110.02 1143.07 1076.1 1156.16 1062.57C1171.05 1047.18 1195.66 1030.55 1195.66 1030.55C1195.66 1030.55 1185.29 1032.48 1173.3 1037.4C1170.73 1030.55 1165.38 1018.84 1156.25 1010.64C1152.54 1007.29 1150.7 1000.74 1151.43 993.496C1152.58 982.489 1159.12 972.485 1168.95 966.737C1174.3 963.606 1178.61 962.897 1181.79 964.633C1187.78 967.862 1190.47 978.698 1190.79 984.764C1191.3 995.257 1199.3 1005.63 1211.12 1011.28C1221.88 1016.37 1233.42 1016.32 1242.94 1011.3C1278.33 1040.34 1293.37 1076.68 1299.64 1105.2C1290.83 1109.12 1282.83 1116.7 1274.44 1124.62Z" fill="#595653"/>
<path d="M1309.79 1112.96C1308.1 1097.97 1304.97 1084.88 1300.91 1073.48C1280.22 1015.1 1235.48 1000.93 1235.48 1000.93C1227.58 1004.31 1219.8 1001.5 1216.5 999.931C1208.99 996.385 1203.58 989.878 1203.29 984.106C1202.87 975.643 1199.11 959.769 1187.73 953.605C1182.72 950.89 1174.26 949.055 1162.59 955.904C1149.33 963.658 1140.48 977.233 1138.94 992.202C1137.79 1003.53 1141.14 1013.9 1147.86 1019.94C1155.52 1026.79 1160 1037.45 1161.9 1042.83C1156.55 1045.84 1151.39 1049.46 1147.13 1053.84C1138.57 1062.67 1123.58 1079.55 1111.18 1093.64C1109.78 1095.23 1108.44 1096.77 1107.12 1098.28C1106.5 1098.97 1105.94 1099.63 1105.38 1100.29C1104.74 1101 1104.13 1101.71 1103.54 1102.37C1103.13 1102.86 1102.69 1103.32 1102.27 1103.84C1101.54 1104.64 1100.85 1105.45 1100.22 1106.21C1099.68 1106.84 1099.17 1107.41 1098.68 1107.99C1094.22 1113.11 1091.24 1116.55 1090.8 1117.04C1089.14 1119 1088.79 1121.74 1089.97 1124.04C1090.24 1124.53 1096.38 1136.17 1111.96 1139.67C1114.87 1140.3 1117.9 1140.62 1121.08 1140.62C1127.64 1140.75 1133.63 1139.06 1139.06 1136.39C1142.95 1141.48 1151.58 1150.5 1164.64 1152.75C1166.65 1153.07 1168.66 1153.24 1170.66 1153.24C1172.13 1153.24 1173.74 1152.85 1175.43 1152.24C1180.66 1156.15 1197.59 1167.28 1219.24 1167.28C1225.62 1167.28 1232.49 1166.28 1239.56 1163.86C1258.01 1157.45 1271.31 1144.81 1283.03 1133.7C1289.88 1127.22 1301.79 1117.56 1307.73 1114.16L1310.01 1115.55C1309.96 1114.7 1309.88 1113.84 1309.79 1112.96ZM1274.44 1124.63C1263.61 1134.87 1251.35 1146.49 1235.45 1152.05C1215.2 1159.07 1196.59 1150.7 1187.51 1145.25C1194.19 1140.26 1199.67 1134.75 1199.67 1134.75C1199.67 1134.75 1175.53 1141.87 1166.85 1140.43C1158.53 1139.08 1152.54 1133.19 1149.58 1129.54C1153.12 1126.63 1156.25 1123.43 1158.9 1120.39C1165.01 1113.33 1168.53 1106.99 1168.8 1106.43C1141.43 1127.44 1124.41 1129.49 1114.97 1127.51C1109.39 1126.34 1105.72 1123.65 1103.57 1121.45C1106.14 1118.49 1110.03 1114.06 1114.55 1108.85C1127.69 1093.88 1146.45 1072.6 1156.16 1062.57C1171.05 1047.19 1195.66 1030.55 1195.66 1030.55C1195.66 1030.55 1185.29 1032.49 1173.3 1037.4C1170.73 1030.55 1165.38 1018.84 1156.25 1010.64C1152.54 1007.29 1150.7 1000.74 1151.44 993.498C1152.59 982.492 1159.12 972.488 1168.95 966.74C1174.31 963.609 1178.61 962.9 1181.79 964.636C1187.78 967.865 1190.47 978.7 1190.79 984.766C1191.3 995.26 1199.3 1005.63 1211.12 1011.28C1221.88 1016.37 1233.42 1016.32 1242.94 1011.31C1251.16 1018.03 1258.28 1025.2 1264.46 1032.54C1284.84 1056.8 1294.84 1083.29 1299.64 1105.18C1290.83 1109.12 1282.83 1116.7 1274.44 1124.63Z" fill="#204712"/>
<path d="M1046.57 671.264C1530.31 671.264 1354.13 326.58 1354.13 326.58C1354.13 326.58 1370.93 74.6467 1046.57 154.874C722.216 74.6467 739.02 326.58 739.02 326.58C739.02 326.58 562.838 671.264 1046.57 671.264Z" fill="#56D13D"/>
<path d="M1046.57 643.82C779.574 643.82 713.631 538.84 708.128 444.744C702.575 544.515 753.231 671.264 1046.57 671.264C1339.92 671.264 1390.6 544.515 1385.02 444.744C1379.52 538.84 1313.58 643.82 1046.57 643.82Z" fill="#379E25"/>
<path d="M827.417 230.26C793.663 244.691 772.603 279.57 778.082 315.868C782.729 346.565 806.553 379.267 885.435 382.912C1037.74 389.956 1035.37 309.509 1009.59 260.467C988.997 221.259 892.43 202.449 827.417 230.26Z" fill="white"/>
<path d="M911.264 368.796C945.374 368.796 973.025 340.433 973.025 305.446C973.025 270.459 945.374 242.096 911.264 242.096C877.155 242.096 849.504 270.459 849.504 305.446C849.504 340.433 877.155 368.796 911.264 368.796Z" fill="#1E300C"/>
<path d="M926.551 327.316C940.6 327.316 951.989 314.01 951.989 297.597C951.989 281.184 940.6 267.879 926.551 267.879C912.502 267.879 901.113 281.184 901.113 297.597C901.113 314.01 912.502 327.316 926.551 327.316Z" fill="white"/>
<path opacity="0.35" d="M896.523 344.859C903.295 339.144 902.669 327.264 895.125 318.324C887.58 309.384 875.974 306.769 869.202 312.484C862.43 318.199 863.056 330.079 870.601 339.019C878.145 347.959 889.751 350.574 896.523 344.859Z" fill="white"/>
<path opacity="0.15" d="M777.373 309.263C777.373 309.263 904.734 212.158 1022.26 319.682C1022.26 319.682 1019.6 304.199 1017.27 289.083C1017.27 289.083 907.082 186.353 778.547 290.257L777.373 309.263Z" fill="#1E1E1E"/>
<path d="M827.417 230.26C793.663 244.691 772.603 279.57 778.082 315.868C782.729 346.565 806.553 379.267 885.435 382.912C1037.74 389.956 1035.37 309.509 1009.59 260.467C988.997 221.259 892.43 202.449 827.417 230.26Z" stroke="#204712" stroke-width="13.0477" stroke-miterlimit="10" stroke-linecap="round" stroke-linejoin="round"/>
<path d="M1026.71 284.387C1026.69 287.176 1024.86 289.279 1022.56 289.989C1020.87 290.502 1018.94 290.307 1017.25 289.084C905.395 206.41 810.59 262.08 781.581 283.385C781.459 283.458 781.336 283.556 781.214 283.629C777.08 286.271 771.699 282.92 772.188 277.906C776.86 231.873 839.477 180.483 939.932 197.116C1018.4 210.104 1026.93 261.395 1026.71 284.387Z" fill="#46C130"/>
<path d="M1022.56 289.99C1020.87 290.504 1018.94 290.308 1017.25 289.085C905.396 206.412 810.59 262.082 781.581 283.386C781.459 283.46 781.337 283.557 781.215 283.631C777.595 281.43 775.613 280.158 775.613 280.158C775.613 280.158 811.226 221.577 900.064 221.381C981.979 221.21 1018.5 271.67 1022.56 289.99Z" fill="#379E25"/>
<path d="M781.581 283.409C810.615 262.08 905.42 206.41 1017.25 289.108C1021.16 291.994 1026.64 289.255 1026.69 284.387C1026.93 261.395 1018.37 210.104 939.908 197.116C839.477 180.483 776.836 231.873 772.189 277.906C771.699 283.067 777.399 286.466 781.581 283.409Z" stroke="#204712" stroke-width="13.0477" stroke-miterlimit="10" stroke-linecap="round" stroke-linejoin="round"/>
<path d="M786.08 340.668C786.08 340.668 866.601 394.137 1002.5 359.673C1002.62 359.649 989.902 405.192 889.275 398.368C788.868 391.568 786.08 340.668 786.08 340.668Z" fill="#46C130"/>
<path d="M786.08 340.668C786.08 340.668 866.601 394.137 1002.5 359.673C1002.62 359.649 989.902 405.192 889.275 398.368C788.868 391.568 786.08 340.668 786.08 340.668Z" stroke="#204712" stroke-width="13.0477" stroke-miterlimit="10" stroke-linecap="round" stroke-linejoin="round"/>
<path d="M1003.4 384.084C989.56 402.918 967.962 414.462 945.924 421.018C943.674 421.58 937.608 422.974 935.26 423.561C923.421 425.714 911.069 426.497 899.084 425.592C896.32 425.42 896.296 421.36 899.06 421.14C910.605 419.795 922.223 418.303 933.523 415.612C949.177 411.772 964.44 406.048 978.504 398.123C986.552 393.647 994.428 388.511 1001.57 382.567C1002.55 381.54 1004.26 382.934 1003.4 384.084Z" fill="#204712"/>
<path d="M1265.76 230.26C1299.51 244.691 1320.57 279.57 1315.09 315.868C1310.44 346.565 1286.62 379.267 1207.74 382.912C1055.43 389.956 1057.8 309.509 1083.58 260.467C1104.18 221.259 1200.72 202.449 1265.76 230.26Z" fill="white"/>
<path d="M1181.91 368.796C1216.02 368.796 1243.67 340.433 1243.67 305.446C1243.67 270.459 1216.02 242.096 1181.91 242.096C1147.8 242.096 1120.15 270.459 1120.15 305.446C1120.15 340.433 1147.8 368.796 1181.91 368.796Z" fill="#1E300C"/>
<path d="M1166.62 327.316C1180.67 327.316 1192.06 314.01 1192.06 297.597C1192.06 281.184 1180.67 267.879 1166.62 267.879C1152.57 267.879 1141.18 281.184 1141.18 297.597C1141.18 314.01 1152.57 327.316 1166.62 327.316Z" fill="white"/>
<path opacity="0.35" d="M1222.46 339.049C1230 330.109 1230.63 318.229 1223.86 312.514C1217.09 306.799 1205.48 309.414 1197.94 318.354C1190.39 327.294 1189.77 339.174 1196.54 344.889C1203.31 350.604 1214.92 347.989 1222.46 339.049Z" fill="white"/>
<path opacity="0.15" d="M1315.77 309.263C1315.77 309.263 1188.41 212.158 1070.89 319.682C1070.89 319.682 1073.55 304.199 1075.88 289.083C1075.88 289.083 1186.07 186.353 1314.6 290.257L1315.77 309.263Z" fill="#1E1E1E"/>
<path d="M1265.76 230.26C1299.51 244.691 1320.57 279.57 1315.09 315.868C1310.44 346.565 1286.62 379.267 1207.74 382.912C1055.43 389.956 1057.8 309.509 1083.58 260.467C1104.18 221.259 1200.72 202.449 1265.76 230.26Z" stroke="#204712" stroke-width="13.0477" stroke-miterlimit="10" stroke-linecap="round" stroke-linejoin="round"/>
<path d="M1066.46 284.387C1066.48 287.176 1068.32 289.279 1070.62 289.989C1072.31 290.502 1074.24 290.307 1075.93 289.084C1187.78 206.41 1282.58 262.08 1311.59 283.385C1311.72 283.458 1311.84 283.556 1311.96 283.629C1316.09 286.271 1321.48 282.92 1320.99 277.906C1316.31 231.873 1253.7 180.483 1153.24 197.116C1074.75 210.104 1066.22 261.395 1066.46 284.387Z" fill="#46C130"/>
<path d="M1070.62 289.99C1072.31 290.504 1074.24 290.308 1075.93 289.085C1187.78 206.412 1282.59 262.082 1311.59 283.386C1311.72 283.46 1311.84 283.557 1311.96 283.631C1315.58 281.43 1317.56 280.158 1317.56 280.158C1317.56 280.158 1281.95 221.577 1193.11 221.381C1111.2 221.21 1074.68 271.67 1070.62 289.99Z" fill="#379E25"/>
<path d="M1311.57 283.409C1282.54 262.08 1187.73 206.41 1075.9 289.108C1071.99 291.994 1066.51 289.255 1066.46 284.387C1066.22 261.395 1074.78 210.104 1153.24 197.116C1253.67 180.483 1316.31 231.873 1320.96 277.906C1321.48 283.067 1315.75 286.466 1311.57 283.409Z" stroke="#204712" stroke-width="13.0477" stroke-miterlimit="10" stroke-linecap="round" stroke-linejoin="round"/>
<path d="M1307.09 340.668C1307.09 340.668 1226.57 394.137 1090.67 359.673C1090.55 359.649 1103.27 405.192 1203.9 398.368C1304.3 391.568 1307.09 340.668 1307.09 340.668Z" fill="#46C130"/>
<path d="M1307.09 340.668C1307.09 340.668 1226.57 394.137 1090.67 359.673C1090.55 359.649 1103.27 405.192 1203.9 398.368C1304.3 391.568 1307.09 340.668 1307.09 340.668Z" stroke="#204712" stroke-width="13.0477" stroke-miterlimit="10" stroke-linecap="round" stroke-linejoin="round"/>
<path d="M1091.58 382.571C1120.88 405.832 1157.28 417.255 1194.09 421.144C1196.78 421.388 1196.81 425.375 1194.07 425.595C1165.03 428.237 1134.75 421.168 1110.68 404.487C1102.71 398.837 1095.3 392.33 1089.77 384.112C1088.99 382.962 1090.58 381.568 1091.58 382.571Z" fill="#204712"/>
<path d="M1303.4 460.082C1302.59 461.965 1300.59 465.879 1299.71 467.836C1299.68 467.884 1299.66 467.933 1299.63 467.982C1251.38 555.107 1136.17 563.937 1046.62 565.136C1035.96 564.793 1019.84 564.916 1009.32 564.255C994.036 563.472 978.48 562.298 963.266 560.439C956.931 559.901 942.647 557.358 936.067 556.33C884.139 546.473 830.157 524.9 800.512 479.136C798.726 476.788 797.479 474.146 795.987 471.651L793.81 467.836C793.81 467.836 793.786 467.811 793.761 467.738L791.927 463.898C790.728 461.109 788.16 457.318 788.943 454.212C789.383 450.592 792.783 447.461 796.354 446.776C797.528 446.629 798.653 446.605 799.827 446.923C800.512 447.02 800.977 447.412 801.711 447.583C818.221 454.97 835.024 462.112 851.779 468.961C913.931 493.151 979.214 512.621 1046.58 513.061C1113.91 512.401 1179.59 494.496 1241.74 470.037C1256.95 463.751 1272.24 457.245 1287.16 450.2C1288.7 449.515 1292.71 447.583 1294.23 447.241C1297.38 446.605 1301.08 448.072 1302.94 450.885C1303.67 451.839 1304.21 452.989 1304.43 454.163C1305.01 456.095 1304.23 458.296 1303.4 460.082Z" fill="white"/>
<path d="M1303.4 460.081C1302.59 461.964 1300.59 465.878 1299.71 467.835C1299.68 467.835 1299.66 467.859 1299.63 467.859C1022.95 603.854 793.833 467.859 793.833 467.859C793.833 467.859 793.808 467.835 793.784 467.761L791.949 463.921C790.751 461.133 788.182 457.341 788.965 454.235C789.405 450.615 792.805 447.484 796.376 446.799C797.55 446.653 798.676 446.628 799.85 446.946C800.534 447.044 800.999 447.435 801.733 447.606C818.243 454.993 835.047 462.135 851.802 468.984C913.953 493.175 979.236 512.644 1046.6 513.085C1113.93 512.424 1179.61 494.52 1241.76 470.06C1256.97 463.774 1272.26 457.268 1287.18 450.224C1288.72 449.539 1292.73 447.606 1294.25 447.264C1297.41 446.628 1301.1 448.096 1302.96 450.909C1303.69 451.862 1304.23 453.012 1304.45 454.186C1305.01 456.094 1304.23 458.295 1303.4 460.081Z" fill="#C1BFBF"/>
<path d="M1290.51 416.74C1285.15 417.254 1279.6 419.455 1274.68 421.388C1266.03 424.641 1256.83 428.359 1248.05 431.172C1230.88 437.091 1211.33 442.668 1193.7 446.924C1144 458.566 1092.95 466.711 1042.03 466.662C993.938 465.415 946.168 458.835 899.182 447.975C875.04 442.276 849.993 434.743 827.001 425.521C824.311 424.445 816.288 421.241 813.793 420.238C801.833 415.053 787.157 416.105 776.419 423.663C760.863 433.789 754.699 454.824 762.502 471.652C763.529 474.025 765.853 478.99 766.831 481.363C769.252 485.716 771.747 491.122 774.487 495.329L780.161 504.306C782.852 507.754 786.79 513.6 789.676 517.049C793.174 520.889 796.549 525.292 800.218 528.936C803.398 531.847 808.241 537.106 811.567 539.992C876.092 596.053 963.755 612.295 1046.57 612.979C1058.07 612.515 1075.39 612.466 1086.69 611.487C1154.74 606.351 1224.15 588.202 1277.55 543.368C1282.37 539.527 1288.5 533.388 1293 528.961C1296.53 525.219 1300.1 520.987 1303.5 517.025C1306.02 514.065 1310.42 507.436 1312.96 504.232C1316.27 499.096 1321.04 491.293 1323.65 485.912L1326.05 481.191L1328.15 476.348L1330.33 471.505L1330.87 470.282C1331.36 468.546 1332.29 466.54 1332.65 464.803C1339.38 439.292 1316.61 413.61 1290.51 416.74ZM1303.4 460.083C1302.57 462.015 1300.49 466.075 1299.61 467.983C1251.35 555.108 1136.15 563.938 1046.6 565.137C1035.94 564.794 1019.82 564.916 1009.3 564.256C994.011 563.473 978.455 562.299 963.241 560.44C956.906 559.902 942.622 557.358 936.042 556.331C884.114 546.474 830.132 524.901 800.487 479.137C798.702 476.789 797.454 474.147 795.962 471.652L793.785 467.836L791.902 463.898C790.703 461.11 788.135 457.319 788.918 454.212C789.358 450.592 792.758 447.462 796.329 446.777C797.503 446.63 798.628 446.606 799.802 446.924C800.487 447.021 800.952 447.413 801.686 447.584C818.196 454.971 835 462.113 851.755 468.962C913.906 493.152 979.189 512.622 1046.55 513.062C1113.89 512.402 1179.56 494.497 1241.71 470.038C1256.93 463.752 1272.21 457.245 1287.13 450.201C1288.68 449.516 1292.69 447.584 1294.2 447.242C1297.36 446.606 1301.05 448.073 1302.91 450.886C1303.64 451.84 1304.18 452.99 1304.4 454.164C1305.01 456.096 1304.23 458.297 1303.4 460.083Z" fill="#FB4E0A"/>
<path d="M1046.75 536.563V507.432" stroke="#4C3A27" stroke-width="5.21894" stroke-miterlimit="10" stroke-linecap="round" stroke-linejoin="round"/>
<path d="M990.564 534.218V502.689" stroke="#4C3A27" stroke-width="5.21894" stroke-miterlimit="10" stroke-linecap="round" stroke-linejoin="round"/>
<path d="M937.683 527.391V487.277" stroke="#4C3A27" stroke-width="5.21894" stroke-miterlimit="10" stroke-linecap="round" stroke-linejoin="round"/>
<path d="M885.437 515.651V482.117" stroke="#4C3A27" stroke-width="5.21894" stroke-miterlimit="10" stroke-linecap="round" stroke-linejoin="round"/>
<path d="M836.003 498.873V462.33" stroke="#4C3A27" stroke-width="5.21894" stroke-miterlimit="10" stroke-linecap="round" stroke-linejoin="round"/>
<path d="M1102.64 534.218V502.689" stroke="#4C3A27" stroke-width="5.21894" stroke-miterlimit="10" stroke-linecap="round" stroke-linejoin="round"/>
<path d="M1155.49 527.391V487.277" stroke="#4C3A27" stroke-width="5.21894" stroke-miterlimit="10" stroke-linecap="round" stroke-linejoin="round"/>
<path d="M1207.76 515.651V482.117" stroke="#4C3A27" stroke-width="5.21894" stroke-miterlimit="10" stroke-linecap="round" stroke-linejoin="round"/>
<path d="M1257.17 498.873V462.33" stroke="#4C3A27" stroke-width="5.21894" stroke-miterlimit="10" stroke-linecap="round" stroke-linejoin="round"/>
<path d="M1046.75 564.52V535.389" stroke="#4C3A27" stroke-width="5.21894" stroke-miterlimit="10" stroke-linecap="round" stroke-linejoin="round"/>
<path d="M990.564 562.148V530.645" stroke="#4C3A27" stroke-width="5.21894" stroke-miterlimit="10" stroke-linecap="round" stroke-linejoin="round"/>
<path d="M937.683 555.349V515.211" stroke="#4C3A27" stroke-width="5.21894" stroke-miterlimit="10" stroke-linecap="round" stroke-linejoin="round"/>
<path d="M885.437 543.585V510.051" stroke="#4C3A27" stroke-width="5.21894" stroke-miterlimit="10" stroke-linecap="round" stroke-linejoin="round"/>
<path d="M836.003 520.641V490.287" stroke="#4C3A27" stroke-width="5.21894" stroke-miterlimit="10" stroke-linecap="round" stroke-linejoin="round"/>
<path d="M1102.64 562.148V530.645" stroke="#4C3A27" stroke-width="5.21894" stroke-miterlimit="10" stroke-linecap="round" stroke-linejoin="round"/>
<path d="M1155.49 555.349V515.211" stroke="#4C3A27" stroke-width="5.21894" stroke-miterlimit="10" stroke-linecap="round" stroke-linejoin="round"/>
<path d="M1207.76 543.585V510.051" stroke="#4C3A27" stroke-width="5.21894" stroke-miterlimit="10" stroke-linecap="round" stroke-linejoin="round"/>
<path d="M1257.17 516.263V490.287" stroke="#4C3A27" stroke-width="5.21894" stroke-miterlimit="10" stroke-linecap="round" stroke-linejoin="round"/>
<path d="M1290.31 483.121C1290.31 483.121 1203.65 536.565 1046.72 536.565C889.788 536.565 803.128 483.121 803.128 483.121" stroke="#4C3A27" stroke-width="5.21894" stroke-miterlimit="10" stroke-linecap="round" stroke-linejoin="round"/>
<path d="M1332.68 447.414C1332.31 449.151 1331.41 451.156 1330.89 452.893L1330.35 454.116L1328.18 458.959L1326.07 463.802L1323.68 468.523C1321.03 473.904 1316.29 481.706 1312.99 486.843C1310.42 490.047 1306.04 496.676 1303.52 499.635C1300.12 503.573 1296.55 507.829 1293.03 511.571C1288.53 515.999 1282.41 522.138 1277.57 525.978C1224.17 570.812 1154.76 588.937 1086.71 594.098C1075.41 595.052 1058.12 595.125 1046.6 595.59C963.778 594.905 876.115 578.664 811.591 522.603C808.24 519.716 803.421 514.458 800.242 511.547C796.573 507.902 793.197 503.475 789.7 499.66C786.813 496.211 782.851 490.365 780.185 486.916L774.51 477.939C771.771 473.732 769.3 468.327 766.854 463.973C765.852 461.601 763.552 456.635 762.525 454.263C761.498 452.037 760.715 449.738 760.177 447.414C758.342 455.412 758.978 463.973 762.525 471.678C763.552 474.05 765.876 479.016 766.854 481.388C769.276 485.742 771.771 491.148 774.51 495.355L780.185 504.331C782.875 507.78 786.813 513.626 789.7 517.075C793.197 520.915 796.573 525.318 800.242 528.962C803.421 531.873 808.264 537.132 811.591 540.018C876.115 596.079 963.778 612.32 1046.6 613.005C1058.09 612.54 1075.41 612.492 1086.71 611.513C1154.76 606.377 1224.17 588.228 1277.57 543.393C1282.39 539.553 1288.53 533.414 1293.03 528.987C1296.55 525.244 1300.12 521.013 1303.52 517.05C1306.04 514.091 1310.44 507.462 1312.99 504.258C1316.29 499.121 1321.06 491.319 1323.68 485.938L1326.07 481.217L1328.18 476.374L1330.35 471.531L1330.89 470.308C1331.38 468.571 1332.31 466.566 1332.68 464.829C1334.27 458.739 1334.19 452.648 1332.78 446.949C1332.75 447.096 1332.7 447.267 1332.68 447.414Z" fill="#D13100"/>
<path d="M1304.45 436.796C1304.23 435.622 1303.69 434.472 1302.96 433.518C1301.07 430.706 1297.41 429.238 1294.25 429.874C1292.73 430.216 1288.72 432.149 1287.18 432.833C1272.26 439.878 1256.97 446.384 1241.76 452.67C1179.61 477.154 1113.91 495.059 1046.6 495.695C979.212 495.254 913.953 475.784 851.802 451.594C835.047 444.745 818.243 437.603 801.733 430.216C800.999 430.07 800.534 429.678 799.85 429.556C798.676 429.213 797.55 429.238 796.376 429.409C792.805 430.094 789.405 433.225 788.965 436.845C788.182 439.951 790.751 443.742 791.949 446.531L792.83 448.365C793.906 447.607 795.129 447.069 796.401 446.824C797.575 446.678 798.7 446.653 799.874 446.971C800.559 447.069 801.024 447.46 801.757 447.631C818.268 455.018 835.071 462.16 851.826 469.009C913.978 493.2 979.26 512.669 1046.62 513.11C1113.96 512.449 1179.63 494.545 1241.78 470.085C1257 463.799 1272.29 457.293 1287.21 450.249C1288.75 449.564 1292.76 447.631 1294.28 447.289C1296.38 446.873 1298.7 447.387 1300.56 448.61C1301.54 446.604 1302.79 444.085 1303.4 442.691C1304.23 440.905 1305.01 438.679 1304.45 436.796Z" fill="#D13100"/>
<path d="M1046.58 565.137C1136.12 563.914 1251.35 555.108 1299.61 467.984C1300.49 466.1 1302.57 462.015 1303.4 460.083C1304.21 458.298 1305.01 456.096 1304.45 454.188C1304.26 453.039 1303.72 451.865 1302.98 450.886C1301.1 448.073 1297.43 446.606 1294.28 447.242C1292.76 447.584 1288.75 449.492 1287.21 450.201C1272.29 457.246 1257 463.752 1241.76 470.038C1179.61 494.522 1113.94 512.427 1046.6 513.062C979.238 512.622 913.955 493.177 851.828 468.962C835.073 462.138 818.245 454.971 801.735 447.609C801.001 447.438 800.536 447.046 799.852 446.948C798.677 446.606 797.528 446.63 796.354 446.777C792.783 447.462 789.383 450.617 788.943 454.237C788.16 457.344 790.728 461.135 791.927 463.899L793.786 467.837L795.938 471.628C797.43 474.123 798.677 476.765 800.439 479.113C830.108 524.901 884.09 546.425 935.993 556.307C942.573 557.334 956.833 559.854 963.192 560.416C978.406 562.275 993.963 563.425 1009.25 564.232C1019.82 564.917 1035.91 564.794 1046.58 565.137ZM1046.58 613.004C963.755 612.344 876.092 596.078 811.568 540.017C808.217 537.106 803.374 531.872 800.194 528.937C796.525 525.292 793.15 520.865 789.652 517.049C786.741 513.601 782.803 507.755 780.113 504.306L774.462 495.329C771.723 491.122 769.253 485.741 766.807 481.363C765.804 479.015 763.505 474.05 762.502 471.652C754.699 454.8 760.839 433.789 776.395 423.663C787.108 416.129 801.808 415.053 813.769 420.214C816.264 421.217 824.287 424.421 826.977 425.497C849.969 434.719 875.04 442.277 899.157 447.951C946.144 458.787 993.914 465.366 1042 466.638C1092.93 466.663 1143.95 458.542 1193.67 446.899C1211.31 442.643 1230.88 437.067 1248.05 431.123C1256.85 428.31 1266.03 424.592 1274.68 421.339C1279.58 419.407 1285.13 417.205 1290.49 416.692C1316.58 413.561 1339.36 439.219 1332.65 464.779C1332.29 466.54 1331.38 468.522 1330.89 470.258L1330.35 471.506L1328.2 476.349L1326.1 481.216L1323.68 485.937C1321.06 491.318 1316.32 499.121 1312.99 504.257C1310.42 507.461 1306.04 514.09 1303.52 517.049C1300.12 520.987 1296.55 525.219 1293.03 528.986C1288.55 533.413 1282.41 539.528 1277.57 543.368C1224.2 588.178 1154.78 606.327 1086.74 611.488C1075.39 612.466 1058.1 612.54 1046.58 613.004Z" stroke="#4C3A27" stroke-width="13.0477" stroke-miterlimit="10" stroke-linecap="round" stroke-linejoin="round"/>
<path d="M745.844 307.621C744.279 323.691 746.138 339.688 748.926 355.586C749.122 357.03 748.095 358.35 746.652 358.546C745.698 358.668 744.793 358.277 744.254 357.568C739.974 352.26 737.161 345.949 735.278 339.443C732.93 330.735 731.731 321.685 732.22 312.684C732.367 310.361 732.489 308.257 732.93 305.689C733.541 302.142 736.917 299.77 740.463 300.381C743.961 300.968 746.26 304.221 745.844 307.621Z" fill="#204712"/>
<path d="M1360.22 305.689C1362.47 323.447 1359.93 343.014 1348.9 357.568C1347.23 359.72 1343.69 358.057 1344.25 355.415C1347.11 339.443 1348.9 323.373 1347.28 307.23C1346.91 299.06 1358.65 297.691 1360.22 305.689Z" fill="#204712"/>
<path d="M1046.57 671.264C1530.31 671.264 1354.13 326.58 1354.13 326.58C1354.13 326.58 1370.93 74.6467 1046.57 154.874C722.216 74.6467 739.02 326.58 739.02 326.58C739.02 326.58 562.838 671.264 1046.57 671.264Z" stroke="#204712" stroke-width="13.0477" stroke-miterlimit="10" stroke-linecap="round" stroke-linejoin="round"/>
<path d="M1415.18 359.677C1415.18 359.677 1408.87 331.866 1390.87 298.014C1368.54 255.944 1328.13 204.603 1259.49 185.867C1176.92 163.34 1109.8 173.368 1074.24 182.565C1065.16 184.889 1055.87 186.063 1046.57 186.063C1037.26 186.063 1027.96 184.889 1018.89 182.565C983.322 173.368 916.229 163.364 833.654 185.867C709.815 219.67 677.944 359.677 677.944 359.677C677.944 359.677 677.015 311.663 708.445 257.852C748.51 189.267 841.138 111.266 1055.28 111.266C1302.47 111.266 1380.45 215.219 1404.66 288.646C1417.94 328.687 1415.18 359.677 1415.18 359.677Z" fill="white"/>
<path d="M1384.7 257.853C1296.4 140.447 1143.78 142.966 1115.94 148.054C1078.47 154.927 1046.57 159.476 1046.57 159.476C1046.57 159.476 1014.68 154.902 977.207 148.054C949.397 142.966 796.769 140.471 708.446 257.853C676.991 311.664 677.945 359.678 677.945 359.678C677.945 359.678 709.815 219.647 833.654 185.868C916.229 163.341 983.322 173.369 1018.89 182.566C1027.96 184.89 1037.26 186.064 1046.57 186.064C1055.89 186.064 1065.19 184.89 1074.26 182.566C1109.83 173.369 1176.92 163.365 1259.49 185.868C1383.33 219.671 1415.2 359.678 1415.2 359.678C1415.2 359.678 1416.16 311.664 1384.7 257.853Z" fill="#C1BFBF"/>
<path d="M1415.18 359.677C1415.18 359.677 1408.87 331.866 1390.87 298.014L1370.13 243.787C1370.13 243.787 1371.37 243.86 1373.6 244.081C1377.42 248.483 1381.11 253.057 1384.7 257.851C1391.82 267.317 1398.52 277.541 1404.69 288.646C1417.94 328.686 1415.18 359.677 1415.18 359.677Z" fill="#C1BFBF"/>
<path d="M1433.21 516.099C1429.96 389.692 1395.83 223.123 1252.67 190.787C1195.19 176.845 1134.07 174.546 1076.47 188.879C1057.02 194.04 1035.96 194.114 1016.56 188.83C980.413 178.924 943.039 172.712 905.64 175.794C801.809 183.816 719.21 253.746 685.284 350.997C668.285 398.302 660.727 448.664 658.085 498.831C658.036 499.883 657.156 500.69 656.104 500.641C655.174 500.592 654.416 499.883 654.318 498.978C648.815 447.662 657.498 395.612 674.669 347.133C709.768 245.308 796.135 172.247 904.613 163.148C943.504 159.699 982.541 165.863 1019.89 175.867C1031.53 178.851 1043.54 179.927 1055.46 178.924C1067.88 178.019 1079.91 173.763 1092.22 171.782C1149.58 161.46 1209.04 165.618 1265.15 180.832C1379.25 211.725 1427.95 331.528 1438.15 439.492C1440.47 465.101 1441.23 490.735 1438.88 516.393C1438.74 517.958 1437.34 519.083 1435.78 518.937C1434.28 518.814 1433.21 517.567 1433.21 516.099Z" fill="#595653"/>
<path d="M1046.72 46.8203C1327.61 46.8203 1291.41 124.944 1291.41 124.944C1291.41 124.944 1215.59 83.6809 1042.47 83.6809C869.34 83.6809 802.028 124.969 802.028 124.969C802.028 124.969 765.852 46.8203 1046.72 46.8203Z" fill="#5B5B5B"/>
<path d="M1046.6 68.418C843.706 68.418 802.026 124.944 802.026 124.944C861.414 83.0203 1046.6 83.6807 1046.6 83.6807C1046.6 83.6807 1231.78 83.0203 1291.17 124.944C1291.17 124.944 1249.49 68.418 1046.6 68.418Z" fill="#424242"/>
<path d="M1046.72 57.6314C1251.94 57.6314 1287.89 99.335 1292.39 121.789C1295.55 107.187 1293.62 46.8203 1046.72 46.8203C799.827 46.8203 797.919 107.187 801.074 121.789C805.55 99.3105 841.53 57.6314 1046.72 57.6314Z" fill="#757575"/>
<path d="M1046.72 46.8203C1327.61 46.8203 1291.41 124.944 1291.41 124.944C1291.41 124.944 1215.59 83.6809 1042.47 83.6809C869.34 83.6809 802.028 124.969 802.028 124.969C802.028 124.969 765.852 46.8203 1046.72 46.8203Z" stroke="#353434" stroke-width="11.7765" stroke-miterlimit="10" stroke-linecap="round" stroke-linejoin="round"/>
<path d="M1046.72 82.4102C1357.92 82.4102 1317.83 168.973 1317.83 168.973C1317.83 168.973 1233.81 123.233 1042 123.233C850.19 123.233 775.613 168.973 775.613 168.973C775.613 168.973 735.524 82.4102 1046.72 82.4102Z" fill="#5B5B5B"/>
<path d="M1046.58 106.354C821.792 106.354 775.612 168.97 775.612 168.97C841.409 122.521 1046.58 123.255 1046.58 123.255C1046.58 123.255 1251.74 122.521 1317.54 168.97C1317.54 168.97 1271.36 106.354 1046.58 106.354Z" fill="#424242"/>
<path d="M1046.72 94.3943C1274.07 94.3943 1313.92 140.598 1318.91 165.474C1322.41 149.282 1320.28 82.4336 1046.72 82.4336C773.167 82.4336 771.063 149.306 774.537 165.474C779.526 140.574 819.371 94.3943 1046.72 94.3943Z" fill="#757575"/>
<path d="M1046.72 82.4102C1357.92 82.4102 1317.83 168.973 1317.83 168.973C1317.83 168.973 1233.81 123.233 1042 123.233C850.19 123.233 775.613 168.973 775.613 168.973C775.613 168.973 735.524 82.4102 1046.72 82.4102Z" stroke="#353434" stroke-width="13.0477" stroke-miterlimit="10" stroke-linecap="round" stroke-linejoin="round"/>
</g>
<defs>
<clipPath id="clip0_445_910">
<rect width="1506.61" height="1575" fill="white"/>
</clipPath>
</defs>
</svg>
