<svg width="1344" height="2381" viewBox="0 0 1344 2381" fill="none" xmlns="http://www.w3.org/2000/svg">
<g clip-path="url(#clip0_429_1440)">
<path d="M1266.83 929.994C1247.42 973.224 1237.97 1020.35 1240.62 1067.7C1248.93 1216.06 1215.11 1553.63 734.908 1553.63H734.872C254.746 1553.6 220.926 1216.03 229.271 1067.66C231.881 1020.31 222.47 973.188 203.061 929.957C154.059 820.779 135.679 725.166 135.973 642.86V642.713C137.002 380.685 328.082 253.568 328.082 253.568C433.107 -13.6054 734.908 9.62709 734.908 9.62709C734.908 9.62709 1036.75 -13.6054 1141.77 253.568C1141.77 253.568 1471.8 473.137 1266.83 929.994Z" fill="white"/>
<path d="M1333.48 642.716V642.863C1333.81 725.169 1315.39 820.783 1266.39 929.961C1263.93 935.475 1261.61 941.099 1259.44 946.723C1244.74 985.211 1237.9 1026.35 1240.18 1067.66C1244.63 1147.25 1236.98 1281.28 1154.75 1388.47C1083.8 1481 957.198 1553.49 734.835 1553.56H734.504C254.746 1553.45 220.926 1215.99 229.271 1067.66C231.881 1020.32 222.47 973.191 203.061 929.961C154.059 820.783 135.679 725.169 135.973 642.863V642.716C146.854 530.891 181.299 448.07 227.286 386.938C359.807 210.746 588.86 214.496 630.619 222.142C685.098 232.14 731.71 238.868 734.541 239.272C734.651 239.309 734.688 239.309 734.688 239.309C734.688 239.309 782.55 232.471 838.793 222.142C880.553 214.496 1109.61 210.746 1242.13 386.938C1288.15 448.107 1322.59 530.928 1333.48 642.716Z" fill="#C1BFBF"/>
<path d="M1333.48 642.709V642.856C1333.81 725.163 1315.39 820.776 1266.39 929.954C1263.93 935.468 1261.61 941.093 1259.44 946.717C1093.4 1227.01 734.543 1243.12 734.543 1243.12C734.543 1243.12 375.689 1227.01 209.642 946.717C207.474 941.093 205.194 935.468 202.695 929.954C183.028 886.209 168.361 844.634 157.737 805.227C141.967 746.3 135.423 692.189 135.607 642.856V642.709C146.488 530.885 180.933 448.064 226.92 386.931C232.324 379.726 237.874 372.889 243.609 366.272C377.821 211.07 590.185 214.82 630.254 222.172C686.497 232.465 734.359 239.339 734.359 239.339C734.359 239.339 734.395 239.339 734.506 239.302C734.616 239.339 734.653 239.339 734.653 239.339C734.653 239.339 782.515 232.501 838.758 222.172C880.518 214.526 1109.57 210.776 1242.09 386.968C1288.15 448.1 1322.6 530.921 1333.48 642.709Z" fill="#A0A0A0"/>
<path d="M216.92 449.355C216.92 449.355 135.57 611.064 156.964 797.181C157.295 799.938 157.553 802.622 157.773 805.232C142.003 746.305 135.46 692.194 135.643 642.861V642.714C146.524 530.89 180.969 448.069 226.956 386.936C232.36 379.731 237.91 372.894 243.645 366.277C246.99 365.946 248.865 365.836 248.865 365.836L216.92 449.355Z" fill="#C1BFBF"/>
<path d="M1252.2 449.355C1252.2 449.355 1333.55 611.064 1312.15 797.181C1311.82 799.938 1311.57 802.622 1311.35 805.232C1327.12 746.305 1333.66 692.194 1333.48 642.861V642.714C1322.59 530.89 1288.15 448.069 1242.16 386.936C1236.76 379.731 1231.21 372.894 1225.47 366.277C1222.13 365.946 1220.25 365.836 1220.25 365.836L1252.2 449.355Z" fill="#C1BFBF"/>
<path d="M734.91 1553.6C254.747 1553.6 220.928 1216.03 229.235 1067.66C231.882 1020.35 222.435 973.224 203.025 929.957C-1.95001 473.137 328.047 253.568 328.047 253.568C433.108 -13.6054 734.91 9.62709 734.91 9.62709C734.91 9.62709 1036.75 -13.6054 1141.77 253.568C1141.77 253.568 1471.77 473.174 1266.79 929.957C1247.38 973.188 1237.94 1020.31 1240.58 1067.66C1248.93 1216.03 1215.11 1553.6 734.91 1553.6Z" stroke="#595653" stroke-width="18.2393" stroke-miterlimit="10" stroke-linecap="round" stroke-linejoin="round"/>
<path d="M945.329 986.674C937.941 994.724 928.751 1003.91 917.87 1013.4C878.242 1047.81 816.044 1085.96 734.693 1085.96C653.306 1085.96 591.071 1047.81 551.48 1013.36C540.599 1003.91 531.445 994.688 524.057 986.674C535.011 989.468 546.003 992.078 556.957 994.504C617.869 1008.03 678.45 1015.93 734.693 1015.93C790.936 1015.93 851.48 1008.03 912.392 994.504C923.384 992.078 934.338 989.468 945.329 986.674Z" fill="#379E25"/>
<path d="M350.543 1126.95C351.352 1129.2 352.307 1131.36 353.668 1133.5C353.116 1132.54 351.903 1130.22 350.543 1126.95Z" fill="white"/>
<path d="M1115.97 1133.1C1115.89 1133.21 1115.86 1133.39 1115.75 1133.5C1117.11 1131.33 1118.14 1129.09 1118.91 1126.81C1117.69 1129.75 1116.59 1131.96 1115.97 1133.1Z" fill="white"/>
<path d="M467.954 2302.66C428.878 2334.6 399.139 2343.13 364.952 2343.13C348.336 2343.13 330.691 2341.11 310.4 2338.79C276.617 2334.97 255.186 2327.25 242.467 2320.74C244.709 2326.29 250.775 2334.12 257.759 2337.4C268.861 2342.54 368.224 2386.47 439.465 2342.21C512.434 2296.89 564.119 2244.5 575.919 2232.08C575.772 2228.25 575.552 2224.54 575.258 2220.9C554.231 2236.05 508.611 2269.39 467.954 2302.66Z" fill="#424242"/>
<path d="M573.824 2206.31C556.583 2218.66 505.229 2255.79 459.941 2292.8C406.05 2336.92 372.598 2333.06 311.87 2326.15C270.294 2321.4 249.194 2310.67 240.519 2304.94C240.408 2299.02 240.776 2292.84 241.989 2286.74C244.672 2272.66 251.62 2258.88 266.251 2248.91C276.544 2241.89 288.086 2235.16 299.225 2228.58C332.088 2209.32 365.945 2189.4 377.781 2158.74C401.014 2170.76 435.458 2183.66 485.636 2192.78C488.246 2193.26 490.893 2193.74 493.576 2194.18C517.985 2198.29 538.534 2199.95 556.436 2199.95C562.171 2199.95 567.612 2199.8 572.868 2199.47C573.162 2201.49 573.493 2203.77 573.824 2206.31Z" fill="#5B5B5B"/>
<path d="M573.824 2206.31C556.583 2218.66 505.229 2255.79 459.941 2292.81C406.05 2336.92 372.598 2333.06 311.87 2326.15C270.294 2321.41 249.194 2310.68 240.519 2304.94C240.408 2299.02 240.776 2292.85 241.989 2286.74C243.092 2289.87 245.114 2293.4 248.496 2295.64C255.701 2300.38 322.531 2312.59 391.603 2305.57C448.471 2299.76 477.292 2220.61 485.673 2192.79C488.283 2193.26 490.93 2193.74 493.613 2194.18C518.022 2198.3 538.571 2199.95 556.473 2199.95C562.208 2199.95 567.648 2199.81 572.905 2199.48C573.162 2201.5 573.493 2203.78 573.824 2206.31Z" fill="#424242"/>
<path d="M1001.42 2302.66C1040.5 2334.6 1070.23 2343.13 1104.42 2343.13C1121.04 2343.13 1138.68 2341.11 1158.97 2338.79C1192.76 2334.97 1214.19 2327.25 1226.91 2320.74C1224.66 2326.29 1218.6 2334.12 1211.61 2337.4C1200.51 2342.54 1101.15 2386.47 1029.91 2342.21C956.939 2296.89 905.254 2244.5 893.454 2232.08C893.601 2228.25 893.822 2224.54 894.116 2220.9C915.179 2236.05 960.762 2269.39 1001.42 2302.66Z" fill="#424242"/>
<path d="M895.587 2206.31C912.827 2218.66 964.182 2255.79 1009.47 2292.8C1063.36 2336.92 1096.81 2333.06 1157.54 2326.15C1199.12 2321.4 1220.22 2310.67 1228.89 2304.94C1229 2299.02 1228.64 2292.84 1227.42 2286.74C1224.74 2272.66 1217.79 2258.88 1203.16 2248.91C1192.87 2241.89 1181.32 2235.16 1170.19 2228.58C1137.32 2209.32 1103.47 2189.4 1091.63 2158.74C1068.4 2170.76 1033.95 2183.66 983.775 2192.78C981.165 2193.26 978.518 2193.74 975.798 2194.18C951.389 2198.29 930.84 2199.95 912.938 2199.95C907.203 2199.95 901.763 2199.8 896.506 2199.47C896.212 2201.49 895.881 2203.77 895.587 2206.31Z" fill="#5B5B5B"/>
<path d="M895.587 2206.31C912.827 2218.66 964.182 2255.79 1009.47 2292.81C1063.36 2336.92 1096.81 2333.06 1157.54 2326.15C1199.12 2321.41 1220.22 2310.68 1228.89 2304.94C1229 2299.02 1228.64 2292.85 1227.42 2286.74C1226.32 2289.87 1224.3 2293.4 1220.92 2295.64C1213.71 2300.38 1146.88 2312.59 1077.81 2305.57C1020.94 2299.76 992.119 2220.61 983.738 2192.79C981.128 2193.26 978.481 2193.74 975.761 2194.18C951.352 2198.3 930.803 2199.95 912.901 2199.95C907.166 2199.95 901.726 2199.81 896.469 2199.48C896.212 2201.5 895.881 2203.78 895.587 2206.31Z" fill="#424242"/>
<path d="M573.826 2206.31C556.585 2218.66 505.231 2255.79 459.943 2292.81C406.052 2336.92 372.6 2333.06 311.872 2326.15C270.296 2321.41 249.196 2310.67 240.521 2304.94C240.116 2285.46 245.263 2263.18 266.253 2248.92C276.546 2241.89 288.088 2235.17 299.227 2228.59C332.09 2209.32 365.947 2189.4 377.783 2158.74C371.387 2155.43 365.836 2152.16 361.058 2149.11C352.823 2175.06 322.018 2193.15 289.596 2212.19C278.163 2218.88 266.4 2225.83 255.556 2233.18C229.162 2251.08 217.509 2281.96 222.692 2320.19C224.199 2331.37 234.97 2347.73 249.747 2354.6C262.577 2360.56 310.475 2381 363.888 2381C392.377 2381 422.374 2375.19 449.54 2358.31C534.897 2305.31 590.295 2244.61 592.611 2242.08L595.147 2239.28L595.073 2235.5C594.779 2220.87 593.162 2206.71 591.912 2197.63C585.92 2198.44 579.597 2199.07 572.907 2199.47C573.164 2201.49 573.495 2203.77 573.826 2206.31ZM575.921 2232.04C564.085 2244.47 512.4 2296.85 439.467 2342.18C368.226 2386.44 268.863 2342.51 257.761 2337.36C250.777 2334.09 244.711 2326.26 242.469 2320.71C255.225 2327.21 276.656 2334.9 310.402 2338.76C330.694 2341.07 348.338 2343.1 364.954 2343.1C399.141 2343.1 428.88 2334.57 467.956 2302.62C508.613 2269.35 554.196 2236.05 575.26 2220.83C575.554 2224.51 575.774 2228.22 575.921 2232.04Z" fill="#353434"/>
<path d="M1091.63 2158.78C1103.51 2189.44 1137.36 2209.36 1170.19 2228.62C1181.33 2235.2 1192.87 2241.93 1203.16 2248.95C1224.15 2263.21 1229.3 2285.49 1228.9 2304.97C1220.26 2310.71 1199.12 2321.44 1157.54 2326.18C1096.82 2333.1 1063.36 2336.92 1009.47 2292.84C964.148 2255.82 912.831 2218.7 895.591 2206.35C895.921 2203.81 896.215 2201.53 896.51 2199.54C891.51 2199.25 886.768 2198.77 882.136 2198.22C880.592 2198.04 879.012 2197.89 877.504 2197.71C876.218 2206.79 874.637 2220.94 874.343 2235.57L874.27 2239.36L876.806 2242.15C879.122 2244.69 934.52 2305.38 1019.88 2358.39C1047.01 2375.26 1077.04 2381.07 1105.53 2381.07C1158.94 2381.07 1206.84 2360.67 1219.67 2354.67C1234.45 2347.8 1245.22 2331.48 1246.72 2320.27C1251.91 2282.07 1240.25 2251.19 1213.86 2233.25C1203.02 2225.9 1191.25 2218.95 1179.82 2212.26C1147.4 2193.22 1116.59 2175.1 1108.36 2149.18C1107.15 2149.96 1105.93 2150.73 1104.61 2151.54C1100.75 2153.82 1096.41 2156.28 1091.63 2158.78ZM1211.66 2337.36C1200.55 2342.51 1101.19 2386.43 1029.95 2342.18C956.98 2296.85 905.295 2244.47 893.495 2232.04C893.642 2228.22 893.863 2224.51 894.157 2220.87C915.22 2236.05 960.803 2269.39 1001.46 2302.66C1040.54 2334.6 1070.28 2343.13 1104.46 2343.13C1121.08 2343.13 1138.72 2341.11 1159.01 2338.79C1192.8 2334.97 1214.23 2327.25 1226.95 2320.74C1224.67 2326.26 1218.6 2334.09 1211.66 2337.36Z" fill="#353434"/>
<path d="M1104.64 2151.46C1100.75 2153.85 1096.45 2156.27 1091.63 2158.77C1096.41 2156.27 1100.75 2153.81 1104.64 2151.46Z" fill="#353434"/>
<path d="M882.131 2198.18C886.763 2198.7 891.505 2199.18 896.504 2199.51C891.468 2199.18 886.726 2198.73 882.131 2198.18Z" fill="#353434"/>
<path d="M998.226 983.258C991.021 985.647 983.816 987.89 976.537 990.095C983.779 987.853 991.021 985.61 998.226 983.258Z" fill="#70340A"/>
<path d="M752.187 1298.63C752.187 1308.26 744.32 1316.13 734.689 1316.13C725.058 1316.13 717.191 1308.26 717.191 1298.63C717.191 1297.64 717.302 1296.68 717.449 1295.76C718.809 1287.45 726.051 1281.13 734.689 1281.13C743.328 1281.13 750.57 1287.45 751.93 1295.76C752.114 1296.68 752.187 1297.67 752.187 1298.63Z" fill="#C1BFBF"/>
<path d="M752.187 1180.81C752.187 1190.44 744.32 1198.31 734.689 1198.31C725.058 1198.31 717.191 1190.44 717.191 1180.81C717.191 1179.82 717.302 1178.86 717.449 1177.94C718.809 1169.67 726.051 1163.31 734.689 1163.31C743.328 1163.31 750.57 1169.67 751.93 1177.94C752.114 1178.86 752.187 1179.82 752.187 1180.81Z" fill="#C1BFBF"/>
<path d="M751.931 1295.76C750.571 1304.03 743.329 1310.36 734.691 1310.36C726.052 1310.36 718.81 1304.03 717.45 1295.76C718.81 1287.45 726.052 1281.13 734.691 1281.13C743.366 1281.13 750.571 1287.45 751.931 1295.76Z" fill="white"/>
<path d="M751.931 1177.94C750.571 1186.21 743.329 1192.54 734.691 1192.54C726.052 1192.54 718.81 1186.21 717.45 1177.94C718.81 1169.67 726.052 1163.31 734.691 1163.31C743.366 1163.31 750.571 1169.64 751.931 1177.94Z" fill="white"/>
<path d="M734.694 1105.01C715.395 1105.01 697.345 1102.81 680.546 1099.13L682.163 1180.85L685.509 1350.31C685.656 1358.66 689.405 1366.56 695.728 1372C719.144 1392.15 729.878 1400.79 734.731 1404.54C739.583 1400.79 750.317 1392.15 773.733 1372C780.056 1366.56 783.769 1358.66 783.953 1350.31L787.298 1180.26L788.878 1099.13C772.042 1102.81 753.993 1105.01 734.694 1105.01ZM734.694 1150.63C751.346 1150.63 764.874 1164.16 764.874 1180.81C764.874 1197.46 751.346 1210.99 734.694 1210.99C718.041 1210.99 704.514 1197.46 704.514 1180.81C704.514 1164.16 718.041 1150.63 734.694 1150.63ZM734.694 1268.45C751.346 1268.45 764.874 1281.98 764.874 1298.63C764.874 1315.28 751.346 1328.81 734.694 1328.81C718.041 1328.81 704.514 1315.28 704.514 1298.63C704.514 1281.98 718.041 1268.45 734.694 1268.45Z" fill="white"/>
<path d="M394.919 1885.72C391.721 1902.19 388.486 1917.81 385.251 1932.56C369.444 2004.97 353.748 2056.95 343.823 2086.8C332.5 2078.57 326.398 2069.6 323.09 2062.25C320.59 2056.66 319.671 2051.99 319.377 2049.34C351.616 2001.19 376.208 1943.36 394.919 1885.72Z" fill="white"/>
<path d="M1150.05 2049.38C1149.75 2052.03 1148.84 2056.7 1146.34 2062.28C1143.03 2069.6 1136.92 2078.57 1125.6 2086.84C1115.64 2056.95 1099.98 2005.01 1084.17 1932.59C1080.94 1917.85 1077.7 1902.23 1074.51 1885.76C1093.18 1943.36 1117.77 2001.19 1150.05 2049.38Z" fill="white"/>
<path d="M385.251 1932.56C369.444 2004.97 353.747 2056.95 343.822 2086.8C332.499 2078.57 326.397 2069.6 323.089 2062.25C348.343 2023.24 368.782 1978.4 385.251 1932.56Z" fill="#C1BFBF"/>
<path d="M1146.33 2062.28C1143.02 2069.6 1136.92 2078.57 1125.6 2086.84C1115.64 2056.95 1099.98 2005.01 1084.17 1932.59C1100.64 1978.4 1121.04 2023.24 1146.33 2062.28Z" fill="#C1BFBF"/>
<path d="M1116.56 2118.46C1106.74 2128.57 1070.09 2158.97 972.641 2175.43C902.025 2187.38 867.249 2177.86 830.416 2167.72C803.728 2160.4 776.231 2152.83 734.876 2153.56H734.692C693.263 2152.79 665.693 2160.36 638.968 2167.72C602.171 2177.82 567.359 2187.38 496.743 2175.43C399.291 2158.97 362.641 2128.57 352.826 2118.46C362.237 2093.42 401.092 1983.14 429.14 1799.49C435.868 1755.38 441.97 1707.07 446.932 1654.69C451.858 1602.75 454.542 1554.7 455.351 1510.74C456.6 1442.51 453.145 1384.17 446.05 1336.49C446.013 1336.27 446.013 1336.16 446.013 1336.16C430.942 1235.36 405.945 1180.81 405.945 1180.81C405.945 1180.81 413.995 1218.86 423.112 1286.64C393.005 1187.17 353.855 1133.98 353.855 1133.98L356.465 1105.49C357.384 1095.23 362.898 1086.08 371.611 1080.46C413.922 1053.11 476.855 1002.97 492.846 990.1C503.139 993.224 513.579 996.239 524.019 999.069V999.106H524.056C534.091 1012.38 581.291 1070.02 661.429 1094.2L666.465 1350.72C666.759 1364.43 672.861 1377.48 683.301 1386.45C728.663 1425.41 730.281 1425.41 734.692 1425.41C739.103 1425.41 740.721 1425.41 786.083 1386.45C796.523 1377.48 802.625 1364.43 802.919 1350.72L807.955 1094.94V1094.2C888.093 1070.02 935.293 1012.41 945.328 999.106H945.365V999.069C955.805 996.239 966.245 993.224 976.538 990.1C992.528 1002.97 1055.43 1053.14 1097.77 1080.46C1106.49 1086.08 1112 1095.2 1112.92 1105.49L1115.53 1133.98C1115.53 1133.98 1076.42 1187.17 1046.27 1286.68C1055.39 1218.86 1063.44 1180.81 1063.44 1180.81C1063.44 1180.81 1038.41 1235.36 1023.37 1336.16C1011.68 1414.53 1009.92 1521.87 1022.45 1654.65C1027.45 1707.66 1033.63 1756.51 1040.5 1801.03C1068.51 1983.73 1107.15 2093.53 1116.56 2118.46Z" fill="white"/>
<path d="M685.471 1350.31L682.126 1180.84L693.705 1335.71C694.294 1343.58 697.859 1350.93 703.704 1356.26L728.003 1378.47C731.789 1381.92 737.56 1381.92 741.347 1378.47L765.645 1356.26C771.49 1350.93 775.019 1343.58 775.644 1335.71L787.297 1180.29L783.952 1350.34C783.805 1358.69 780.055 1366.59 773.733 1372.03C750.316 1392.18 739.582 1400.82 734.73 1404.57C729.878 1400.82 719.144 1392.18 695.727 1372.03C689.405 1366.56 685.655 1358.65 685.471 1350.31Z" fill="#C1BFBF"/>
<path d="M814.353 1365.79C814.611 1377.44 810.383 1388.72 802.553 1397.36L748.773 1456.51C741.237 1464.85 728.114 1464.85 720.578 1456.51L666.797 1397.36C658.968 1388.72 654.74 1377.4 654.997 1365.79L661.394 1094.16L666.43 1350.68C666.724 1364.39 672.826 1377.44 683.266 1386.41C728.628 1425.37 730.246 1425.37 734.657 1425.37C739.068 1425.37 740.686 1425.37 786.048 1386.41C796.488 1377.44 802.59 1364.39 802.884 1350.68L807.92 1094.9L814.353 1365.79Z" fill="#C1BFBF"/>
<path d="M1116.56 2118.46C1106.74 2128.56 1070.09 2158.97 972.641 2175.43C902.025 2187.38 867.249 2177.86 830.416 2167.71C803.728 2160.4 776.231 2152.83 734.876 2153.56H734.692C693.263 2152.79 665.693 2160.36 638.968 2167.71C602.171 2177.82 567.359 2187.38 496.743 2175.43C399.291 2158.97 362.641 2128.56 352.826 2118.46C362.237 2093.42 401.092 1983.14 429.14 1799.49C424.692 1893.81 415.061 1995.46 396.534 2093.68C393.152 2111.73 404.033 2129.48 422.634 2135.99C460.276 2149.15 525.232 2166.21 586.18 2154.41C679.257 2136.43 667.825 1918.7 734.655 1918.7H734.839C801.669 1918.7 790.237 2136.43 883.277 2154.41C944.262 2166.21 1009.22 2149.15 1046.82 2135.99C1065.42 2129.45 1076.34 2111.69 1072.92 2093.68C1054.51 1995.97 1044.88 1894.95 1040.43 1801.07C1068.51 1983.73 1107.15 2093.53 1116.56 2118.46Z" fill="#C1BFBF"/>
<path d="M734.693 1085.97C646.983 1085.97 585.63 1036.93 556.663 1007.41C545.745 1004.8 534.901 1002.04 524.057 999.104C534.092 1012.37 581.292 1070.01 661.43 1094.2L666.466 1350.72C666.76 1364.43 672.862 1377.48 683.302 1386.45C728.664 1425.41 730.282 1425.41 734.693 1425.41C739.104 1425.41 740.722 1425.41 786.084 1386.45C796.524 1377.48 802.626 1364.43 802.92 1350.72L807.956 1094.2C888.094 1070.01 935.294 1012.41 945.329 999.104C934.485 1002.04 923.641 1004.8 912.723 1007.41C883.756 1036.93 822.403 1085.97 734.693 1085.97ZM783.915 1350.31C783.768 1358.66 780.018 1366.56 773.696 1372C750.279 1392.11 739.545 1400.78 734.693 1404.53C729.841 1400.78 719.107 1392.14 695.69 1372C689.368 1366.56 685.655 1358.66 685.471 1350.31L680.545 1099.13C697.345 1102.8 715.394 1105.01 734.693 1105.01C753.992 1105.01 772.041 1102.8 788.841 1099.13L783.915 1350.31Z" fill="#595653"/>
<path d="M704.512 1180.81C704.512 1197.47 718.04 1210.99 734.692 1210.99C751.344 1210.99 764.872 1197.47 764.872 1180.81C764.872 1164.16 751.344 1150.63 734.692 1150.63C718.04 1150.63 704.512 1164.16 704.512 1180.81ZM752.19 1180.81C752.19 1190.48 744.323 1198.31 734.692 1198.31C725.024 1198.31 717.194 1190.44 717.194 1180.81C717.194 1171.15 725.061 1163.32 734.692 1163.32C744.36 1163.32 752.19 1171.15 752.19 1180.81Z" fill="#595653"/>
<path d="M734.692 1268.45C718.04 1268.45 704.512 1281.97 704.512 1298.63C704.512 1315.28 718.04 1328.81 734.692 1328.81C751.344 1328.81 764.872 1315.28 764.872 1298.63C764.872 1281.97 751.344 1268.45 734.692 1268.45ZM734.692 1316.12C725.024 1316.12 717.194 1308.26 717.194 1298.63C717.194 1288.96 725.061 1281.13 734.692 1281.13C744.36 1281.13 752.19 1288.99 752.19 1298.63C752.19 1308.29 744.36 1316.12 734.692 1316.12Z" fill="#595653"/>
<path d="M1039.65 1339.87C1051.08 1239.07 1063.44 1180.81 1063.44 1180.81C1063.44 1180.81 1038.4 1235.36 1023.37 1336.16C1011.68 1414.53 1009.91 1521.87 1022.45 1654.65C1047.92 1925.17 1104.9 2087.43 1116.55 2118.42C1106.74 2128.53 1070.09 2158.93 972.637 2175.39C902.021 2187.34 867.246 2177.82 830.412 2167.67C803.687 2160.36 776.117 2152.75 734.688 2153.52C693.259 2152.75 665.689 2160.36 638.964 2167.67C602.167 2177.78 567.355 2187.34 496.739 2175.39C399.287 2158.93 362.637 2128.53 352.822 2118.42C364.475 2087.39 421.454 1925.17 446.929 1654.65C459.464 1521.87 457.7 1414.53 446.01 1336.16C430.938 1235.36 405.941 1180.81 405.941 1180.81C405.941 1180.81 418.293 1239.07 429.725 1339.87C432.96 1368.51 435.239 1400.97 436.232 1437.03C436.379 1443.79 436.562 1450.67 436.599 1457.65C437.151 1502.46 435.754 1552.34 431.82 1606.82H431.71C431.489 1609.58 408.33 1884.77 301.799 2041.33L300.218 2043.65L300.145 2046.44C300.108 2047.95 299.777 2081.18 337.346 2105.44C334.736 2112.64 333.192 2116.43 333.082 2116.69L331.207 2121.32L333.928 2125.51C334.516 2126.39 341.353 2136.43 360.983 2149.11C365.762 2152.2 371.313 2155.47 377.709 2158.74C402.155 2171.39 438.989 2184.99 493.541 2194.18C517.95 2198.3 538.499 2199.95 556.401 2199.95C562.135 2199.95 567.576 2199.8 572.833 2199.47C579.523 2199.07 585.846 2198.44 591.838 2197.63C611.357 2194.99 627.789 2190.5 643.964 2186.06C670.615 2178.74 695.759 2171.87 734.468 2172.56H734.835C773.544 2171.87 798.688 2178.7 825.339 2186.06C841.514 2190.5 857.945 2194.99 877.465 2197.63C878.972 2197.82 880.553 2198 882.097 2198.15C886.729 2198.66 891.471 2199.14 896.47 2199.47C901.69 2199.8 907.167 2199.95 912.902 2199.95C930.804 2199.95 951.353 2198.3 975.762 2194.18C1030.31 2184.99 1067.15 2171.39 1091.59 2158.74C1096.41 2156.28 1100.71 2153.82 1104.61 2151.43C1105.89 2150.66 1107.14 2149.85 1108.36 2149.07C1127.99 2136.39 1134.82 2126.36 1135.41 2125.47L1138.13 2121.28L1136.26 2116.65C1136.15 2116.39 1134.6 2112.61 1131.99 2105.4C1169.56 2081.14 1169.23 2047.87 1169.19 2046.4L1169.12 2043.61L1167.54 2041.29C1061.01 1884.73 1037.85 1609.54 1037.63 1606.79H1037.52C1033.59 1552.27 1032.19 1502.42 1032.74 1457.61C1032.81 1450.63 1032.96 1443.75 1033.11 1436.99C1034.14 1401 1036.42 1368.51 1039.65 1339.87ZM319.371 2049.38C351.609 2001.19 376.239 1943.4 394.913 1885.72C376.055 1982.88 355.8 2050.85 343.816 2086.8C323.892 2072.32 320.069 2055.56 319.371 2049.38ZM1150.04 2049.38C1149.31 2055.56 1145.52 2072.32 1125.6 2086.84C1113.61 2050.89 1093.36 1982.92 1074.5 1885.76C1093.17 1943.36 1117.77 2001.19 1150.04 2049.38Z" fill="#595653"/>
<path d="M284.085 1251.76C272.358 1266.57 251.993 1287.78 221.335 1311.24C210.123 1319.84 197.551 1328.7 183.509 1337.7C172.444 1319.32 152.851 1291.2 151.895 1289.8L149.763 1286.75L146.16 1285.91C120.685 1279.92 106.092 1264.26 98.2617 1251.94C99.7321 1252.05 101.203 1252.13 102.636 1252.13C111.385 1252.09 119.987 1249.81 127.633 1244.08C140.132 1234.63 145.94 1218.64 144.065 1198.97C143.624 1194.56 142.484 1188.09 140.463 1181.91C141.382 1182.94 142.374 1183.97 143.403 1184.96C152.226 1193.6 162.592 1199.82 173.436 1203.23C163.658 1221.65 171.047 1240.88 171.047 1240.88C171.047 1240.88 171.121 1240.66 171.268 1240.25C172.481 1236.76 179.061 1219.04 191.155 1206.36C195.493 1206.51 199.83 1206.25 204.095 1205.48C245.046 1198.01 238.686 1171.03 238.686 1171.03L237.84 1171.73C234.753 1174.16 223.063 1182.32 200.639 1186.4C179.796 1190.18 163.033 1176.66 158.402 1172.43C149.542 1164.34 147.19 1157.5 147.337 1155.96C148.109 1151.07 148.954 1149.75 164.283 1144.93C164.467 1144.86 164.577 1144.82 164.577 1144.82C166.342 1144.27 168.327 1143.65 170.532 1142.98C174.282 1141.81 178.509 1140.56 183.178 1139.05C197.772 1134.35 208.028 1127.91 216.262 1122.69C225.857 1116.66 232.143 1112.69 241.296 1112.99C257.397 1113.54 275.226 1130.01 278.24 1160.34C279.233 1170.66 276.843 1179.85 274.307 1189.56C269.491 1207.43 264.271 1227.5 284.085 1251.76Z" fill="#56D13D"/>
<path d="M436.385 1554.33C412.27 1586.2 329.67 1595.57 295.372 1582.93C270.559 1573.78 165.167 1478.16 90.5439 1406.96C93.1907 1406.19 95.9845 1405.27 98.9988 1404.16C117.489 1397.44 142.744 1384.64 174.137 1366.15C180.533 1362.37 186.672 1358.62 192.554 1354.9L192.59 1354.87C236.703 1326.86 265.486 1300.76 282.506 1282.93C286.734 1278.48 295.887 1268.55 303.533 1258.08C313.458 1292.52 331.765 1354.32 339.926 1370.93C351.174 1393.8 366.981 1445.85 364.004 1459.38C364.004 1459.38 378.414 1413.65 357.277 1362.37C351.946 1349.43 337.5 1303.4 326.435 1266.72C329.486 1233.38 333.309 1180.44 352.865 1114.93C352.865 1114.93 416.35 1232.31 422.894 1284.8C427.378 1320.9 443.516 1380.93 445.281 1452.03C446.053 1484.26 443.884 1518.78 436.385 1554.33Z" fill="white"/>
<path d="M216.7 977.341C211.407 998.515 205.378 1022.48 207.437 1043.95C210.12 1072.18 214.017 1090.16 216.664 1099.86C212.988 1101.81 209.459 1104.05 205.856 1106.3C200.048 1109.97 194.13 1113.69 186.667 1116.99C183.726 1118.28 180.602 1119.46 177.146 1120.56C172.551 1122.03 168.434 1123.28 164.758 1124.42C143.695 1130.85 131.012 1134.71 128.145 1152.91C127.557 1156.66 128.145 1160.81 129.762 1165.19C129.468 1165 129.174 1164.82 128.88 1164.67C123.917 1162.25 118.881 1162.28 114.654 1163.27C109.875 1157.17 102.78 1154.49 100.575 1153.83C100.207 1153.68 99.9865 1153.64 99.9498 1153.64C100.134 1154.08 102.964 1161.03 105.096 1168.97C105.758 1171.58 106.42 1174.3 106.824 1176.91C109.14 1190.99 107.265 1199.81 107.228 1200.15C107.78 1199.74 116.712 1193.42 118.808 1182.21C119.065 1182.13 119.322 1182.06 119.58 1182.02C122.043 1186.18 126.05 1198.64 124.8 1210.73C123.954 1218.78 121.013 1224.81 115.977 1228.56C99.1043 1241.32 66.4612 1221.58 57.1976 1209.85C49.0368 1199.52 39.6629 1162.47 54.7714 1140.19C61.0574 1130.93 68.7035 1125.85 76.8643 1125.49C86.0544 1125.08 110.243 1135.85 110.243 1135.85C110.243 1135.85 107.228 1112.99 84.3267 1106.63C72.0487 1093.36 33.0828 1049.17 21.3563 1012.81C16.0628 996.383 22.3121 979.032 32.752 968.004C32.752 968.004 32.7887 968.004 32.7887 967.967C36.5015 964.071 40.6922 960.983 45.1402 958.998C52.9701 955.506 64.1085 954.403 72.7472 969.18C78.4083 978.812 81.974 990.354 86.0544 1003.74C93.627 1028.4 102.891 1058.62 130.314 1094.28H130.351C132.666 1097.33 135.129 1100.38 137.739 1103.5C143.695 1110.6 154.87 1106.04 154.87 1097.44C154.87 1096.85 154.796 1096.26 154.723 1095.67C149.797 1067.11 141.452 992.082 154.723 954.329C156.23 950.065 157.994 946.279 160.09 943.081C170.53 927.127 182.918 918.084 195.857 916.981C205.194 916.135 214.385 919.811 221.112 926.943C227.618 933.927 221.81 957.013 216.7 977.341Z" fill="#56D13D"/>
<path d="M436.381 1554.33C412.267 1586.2 329.629 1595.58 295.369 1582.93C270.556 1573.81 165.201 1478.16 90.5038 1406.96C93.1506 1406.19 95.9811 1405.27 98.9955 1404.16C117.449 1397.44 142.74 1384.61 174.133 1366.15C228.759 1333.99 263.24 1303.15 282.503 1282.93C286.73 1278.48 295.847 1268.56 303.493 1258.08C313.455 1292.56 331.725 1354.35 339.886 1370.93C351.097 1393.72 366.831 1445.48 364.037 1459.23C364.993 1456.11 377.638 1411.81 357.273 1362.37C351.943 1349.43 337.496 1303.4 326.431 1266.72C329.482 1233.34 333.305 1180.44 352.862 1114.93L346.907 1089.57C331.651 1114.6 319.557 1179.6 312.83 1223.75C311.837 1222.5 310.661 1221.36 309.301 1220.47C303.64 1216.69 295.553 1216.76 289.34 1217.61C288.789 1210.22 290.7 1202.87 292.943 1194.45C295.7 1184.04 298.788 1172.24 297.391 1158.42C293.751 1121.26 270.923 1094.64 241.846 1093.61C239.493 1093.54 237.251 1093.61 235.119 1093.83C232.766 1085.01 229.164 1068.4 226.701 1042.11C224.973 1023.95 230.56 1001.71 235.486 982.047C242.728 953.263 248.941 928.377 235.156 913.673C224.385 902.13 209.387 896.285 194.131 897.608C180.824 898.748 161.267 905.732 143.806 932.383C124.985 961.167 126.823 1020.98 130.609 1060.53C116.567 1037.15 110.281 1016.71 104.51 998.037C100.245 984.105 96.2017 970.945 89.401 959.329C77.4907 939.074 57.4931 932.2 37.1647 941.279C12.1677 952.528 -7.60935 986.311 2.86733 1018.73C13.6749 1052.22 43.5977 1089.72 61.0589 1109.75C52.604 1113.5 44.9579 1120.15 38.7821 1129.31C17.9023 1160.04 29.9597 1206.58 42.017 1221.83C47.2738 1228.52 59.037 1238.12 73.0795 1244.7C73.9985 1247.16 75.4321 1250.62 77.601 1254.66C78.1891 1255.76 78.7773 1256.9 79.439 1258.08C79.5125 1258.23 79.6228 1258.41 79.6963 1258.56C80.0272 1259.11 80.358 1259.66 80.6888 1260.21C81.8284 1262.12 83.115 1264.14 84.5487 1266.17C88.8129 1272.27 94.3637 1278.78 101.532 1284.77C103.002 1286.02 104.583 1287.27 106.237 1288.48C110.538 1291.64 115.354 1294.62 120.721 1297.27C121.787 1297.82 122.89 1298.33 123.956 1298.81C124.507 1299.03 125.058 1299.29 125.61 1299.51C126.345 1299.84 127.154 1300.13 127.926 1300.46C128.661 1300.79 129.396 1301.05 130.168 1301.31C130.426 1301.38 130.683 1301.49 130.94 1301.57C131.087 1301.64 131.308 1301.68 131.492 1301.75C131.822 1301.86 131.969 1301.9 131.969 1301.9C109.252 1324.91 63.0072 1372.81 57.6402 1386.63C53.4127 1397.51 58.7062 1403.58 61.1691 1405.71C61.2427 1405.75 61.3162 1405.78 61.3897 1405.86C86.4234 1429.97 250.301 1586.97 288.642 1601.09C300.626 1605.5 316.69 1607.78 334.298 1607.78C347.017 1607.78 360.618 1606.57 374.036 1604.18C395.1 1600.46 433.22 1590.5 451.784 1566.02L436.381 1554.33ZM57.199 1209.89C49.0015 1199.56 39.6644 1162.5 54.7728 1140.23C61.0221 1131 68.6682 1125.89 76.829 1125.52C86.0191 1125.08 110.244 1135.85 110.244 1135.85C110.244 1135.85 107.23 1112.99 84.2914 1106.63C72.0502 1093.32 33.0108 1049.17 21.321 1012.78C14.1527 990.575 28.0849 966.571 45.1049 958.961C52.9348 955.432 64.0732 954.366 72.7486 969.107C78.3729 978.738 81.9387 990.281 86.0191 1003.7C94.2534 1030.46 104.436 1063.76 137.704 1103.43C144.064 1111.04 156.341 1105.3 154.651 1095.56C151.673 1078.4 147.482 1044.5 147.482 1011.93C147.482 984.215 150.533 957.454 160.018 942.97C170.457 927.016 182.846 917.973 195.785 916.871C205.159 916.062 214.349 919.701 221.04 926.869C227.62 933.891 221.812 956.939 216.739 977.268C211.408 998.442 205.416 1022.41 207.475 1043.91C210.122 1072.15 214.055 1090.12 216.702 1099.83C213.026 1101.74 209.46 1103.98 205.894 1106.26C197.77 1111.33 189.463 1116.63 177.185 1120.56C172.59 1122.03 168.472 1123.32 164.796 1124.38C143.733 1130.85 131.014 1134.71 128.146 1152.91C127.558 1156.62 128.146 1160.81 129.801 1165.15C129.47 1165 129.212 1164.78 128.882 1164.63C123.919 1162.21 118.883 1162.25 114.619 1163.27C108.957 1156 99.8777 1153.61 99.8777 1153.61C99.8777 1153.61 105.061 1166.03 106.825 1176.88C109.178 1191.25 107.23 1200.15 107.23 1200.15C107.23 1200.15 116.64 1193.75 118.809 1182.17C119.03 1182.1 119.324 1182.02 119.544 1181.99C122.007 1186.18 126.051 1198.64 124.801 1210.73C123.956 1218.75 120.978 1224.74 115.942 1228.56C99.069 1241.32 66.4626 1221.58 57.199 1209.89ZM98.297 1251.94C99.7307 1252.05 101.201 1252.12 102.635 1252.12C111.42 1252.12 119.986 1249.81 127.632 1244.07C140.13 1234.63 145.975 1218.64 144.027 1199.01C143.586 1194.59 142.446 1188.12 140.424 1181.95C141.38 1182.98 142.336 1183.97 143.365 1185C152.224 1193.64 162.554 1199.85 173.398 1203.31C163.657 1221.72 171.009 1240.95 171.009 1240.95C171.009 1240.95 177.626 1220.58 191.117 1206.43C195.454 1206.58 199.829 1206.32 204.056 1205.51C245.044 1198.09 238.685 1171.1 238.685 1171.1C238.685 1171.1 227.215 1181.65 200.601 1186.51C179.758 1190.26 162.995 1176.77 158.327 1172.54C149.504 1164.49 147.115 1157.61 147.298 1156.03C148.144 1150.56 149.1 1149.56 170.457 1143.02C174.244 1141.88 178.434 1140.59 183.103 1139.09C197.697 1134.38 207.953 1127.91 216.187 1122.73C225.782 1116.7 232.031 1112.73 241.221 1113.02C257.322 1113.61 275.187 1130.04 278.165 1160.37C279.194 1170.74 276.805 1179.93 274.232 1189.6C269.526 1207.5 264.27 1227.53 284.083 1251.79C268.056 1272.05 235.964 1304.18 183.544 1337.74C172.406 1319.32 152.886 1291.2 151.894 1289.84L149.761 1286.79L146.159 1285.94C120.721 1279.92 106.127 1264.22 98.297 1251.94Z" fill="#595653"/>
<path d="M1185.59 1766.66C1180.89 1773.6 1159.2 1802.13 1137.44 1814.08C1114.94 1826.43 1069.03 1813.09 1057.59 1807.17C1049.62 1802.24 1020.47 1754.23 1007.97 1728.24C1006.2 1724.53 1004.73 1721.26 1003.74 1718.65C1000.17 1709.24 1004.22 1663.77 1010.5 1620.94C1026.75 1628.48 1050.35 1640.13 1076.12 1655.24C1096.19 1666.96 1117.59 1680.79 1137.88 1696.37C1152.07 1739.79 1134.57 1770.33 1134.57 1770.33C1134.57 1770.33 1145.49 1763.42 1152.36 1745.23C1152.88 1744.12 1161.26 1731.92 1176.59 1738.94C1187.95 1744.09 1186.36 1761.73 1185.59 1766.66Z" fill="#56D13D"/>
<path d="M1251.91 1587.23C1231.58 1628.25 1213.06 1697.95 1204.75 1731.73C1171.81 1693.76 1126.49 1662.04 1086.42 1638.58C1051.46 1618.11 1020.54 1603.92 1005.25 1597.3C1053.85 1505.81 1143.06 1359.61 1144.72 1356.89C1143.76 1357.88 1128.07 1374.09 1106.19 1400.96C1074.18 1360.86 1052.74 1314.69 1044.95 1296.46C1044.95 1296.38 1053.63 1210.8 1120.2 1123.54C1156.08 1178.49 1200.85 1248.23 1236.4 1304.95C1236.44 1304.98 1236.44 1304.98 1236.44 1304.98C1269.7 1358.07 1294.92 1399.75 1297.27 1407.29C1302.57 1425.08 1279.04 1532.38 1251.91 1587.23Z" fill="white"/>
<path d="M1116.85 1117.1L1116.52 1117.91C1117.73 1119.75 1118.95 1121.63 1120.2 1123.54L1116.85 1117.1Z" fill="#595653"/>
<path d="M1044.95 1296.42C1042.82 1291.46 1041.72 1288.55 1041.68 1288.4L1031.61 1299.98C1031.79 1300.54 1032.64 1303.55 1034.29 1308.37L1044.95 1296.42Z" fill="#595653"/>
<path d="M1315.87 1401.78C1309.22 1379.39 1154.75 1144.45 1124.43 1098.03L1116.89 1117.1L1120.24 1123.54C1154.97 1176.77 1198.06 1243.82 1233.02 1299.51C1267.98 1355.2 1294.88 1399.53 1297.31 1407.33C1302.57 1425.12 1279.08 1532.46 1251.91 1587.27C1231.58 1628.29 1213.06 1697.99 1204.71 1731.74C1143.03 1660.64 1038.04 1611.49 1005.25 1597.3C1053.52 1506.4 1141.92 1361.52 1144.68 1357C1143.5 1358.18 1127.88 1374.32 1106.23 1400.97C1074.14 1360.86 1052.74 1314.69 1044.99 1296.46L1034.29 1308.44C1040.65 1327.04 1058.59 1373.36 1093.84 1416.52C1084.36 1428.72 1074.1 1442.54 1063.66 1457.69C1034.14 1500.48 1002.9 1559.44 983.193 1597.74C981.943 1600.17 981.796 1603.04 982.715 1605.57C983.708 1608.11 985.693 1610.17 988.193 1611.16C988.34 1611.2 989.737 1611.79 992.2 1612.82C988.193 1639.03 978.782 1707.47 985.656 1725.6C991.611 1741.26 1031.61 1815.59 1048.63 1824.37C1058.55 1829.52 1085.9 1838.63 1112.18 1838.6C1124.61 1838.6 1136.81 1836.58 1146.78 1831.06C1175.05 1815.55 1202.62 1777.54 1203.98 1773.39C1204.01 1773.27 1205.19 1768.64 1205.56 1762.03C1206.81 1762.61 1208.17 1762.95 1209.6 1762.95C1210.22 1762.95 1210.92 1762.87 1211.58 1762.76C1215.26 1761.99 1218.2 1759.12 1219.01 1755.41C1219.23 1754.34 1243.35 1648.29 1269.26 1595.91C1296.06 1541.76 1323.45 1427.51 1315.87 1401.78ZM1185.6 1766.66C1180.89 1773.61 1159.2 1802.13 1137.44 1814.08C1114.94 1826.43 1069.03 1813.05 1057.6 1807.17C1048.52 1801.54 1011.72 1739.6 1003.74 1718.69C1000.18 1709.24 1004.22 1663.77 1010.54 1620.94C1039.4 1634.32 1091.53 1660.75 1137.88 1696.34C1151.74 1738.83 1135.31 1768.94 1134.61 1770.26C1135.42 1769.75 1145.78 1762.69 1152.36 1745.19C1152.73 1744.42 1157.88 1736.74 1167.47 1736.74C1170.19 1736.74 1173.21 1737.32 1176.59 1738.9C1187.91 1744.09 1186.4 1761.7 1185.6 1766.66Z" fill="#595653"/>
<path d="M154.685 954.295C141.415 992.048 149.76 1067.08 154.649 1095.64C154.759 1096.23 154.796 1096.85 154.796 1097.4C154.796 1106 143.621 1110.6 137.665 1103.47C135.055 1100.34 132.592 1097.29 130.277 1094.24H130.24C130.24 1094.24 135.349 1117.33 115.389 1120.38C95.4278 1123.39 33.303 1019.4 30.2518 1011.53C27.6419 1004.8 25.8039 981.203 32.678 968.006C22.2014 979.035 15.9889 996.385 21.2823 1012.82C33.0089 1049.17 72.0115 1093.36 84.2527 1106.63C107.154 1112.99 110.169 1135.85 110.169 1135.85C110.169 1135.85 85.9804 1125.12 76.7904 1125.49C68.6296 1125.86 61.0202 1130.93 54.6974 1140.19C39.589 1162.43 48.9996 1199.49 57.1236 1209.85C66.3872 1221.58 99.0303 1241.32 115.903 1228.56C120.903 1224.78 123.88 1218.79 124.726 1210.73C125.976 1198.64 121.969 1186.18 119.506 1182.02C119.248 1182.06 118.991 1182.14 118.734 1182.21C116.639 1193.42 107.706 1199.78 107.154 1200.15C107.228 1199.82 109.066 1190.99 106.75 1176.92C106.309 1174.31 105.684 1171.58 105.022 1168.97C105.427 1171 105.721 1173.02 105.978 1175C109.911 1204.41 76.0552 1219.45 62.5274 1194.05C57.1236 1183.94 55.5429 1170.15 58.8514 1157.51C66.9754 1126.44 85.3187 1129.6 97.2658 1147.8C98.5157 1149.68 99.5817 1151.7 100.538 1153.87C102.706 1154.53 109.801 1157.21 114.617 1163.31C118.844 1162.32 123.88 1162.28 128.843 1164.71C129.137 1164.86 129.431 1165.04 129.725 1165.23C128.108 1160.85 127.52 1156.7 128.108 1152.95C130.975 1134.79 143.694 1130.89 164.721 1124.46C168.434 1123.32 172.514 1122.07 177.109 1120.6C180.565 1119.5 183.689 1118.28 186.63 1117.03C173.985 1106.11 139.65 1065.53 154.685 954.295Z" fill="#379E25"/>
<path d="M191.192 1272.71C191.192 1272.71 171.525 1258.45 171.268 1240.25C171.121 1240.66 171.047 1240.88 171.047 1240.88C171.047 1240.88 163.658 1221.65 173.436 1203.24C162.592 1199.78 152.263 1193.6 143.403 1184.97C142.374 1183.97 141.382 1182.94 140.463 1181.91C142.484 1188.09 143.624 1194.56 144.065 1198.97C145.977 1218.6 140.132 1234.63 127.633 1244.08C119.987 1249.81 111.385 1252.13 102.636 1252.13C101.166 1252.13 99.7321 1252.05 98.2617 1251.94C106.092 1264.26 120.722 1279.92 146.16 1285.91L149.763 1286.75L151.895 1289.81C152.851 1291.2 172.407 1319.32 183.509 1337.7C197.551 1328.73 210.123 1319.84 221.335 1311.24L191.192 1272.71Z" fill="#379E25"/>
<path d="M189.831 1175.88C156.563 1170.77 152.96 1156.55 155.35 1151.8C157.445 1147.65 162.886 1145.44 164.246 1144.93C148.917 1149.78 148.071 1151.07 147.299 1155.96C147.152 1157.5 149.542 1164.38 158.364 1172.43C162.996 1176.65 179.759 1190.18 200.602 1186.4C223.025 1182.31 234.715 1174.19 237.803 1171.73L238.649 1171.03C238.649 1171.03 248.096 1163.6 251.331 1159.63C249.824 1160.77 222.143 1180.88 189.831 1175.88Z" fill="#379E25"/>
<path d="M445.244 1452.03C434.326 1480.63 408.594 1528.31 359.96 1522.43C290.998 1514.08 190.201 1381.45 187.554 1376.93C184.908 1372.37 192.554 1354.95 192.554 1354.95C186.672 1358.66 180.533 1362.41 174.137 1366.2C142.744 1384.69 117.452 1397.48 98.9988 1404.21C95.9845 1405.31 93.1907 1406.23 90.5439 1407C165.204 1478.2 270.559 1573.85 295.372 1582.97C329.67 1595.62 412.27 1586.24 436.385 1554.37C443.884 1518.79 446.053 1484.27 445.244 1452.03Z" fill="#C1BFBF"/>
<path d="M1185.59 1766.66C1180.88 1773.61 1159.2 1802.13 1137.43 1814.08C1114.94 1826.43 1069.02 1813.09 1057.59 1807.17C1049.61 1802.24 1020.46 1754.23 1007.96 1728.24C1025.13 1754.34 1055.94 1774.42 1074.46 1752.18C1092.99 1729.94 1076.15 1655.24 1076.15 1655.24C1096.23 1666.96 1117.62 1680.79 1137.91 1696.37C1152.1 1739.79 1134.6 1770.33 1134.6 1770.33C1134.6 1770.33 1145.52 1763.42 1152.39 1745.23C1152.91 1744.12 1161.29 1731.92 1176.62 1738.94C1187.94 1744.09 1186.36 1761.73 1185.59 1766.66Z" fill="#379E25"/>
<path d="M1251.9 1587.23C1231.58 1628.26 1213.05 1697.96 1204.74 1731.74C1171.8 1693.76 1126.48 1662.04 1086.41 1638.59C1113.5 1634.88 1160.15 1616.02 1208.05 1538.75C1268.34 1441.55 1246.76 1339.84 1236.46 1304.99C1269.73 1358.07 1294.95 1399.76 1297.3 1407.29C1302.56 1425.08 1279.03 1532.39 1251.9 1587.23Z" fill="#C1BFBF"/>
<path d="M361.317 1064.46C326.762 1085.82 353.891 1133.97 353.891 1133.97L356.501 1105.49C357.42 1095.23 362.934 1086.08 371.646 1080.45C413.957 1053.1 476.891 1002.96 492.882 990.095C485.603 987.89 478.398 985.61 471.193 983.258C447.336 1002.56 396.68 1042.59 361.317 1064.46Z" fill="#595653"/>
<path d="M1121.93 1118.61C1119.06 1127.69 1115.49 1133.97 1115.49 1133.97L1113.1 1107.87L1112.88 1105.45C1111.96 1095.19 1106.45 1086.04 1097.74 1080.41C1055.43 1053.07 992.493 1002.92 976.502 990.058C983.78 987.852 990.985 985.573 998.19 983.221C1022.05 1002.52 1072.67 1042.59 1108.07 1064.46C1130.12 1078.1 1127.07 1102.65 1121.93 1118.61Z" fill="#595653"/>
<path d="M289.34 1217.64C288.789 1210.25 290.7 1202.9 292.943 1194.48C295.7 1184.08 298.788 1172.28 297.391 1158.46C293.751 1121.29 270.923 1094.68 241.846 1093.65C239.493 1093.58 237.251 1093.65 235.119 1093.87C232.766 1085.05 229.164 1068.43 226.701 1042.15C224.973 1023.99 230.56 1001.75 235.486 982.082C242.728 953.298 248.941 928.412 235.156 913.708C224.385 902.165 209.387 896.32 194.131 897.643C180.824 898.783 161.267 905.767 143.806 932.419C124.985 961.202 126.823 1021.01 130.609 1060.56C116.567 1037.19 110.281 1016.75 104.509 998.073C100.245 984.14 96.2017 970.98 89.401 959.364C77.4907 939.109 57.4931 932.235 37.1647 941.315C12.1677 952.563 -7.60935 986.346 2.86733 1018.77C13.6749 1052.26 43.5977 1089.75 61.0588 1109.79C52.604 1113.54 44.9578 1120.19 38.7821 1129.34C17.9023 1160.08 29.9597 1206.61 42.017 1221.87C47.2737 1228.56 59.037 1238.15 73.0795 1244.73C73.9985 1247.2 75.4321 1250.65 77.601 1254.7C78.1891 1255.8 78.7773 1256.94 79.439 1258.11C79.5125 1258.26 79.6228 1258.45 79.6963 1258.59C80.0272 1259.14 80.358 1259.7 80.6888 1260.25C81.8284 1262.16 83.115 1264.18 84.5487 1266.2C88.8129 1272.3 94.3637 1278.81 101.532 1284.8C103.002 1286.05 104.583 1287.3 106.237 1288.52C110.538 1291.68 115.354 1294.65 120.721 1297.3C121.787 1297.85 122.89 1298.37 123.956 1298.85C124.507 1299.07 125.058 1299.32 125.61 1299.54C126.345 1299.87 127.154 1300.17 127.926 1300.5C128.661 1300.83 129.396 1301.09 130.168 1301.34C130.425 1301.42 130.683 1301.53 130.94 1301.6C131.087 1301.68 131.308 1301.71 131.492 1301.79C131.822 1301.9 131.969 1301.93 131.969 1301.93L164.355 1351.71C164.355 1351.71 246.22 1304.91 297.427 1238.93C297.427 1238.89 283.385 1230.69 289.34 1217.64ZM57.199 1209.89C49.0015 1199.56 39.6644 1162.5 54.7728 1140.22C61.0221 1131 68.6682 1125.89 76.829 1125.52C86.0191 1125.08 110.244 1135.85 110.244 1135.85C110.244 1135.85 107.23 1112.99 84.2913 1106.63C72.0502 1093.32 33.0108 1049.17 21.321 1012.78C14.1527 990.573 28.0849 966.569 45.1049 958.96C52.9348 955.431 64.0732 954.365 72.7486 969.105C78.3729 978.737 81.9387 990.279 86.0191 1003.7C94.2534 1030.46 104.436 1063.76 137.704 1103.43C144.064 1111.04 156.341 1105.3 154.651 1095.56C151.673 1078.39 147.482 1044.5 147.482 1011.93C147.482 984.214 150.533 957.452 160.018 942.969C170.457 927.015 182.846 917.972 195.785 916.869C205.159 916.06 214.349 919.7 221.04 926.868C227.62 933.889 221.812 956.938 216.739 977.266C211.408 998.44 205.416 1022.41 207.475 1043.91C210.122 1072.14 214.055 1090.12 216.702 1099.82C213.026 1101.74 209.46 1103.98 205.894 1106.26C197.77 1111.33 189.462 1116.62 177.185 1120.56C172.59 1122.03 168.472 1123.31 164.796 1124.38C143.733 1130.85 131.014 1134.71 128.146 1152.91C127.558 1156.62 128.146 1160.81 129.801 1165.15C129.47 1165 129.212 1164.78 128.882 1164.63C123.919 1162.21 118.883 1162.24 114.619 1163.27C108.957 1155.99 99.8777 1153.61 99.8777 1153.61C99.8777 1153.61 105.061 1166.03 106.825 1176.87C109.178 1191.25 107.23 1200.14 107.23 1200.14C107.23 1200.14 116.64 1193.75 118.809 1182.17C119.03 1182.09 119.324 1182.02 119.544 1181.98C122.007 1186.17 126.051 1198.64 124.801 1210.73C123.956 1218.74 120.978 1224.74 115.942 1228.56C99.069 1241.32 66.4626 1221.57 57.199 1209.89ZM183.544 1337.7C172.406 1319.28 152.886 1291.16 151.893 1289.8L149.761 1286.75L146.159 1285.91C120.721 1279.91 106.09 1264.25 98.2602 1251.94C99.6939 1252.05 101.164 1252.12 102.598 1252.12C111.384 1252.12 119.949 1249.81 127.595 1244.07C140.093 1234.62 145.938 1218.63 143.99 1199C143.549 1194.59 142.409 1188.12 140.388 1181.95C141.343 1182.98 142.299 1183.97 143.328 1185C152.188 1193.64 162.517 1199.85 173.361 1203.31C163.62 1221.72 170.972 1240.95 170.972 1240.95C170.972 1240.95 177.589 1220.58 191.08 1206.43C195.418 1206.58 199.792 1206.32 204.02 1205.51C245.007 1198.09 238.648 1171.1 238.648 1171.1C238.648 1171.1 227.179 1181.65 200.564 1186.51C179.721 1190.26 162.958 1176.76 158.29 1172.54C149.467 1164.49 147.078 1157.61 147.262 1156.03C148.107 1150.55 149.063 1149.56 170.421 1143.02C174.207 1141.88 178.398 1140.59 183.066 1139.08C197.66 1134.38 207.916 1127.91 216.15 1122.73C225.745 1116.7 231.994 1112.73 241.184 1113.02C257.285 1113.61 275.151 1130.04 278.128 1160.37C279.158 1170.74 276.768 1179.93 274.195 1189.59C269.49 1207.5 264.233 1227.53 284.047 1251.79C268.056 1271.97 235.964 1304.14 183.544 1337.7Z" fill="#204712"/>
<path d="M992.157 1612.78C988.15 1638.99 978.739 1707.44 985.614 1725.56C991.569 1741.22 1031.56 1815.55 1048.58 1824.33C1058.51 1829.48 1085.86 1838.6 1112.14 1838.56C1124.57 1838.56 1136.77 1836.54 1146.73 1831.02C1175 1815.51 1202.57 1777.5 1203.93 1773.35C1203.97 1773.24 1205.15 1768.6 1205.51 1761.99C1131.74 1666.26 992.157 1612.78 992.157 1612.78ZM1185.59 1766.66C1180.88 1773.6 1159.2 1802.13 1137.43 1814.08C1114.94 1826.43 1069.02 1813.05 1057.59 1807.17C1048.51 1801.54 1011.71 1739.6 1003.74 1718.68C1000.17 1709.24 1004.21 1663.76 1010.54 1620.94C1039.39 1634.32 1091.52 1660.75 1137.87 1696.33C1151.73 1738.83 1135.3 1768.93 1134.6 1770.26C1135.41 1769.74 1145.78 1762.69 1152.36 1745.19C1152.73 1744.42 1157.87 1736.73 1167.47 1736.73C1170.19 1736.73 1173.2 1737.32 1176.58 1738.9C1187.91 1744.09 1186.4 1761.69 1185.59 1766.66Z" fill="#204712"/>
<path d="M734.726 1007.41C1460.7 1007.41 1196.29 490.155 1196.29 490.155C1196.29 490.155 1221.51 112.076 734.726 232.466C247.946 112.076 273.164 490.155 273.164 490.155C273.164 490.155 8.74693 1007.41 734.726 1007.41Z" fill="#56D13D"/>
<path d="M734.726 966.2C334.039 966.2 235.081 808.645 226.809 667.412C218.465 817.137 294.485 1007.37 734.726 1007.37C1174.97 1007.37 1250.99 817.137 1242.64 667.412C1234.37 808.645 1135.38 966.2 734.726 966.2Z" fill="#379E25"/>
<path d="M405.799 345.534C355.143 367.186 323.53 419.532 331.764 474.011C338.712 520.072 374.479 569.147 492.848 574.624C721.423 585.174 717.857 464.453 679.185 390.859C648.307 332.043 503.398 303.848 405.799 345.534Z" fill="white"/>
<path d="M531.63 553.452C582.811 553.452 624.302 510.892 624.302 458.39C624.302 405.889 582.811 363.328 531.63 363.328C480.448 363.328 438.957 405.889 438.957 458.39C438.957 510.892 480.448 553.452 531.63 553.452Z" fill="#1E300C"/>
<path d="M554.57 491.214C575.664 491.214 592.764 471.25 592.764 446.623C592.764 421.997 575.664 402.033 554.57 402.033C533.476 402.033 516.376 421.997 516.376 446.623C516.376 471.25 533.476 491.214 554.57 491.214Z" fill="white"/>
<path opacity="0.35" d="M509.535 517.542C519.697 508.967 518.754 491.135 507.429 477.715C496.104 464.294 478.685 460.367 468.522 468.943C458.36 477.519 459.303 495.35 470.628 508.77C481.954 522.191 499.373 526.118 509.535 517.542Z" fill="white"/>
<path opacity="0.15" d="M330.7 464.124C330.7 464.124 521.854 318.37 698.193 479.784C698.193 479.784 694.186 456.515 690.694 433.87C690.694 433.87 525.309 279.698 332.428 435.635L330.7 464.124Z" fill="#1E1E1E"/>
<path d="M405.799 345.534C355.143 367.186 323.53 419.532 331.764 474.011C338.712 520.072 374.479 569.147 492.848 574.624C721.423 585.174 717.857 464.453 679.185 390.859C648.307 332.043 503.398 303.848 405.799 345.534Z" stroke="#204712" stroke-width="19.5811" stroke-miterlimit="10" stroke-linecap="round" stroke-linejoin="round"/>
<path d="M704.875 426.775C704.838 430.966 702.081 434.09 698.662 435.193C696.126 435.965 693.221 435.671 690.722 433.833C522.874 309.767 380.612 393.287 337.051 425.305C336.867 425.415 336.684 425.562 336.5 425.672C330.324 429.642 322.2 424.606 322.935 417.107C329.956 348.035 423.952 270.912 574.67 295.872C692.413 315.318 705.242 392.257 704.875 426.775Z" fill="#46C130"/>
<path d="M698.667 435.197C696.131 435.969 693.227 435.675 690.727 433.837C522.88 309.771 380.617 393.29 337.056 425.309C336.873 425.419 336.689 425.566 336.505 425.676C331.064 422.405 328.087 420.456 328.087 420.456C328.087 420.456 381.536 332.526 514.866 332.268C637.755 331.974 692.565 407.701 698.667 435.197Z" fill="#379E25"/>
<path d="M337.017 425.306C380.578 393.288 522.84 309.768 690.687 433.834C696.569 438.172 704.803 434.055 704.877 426.776C705.244 392.258 692.415 315.319 574.635 295.799C423.918 270.839 329.922 347.962 322.937 417.072C322.165 424.828 330.731 429.901 337.017 425.306Z" stroke="#204712" stroke-width="19.5811" stroke-miterlimit="10" stroke-linecap="round" stroke-linejoin="round"/>
<path d="M343.746 511.252C343.746 511.252 464.614 591.5 668.523 539.778C668.707 539.741 649.628 608.115 498.617 597.859C347.937 587.64 343.746 511.252 343.746 511.252Z" fill="#46C130"/>
<path d="M343.746 511.252C343.746 511.252 464.614 591.5 668.523 539.778C668.707 539.741 649.628 608.115 498.617 597.859C347.937 587.64 343.746 511.252 343.746 511.252Z" stroke="#204712" stroke-width="19.5811" stroke-miterlimit="10" stroke-linecap="round" stroke-linejoin="round"/>
<path d="M669.919 576.427C649.149 604.696 616.727 622.01 583.679 631.825C580.297 632.67 571.181 634.766 567.689 635.611C549.933 638.846 531.369 640.023 513.394 638.662C509.276 638.405 509.203 632.303 513.357 632.009C530.671 629.987 548.132 627.745 565.079 623.701C588.568 617.93 611.47 609.328 632.57 597.454C644.665 590.727 656.465 583.044 667.199 574.111C668.632 572.604 671.206 574.699 669.919 576.427Z" fill="#204712"/>
<path d="M1063.61 345.534C1114.27 367.186 1145.88 419.532 1137.65 474.011C1130.7 520.072 1094.93 569.147 976.566 574.624C747.99 585.174 751.556 464.453 790.228 390.859C821.106 332.043 966.052 303.848 1063.61 345.534Z" fill="white"/>
<path d="M937.786 553.452C988.968 553.452 1030.46 510.892 1030.46 458.39C1030.46 405.889 988.968 363.328 937.786 363.328C886.604 363.328 845.113 405.889 845.113 458.39C845.113 510.892 886.604 553.452 937.786 553.452Z" fill="#1E300C"/>
<path d="M914.847 491.214C935.941 491.214 953.041 471.25 953.041 446.623C953.041 421.997 935.941 402.033 914.847 402.033C893.753 402.033 876.653 421.997 876.653 446.623C876.653 471.25 893.753 491.214 914.847 491.214Z" fill="white"/>
<path opacity="0.35" d="M998.694 508.781C1010.02 495.361 1010.96 477.53 1000.8 468.954C990.637 460.378 973.218 464.305 961.893 477.726C950.568 491.146 949.625 508.977 959.787 517.553C969.949 526.129 987.368 522.202 998.694 508.781Z" fill="white"/>
<path opacity="0.15" d="M1138.71 464.124C1138.71 464.124 947.558 318.37 771.219 479.784C771.219 479.784 775.226 456.515 778.718 433.87C778.718 433.87 944.102 279.698 1136.98 435.635L1138.71 464.124Z" fill="#1E1E1E"/>
<path d="M1063.61 345.534C1114.27 367.186 1145.88 419.532 1137.65 474.011C1130.7 520.072 1094.93 569.147 976.566 574.624C747.99 585.174 751.556 464.453 790.228 390.859C821.106 332.043 966.052 303.848 1063.61 345.534Z" stroke="#204712" stroke-width="19.5811" stroke-miterlimit="10" stroke-linecap="round" stroke-linejoin="round"/>
<path d="M764.536 426.775C764.573 430.966 767.33 434.09 770.748 435.193C773.285 435.965 776.189 435.671 778.688 433.833C946.536 309.767 1088.8 393.287 1132.36 425.305C1132.54 425.415 1132.73 425.562 1132.91 425.672C1139.09 429.642 1147.21 424.606 1146.48 417.107C1139.45 348.035 1045.46 270.912 894.741 295.872C776.997 315.318 764.168 392.257 764.536 426.775Z" fill="#46C130"/>
<path d="M770.746 435.197C773.283 435.969 776.187 435.675 778.686 433.837C946.534 309.771 1088.8 393.29 1132.36 425.309C1132.54 425.419 1132.72 425.566 1132.91 425.676C1138.35 422.405 1141.33 420.456 1141.33 420.456C1141.33 420.456 1087.88 332.526 954.548 332.268C831.658 331.974 776.885 407.701 770.746 435.197Z" fill="#379E25"/>
<path d="M1132.4 425.306C1088.83 393.288 946.573 309.768 778.725 433.834C772.844 438.172 764.609 434.055 764.536 426.776C764.168 392.258 776.998 315.319 894.777 295.799C1045.49 270.839 1139.49 347.962 1146.48 417.072C1147.25 424.828 1138.68 429.901 1132.4 425.306Z" stroke="#204712" stroke-width="19.5811" stroke-miterlimit="10" stroke-linecap="round" stroke-linejoin="round"/>
<path d="M1125.67 511.252C1125.67 511.252 1004.8 591.5 800.894 539.778C800.71 539.741 819.789 608.115 970.8 597.859C1121.48 587.64 1125.67 511.252 1125.67 511.252Z" fill="#46C130"/>
<path d="M1125.67 511.252C1125.67 511.252 1004.8 591.5 800.894 539.778C800.71 539.741 819.789 608.115 970.8 597.859C1121.48 587.64 1125.67 511.252 1125.67 511.252Z" stroke="#204712" stroke-width="19.5811" stroke-miterlimit="10" stroke-linecap="round" stroke-linejoin="round"/>
<path d="M802.249 574.11C846.251 609.032 900.84 626.163 956.091 632.008C960.134 632.375 960.134 638.367 956.054 638.661C912.493 642.631 867.021 632.008 830.922 606.974C818.938 598.519 807.837 588.704 799.529 576.389C798.352 574.698 800.742 572.64 802.249 574.11Z" fill="#204712"/>
<path d="M1120.12 690.465C1118.91 693.295 1115.89 699.177 1114.57 702.081C1114.53 702.155 1114.5 702.228 1114.46 702.302C1042.04 833.058 869.158 846.292 734.726 848.093C718.698 847.578 694.547 847.762 678.776 846.77C655.838 845.593 632.495 843.829 609.667 841.035C600.146 840.226 578.715 836.403 568.863 834.896C490.932 820.082 409.912 787.732 365.432 719.064C362.785 715.535 360.874 711.602 358.668 707.816L355.36 702.118C355.36 702.118 355.323 702.081 355.286 701.971L352.529 696.199C350.728 692.009 346.905 686.348 348.081 681.679C348.743 676.239 353.852 671.533 359.219 670.504C360.984 670.283 362.675 670.247 364.439 670.725C365.469 670.872 366.167 671.46 367.27 671.717C392.046 682.782 417.264 693.516 442.408 703.809C535.706 740.128 633.635 769.316 734.762 769.977C835.816 768.985 934.371 742.15 1027.67 705.389C1050.5 695.942 1073.43 686.201 1095.86 675.614C1098.17 674.584 1104.2 671.68 1106.48 671.202C1111.22 670.247 1116.74 672.452 1119.57 676.68C1120.67 678.113 1121.48 679.841 1121.81 681.606C1122.55 684.473 1121.37 687.818 1120.12 690.465Z" fill="white"/>
<path d="M1120.12 690.465C1118.91 693.295 1115.89 699.177 1114.57 702.081C1114.53 702.081 1114.5 702.118 1114.46 702.118C699.252 906.211 355.36 702.118 355.36 702.118C355.36 702.118 355.323 702.081 355.286 701.971L352.529 696.199C350.728 692.009 346.905 686.348 348.081 681.679C348.743 676.239 353.852 671.533 359.219 670.504C360.984 670.283 362.675 670.247 364.439 670.725C365.469 670.872 366.167 671.46 367.27 671.717C392.046 682.782 417.264 693.516 442.408 703.809C535.706 740.128 633.635 769.316 734.762 769.977C835.816 768.985 934.371 742.15 1027.67 705.389C1050.5 695.942 1073.43 686.201 1095.86 675.614C1098.17 674.584 1104.2 671.68 1106.48 671.202C1111.22 670.247 1116.74 672.452 1119.57 676.68C1120.67 678.113 1121.48 679.841 1121.81 681.606C1122.55 684.473 1121.37 687.818 1120.12 690.465Z" fill="#C1BFBF"/>
<path d="M1100.78 625.401C1092.77 626.173 1084.42 629.482 1077.03 632.386C1064.02 637.275 1050.24 642.826 1037.04 647.09C1011.27 655.986 981.936 664.367 955.469 670.727C880.882 688.188 804.274 700.429 727.849 700.319C655.689 698.444 584.006 688.555 513.463 672.271C477.254 663.742 439.648 652.42 405.13 638.598C401.087 636.981 389.029 632.165 385.317 630.695C367.378 622.902 345.321 624.519 329.22 635.841C305.878 651.023 296.651 682.6 308.341 707.854C309.885 711.42 313.34 718.846 314.847 722.412C318.486 728.955 322.199 737.042 326.316 743.365L334.808 756.819C338.852 762.002 344.77 770.751 349.108 775.935C354.365 781.706 359.401 788.323 364.915 793.8C369.694 798.175 376.935 806.041 381.935 810.416C478.798 894.523 610.326 918.932 734.613 919.961C751.89 919.263 777.843 919.189 794.789 917.719C896.91 909.999 1001.09 882.797 1081.23 815.489C1088.47 809.717 1097.66 800.527 1104.42 793.874C1109.71 788.286 1115.08 781.89 1120.15 775.971C1123.94 771.56 1130.52 761.598 1134.38 756.782C1139.34 749.063 1146.48 737.373 1150.45 729.286L1154.05 722.191L1157.21 714.912L1160.44 707.634L1161.25 705.796C1161.99 703.186 1163.38 700.208 1163.9 697.562C1174.12 659.257 1139.93 620.733 1100.78 625.401ZM1120.12 690.467C1118.87 693.371 1115.74 699.473 1114.46 702.34C1042.04 833.097 869.155 846.33 734.723 848.132C718.696 847.617 694.544 847.801 678.774 846.808C655.836 845.632 632.493 843.868 609.665 841.074C600.144 840.265 578.712 836.442 568.861 834.935C490.929 820.12 409.909 787.771 365.429 719.103C362.783 715.574 360.871 711.641 358.665 707.854L355.357 702.12L352.526 696.201C350.725 692.011 346.902 686.35 348.079 681.681C348.74 676.241 353.85 671.535 359.217 670.506C360.981 670.285 362.672 670.249 364.437 670.727C365.466 670.874 366.165 671.462 367.267 671.719C392.044 682.784 417.261 693.518 442.405 703.811C535.703 740.13 633.632 769.318 734.76 769.979C835.814 768.987 934.368 742.152 1027.67 705.392C1050.49 695.944 1073.43 686.203 1095.86 675.616C1098.17 674.586 1104.2 671.682 1106.48 671.204C1111.22 670.249 1116.74 672.454 1119.57 676.682C1120.67 678.115 1121.48 679.843 1121.81 681.608C1122.54 684.475 1121.37 687.82 1120.12 690.467Z" fill="#FB4E0A"/>
<path d="M734.941 805.267V761.559" stroke="#4C3A27" stroke-width="7.83251" stroke-miterlimit="10" stroke-linecap="round" stroke-linejoin="round"/>
<path d="M650.615 801.705V754.432" stroke="#4C3A27" stroke-width="7.83251" stroke-miterlimit="10" stroke-linecap="round" stroke-linejoin="round"/>
<path d="M571.286 791.481V731.268" stroke="#4C3A27" stroke-width="7.83251" stroke-miterlimit="10" stroke-linecap="round" stroke-linejoin="round"/>
<path d="M492.841 773.877V723.516" stroke="#4C3A27" stroke-width="7.83251" stroke-miterlimit="10" stroke-linecap="round" stroke-linejoin="round"/>
<path d="M418.695 748.694V693.848" stroke="#4C3A27" stroke-width="7.83251" stroke-miterlimit="10" stroke-linecap="round" stroke-linejoin="round"/>
<path d="M818.83 801.705V754.432" stroke="#4C3A27" stroke-width="7.83251" stroke-miterlimit="10" stroke-linecap="round" stroke-linejoin="round"/>
<path d="M898.158 791.481V731.268" stroke="#4C3A27" stroke-width="7.83251" stroke-miterlimit="10" stroke-linecap="round" stroke-linejoin="round"/>
<path d="M976.568 773.877V723.516" stroke="#4C3A27" stroke-width="7.83251" stroke-miterlimit="10" stroke-linecap="round" stroke-linejoin="round"/>
<path d="M1050.75 748.694V693.848" stroke="#4C3A27" stroke-width="7.83251" stroke-miterlimit="10" stroke-linecap="round" stroke-linejoin="round"/>
<path d="M734.941 847.175V803.504" stroke="#4C3A27" stroke-width="7.83251" stroke-miterlimit="10" stroke-linecap="round" stroke-linejoin="round"/>
<path d="M650.615 843.649V796.375" stroke="#4C3A27" stroke-width="7.83251" stroke-miterlimit="10" stroke-linecap="round" stroke-linejoin="round"/>
<path d="M571.286 833.426V773.213" stroke="#4C3A27" stroke-width="7.83251" stroke-miterlimit="10" stroke-linecap="round" stroke-linejoin="round"/>
<path d="M492.841 815.819V765.457" stroke="#4C3A27" stroke-width="7.83251" stroke-miterlimit="10" stroke-linecap="round" stroke-linejoin="round"/>
<path d="M418.695 781.339V735.793" stroke="#4C3A27" stroke-width="7.83251" stroke-miterlimit="10" stroke-linecap="round" stroke-linejoin="round"/>
<path d="M818.83 843.649V796.375" stroke="#4C3A27" stroke-width="7.83251" stroke-miterlimit="10" stroke-linecap="round" stroke-linejoin="round"/>
<path d="M898.158 833.426V773.213" stroke="#4C3A27" stroke-width="7.83251" stroke-miterlimit="10" stroke-linecap="round" stroke-linejoin="round"/>
<path d="M976.568 815.819V765.457" stroke="#4C3A27" stroke-width="7.83251" stroke-miterlimit="10" stroke-linecap="round" stroke-linejoin="round"/>
<path d="M1050.75 774.759V735.793" stroke="#4C3A27" stroke-width="7.83251" stroke-miterlimit="10" stroke-linecap="round" stroke-linejoin="round"/>
<path d="M1100.49 725.057C1100.49 725.057 970.467 805.268 734.944 805.268C499.42 805.268 369.399 725.057 369.399 725.057" stroke="#4C3A27" stroke-width="7.83251" stroke-miterlimit="10" stroke-linecap="round" stroke-linejoin="round"/>
<path d="M1164.05 671.456C1163.49 674.066 1162.13 677.044 1161.4 679.691L1160.59 681.529L1157.36 688.807L1154.19 696.086L1150.59 703.18C1146.62 711.231 1139.53 722.957 1134.53 730.677C1130.7 735.493 1124.12 745.455 1120.3 749.866C1115.23 755.784 1109.86 762.181 1104.57 767.768C1097.84 774.422 1088.61 783.612 1081.37 789.383C1001.23 856.655 897.056 883.894 794.936 891.614C777.99 893.047 752 893.158 734.759 893.856C610.473 892.827 478.908 868.455 382.081 784.31C377.082 779.973 369.84 772.106 365.061 767.695C359.547 762.217 354.474 755.601 349.254 749.829C344.917 744.646 338.998 735.897 334.955 730.714L326.463 717.26C322.346 710.937 318.633 702.85 314.994 696.306C313.523 692.74 310.031 685.315 308.487 681.749C306.943 678.404 305.767 674.948 304.958 671.456C302.201 683.477 303.157 696.306 308.487 707.886C310.031 711.451 313.487 718.877 314.994 722.443C318.633 728.986 322.346 737.073 326.463 743.396L334.955 756.85C338.998 762.034 344.917 770.783 349.254 775.966C354.511 781.737 359.547 788.354 365.061 793.831C369.84 798.206 377.082 806.072 382.081 810.447C478.945 894.554 610.473 918.963 734.759 919.993C752.037 919.294 777.99 919.221 794.936 917.75C897.056 910.03 1001.23 882.828 1081.37 815.52C1088.61 809.748 1097.8 800.558 1104.57 793.905C1109.86 788.317 1115.23 781.921 1120.3 776.003C1124.09 771.591 1130.67 761.629 1134.53 756.814C1139.49 749.094 1146.62 737.404 1150.59 729.317L1154.19 722.222L1157.36 714.944L1160.59 707.665L1161.4 705.827C1162.13 703.217 1163.53 700.24 1164.05 697.593C1166.44 688.44 1166.29 679.323 1164.19 670.758C1164.16 670.978 1164.12 671.236 1164.05 671.456Z" fill="#D13100"/>
<path d="M1121.73 655.543C1121.4 653.778 1120.59 652.051 1119.49 650.617C1116.66 646.39 1111.15 644.184 1106.41 645.14C1104.13 645.654 1098.1 648.558 1095.78 649.551C1073.39 660.138 1050.42 669.879 1027.59 679.327C934.294 716.05 835.739 742.922 734.685 743.915C633.558 743.253 535.628 714.028 442.331 677.746C417.187 667.49 391.969 656.756 367.193 645.654C366.09 645.434 365.392 644.846 364.362 644.662C362.598 644.147 360.907 644.184 359.142 644.441C353.775 645.47 348.702 650.176 348.004 655.616C346.828 660.285 350.651 665.946 352.452 670.137L353.775 672.894C355.393 671.754 357.231 670.945 359.106 670.578C360.87 670.357 362.561 670.32 364.326 670.798C365.355 670.945 366.053 671.534 367.156 671.791C391.932 682.856 417.15 693.59 442.294 703.883C535.592 740.202 633.521 769.389 734.649 770.051C835.703 769.059 934.257 742.224 1027.55 705.463C1050.38 696.016 1073.32 686.274 1095.74 675.687C1098.06 674.658 1104.09 671.754 1106.37 671.276C1109.53 670.651 1112.99 671.423 1115.82 673.261C1117.29 670.247 1119.16 666.497 1120.08 664.365C1121.37 661.682 1122.54 658.337 1121.73 655.543Z" fill="#D13100"/>
<path d="M734.72 848.13C869.116 846.329 1042.04 833.095 1114.45 702.302C1115.78 699.471 1118.9 693.369 1120.15 690.465C1121.36 687.781 1122.58 684.473 1121.73 681.642C1121.44 679.915 1120.63 678.15 1119.53 676.717C1116.7 672.489 1111.18 670.284 1106.44 671.239C1104.16 671.754 1098.13 674.621 1095.82 675.651C1073.43 686.237 1050.49 695.979 1027.63 705.426C934.328 742.187 835.774 769.022 734.72 770.014C633.629 769.352 535.663 740.165 442.402 703.846C417.258 693.59 392.004 682.856 367.228 671.791C366.125 671.57 365.426 670.945 364.397 670.798C362.633 670.283 360.942 670.32 359.177 670.541C353.81 671.57 348.737 676.275 348.076 681.716C346.899 686.385 350.759 692.046 352.523 696.236L355.317 702.155L358.552 707.853C360.795 711.602 362.669 715.572 365.316 719.101C409.833 787.806 490.852 820.118 568.747 834.97C578.599 836.514 600.03 840.3 609.588 841.109C632.416 843.902 655.759 845.63 678.734 846.843C694.541 847.799 718.693 847.615 734.72 848.13ZM734.72 919.959C610.434 918.967 478.869 894.558 382.042 810.45C377.006 806.076 369.764 798.209 364.985 793.835C359.471 788.358 354.435 781.704 349.178 776.006C344.804 770.823 338.922 762.074 334.879 756.891L326.387 743.4C322.27 737.114 318.557 729.026 314.918 722.446C313.447 718.917 309.955 711.455 308.448 707.889C296.758 682.598 305.948 651.058 329.328 635.876C345.429 624.554 367.485 622.936 385.424 630.729C389.173 632.237 401.231 637.052 405.238 638.633C439.756 652.455 477.361 663.814 513.57 672.342C584.077 688.627 655.759 698.479 727.919 700.353C804.344 700.39 880.916 688.223 955.539 670.725C982.007 664.365 1011.38 655.947 1037.15 647.051C1050.34 642.824 1064.13 637.273 1077.14 632.384C1084.49 629.48 1092.84 626.208 1100.85 625.399C1140.04 620.694 1174.19 659.219 1164.12 697.56C1163.57 700.206 1162.21 703.147 1161.47 705.794L1160.66 707.669L1157.43 714.91L1154.27 722.226L1150.63 729.284C1146.69 737.371 1139.56 749.061 1134.6 756.78C1130.74 761.596 1124.2 771.558 1120.41 775.969C1115.3 781.888 1109.93 788.247 1104.64 793.872C1097.91 800.525 1088.72 809.715 1081.44 815.487C1001.34 882.758 897.164 909.997 795.044 917.717C777.95 919.187 751.961 919.261 734.72 919.959Z" stroke="#4C3A27" stroke-width="19.5811" stroke-miterlimit="10" stroke-linecap="round" stroke-linejoin="round"/>
<path d="M283.383 461.668C281.031 485.782 283.788 509.787 288.015 533.644C288.309 535.813 286.765 537.798 284.596 538.092C283.163 538.276 281.803 537.688 280.994 536.622C274.561 528.645 270.333 519.197 267.54 509.419C264.011 496.369 262.246 482.768 262.945 469.24C263.165 465.785 263.349 462.587 264.011 458.727C264.93 453.397 270.003 449.831 275.333 450.75C280.553 451.706 284.008 456.558 283.383 461.668Z" fill="#204712"/>
<path d="M1205.41 458.765C1208.79 485.416 1204.97 514.788 1188.42 536.623C1185.92 539.858 1180.59 537.359 1181.44 533.388C1185.7 509.421 1188.39 485.306 1186 461.081C1185.41 448.84 1203.05 446.744 1205.41 458.765Z" fill="#204712"/>
<path d="M734.726 1007.41C1460.7 1007.41 1196.29 490.155 1196.29 490.155C1196.29 490.155 1221.51 112.076 734.726 232.466C247.946 112.076 273.164 490.155 273.164 490.155C273.164 490.155 8.74693 1007.41 734.726 1007.41Z" stroke="#204712" stroke-width="19.5811" stroke-miterlimit="10" stroke-linecap="round" stroke-linejoin="round"/>
<path d="M1287.9 539.786C1287.9 539.786 1278.41 498.026 1251.39 447.26C1217.87 384.143 1157.25 307.057 1054.25 278.935C930.33 245.152 829.607 260.187 776.231 273.972C762.593 277.465 748.66 279.229 734.728 279.229C720.759 279.229 706.791 277.465 693.189 273.972C639.813 260.187 539.127 245.152 415.208 278.935C229.348 329.664 181.523 539.786 181.523 539.786C181.523 539.786 180.126 467.736 227.289 386.973C287.393 284.045 426.42 167 747.778 167C1118.76 167 1235.77 323.011 1272.13 433.181C1292.05 493.284 1287.9 539.786 1287.9 539.786Z" fill="white"/>
<path d="M1242.17 386.973C1109.65 210.781 880.593 214.531 838.834 222.177C782.591 232.47 734.729 239.344 734.729 239.344C734.729 239.344 686.867 232.506 630.624 222.177C588.864 214.531 359.811 210.781 227.29 386.973C180.09 467.735 181.523 539.786 181.523 539.786C181.523 539.786 229.348 329.627 415.208 278.935C539.127 245.152 639.814 260.187 693.19 273.972C706.828 277.464 720.76 279.229 734.729 279.229C748.698 279.229 762.666 277.464 776.268 273.972C829.644 260.187 930.33 245.152 1054.25 278.935C1240.11 329.664 1287.93 539.786 1287.93 539.786C1287.93 539.786 1289.33 467.699 1242.17 386.973Z" fill="#C1BFBF"/>
<path d="M1287.89 539.784C1287.89 539.784 1278.41 498.024 1251.39 447.258L1220.25 365.871C1220.25 365.871 1222.13 365.981 1225.47 366.312C1231.21 372.929 1236.76 379.766 1242.16 386.971C1252.86 401.198 1262.93 416.527 1272.16 433.179C1292.05 493.282 1287.89 539.784 1287.89 539.784Z" fill="#C1BFBF"/>
<path d="M1314.95 774.535C1310.06 584.852 1258.85 334.845 1044.03 286.322C957.751 265.368 866.034 261.95 779.574 283.454C750.386 291.211 718.809 291.284 689.658 283.381C635.4 268.53 579.304 259.193 523.208 263.824C367.381 275.882 243.425 380.832 192.512 526.771C167.001 597.755 155.679 673.371 151.709 748.656C151.635 750.237 150.312 751.45 148.731 751.376C147.334 751.303 146.194 750.237 146.047 748.913C137.776 671.9 150.826 593.785 176.595 521.036C229.273 368.224 358.889 258.605 521.701 244.893C580.039 239.71 638.635 248.973 694.695 263.972C712.192 268.456 730.168 270.074 748.071 268.567C766.745 267.206 784.794 260.81 803.248 257.869C889.304 242.356 978.594 248.606 1062.74 271.471C1233.97 317.862 1307.08 497.62 1322.34 659.659C1325.83 698.074 1326.97 736.562 1323.44 775.086C1323.22 777.439 1321.13 779.13 1318.77 778.91C1316.57 778.615 1314.91 776.704 1314.95 774.535Z" fill="#595653"/>
<path d="M734.911 70.248C1156.44 70.248 1102.15 187.477 1102.15 187.477C1102.15 187.477 988.336 125.536 728.515 125.536C468.693 125.536 367.676 187.477 367.676 187.477C367.676 187.477 313.381 70.248 734.911 70.248Z" fill="#5B5B5B"/>
<path d="M734.725 102.67C430.24 102.67 367.674 187.513 367.674 187.513C456.781 124.616 734.725 125.572 734.725 125.572C734.725 125.572 1012.63 124.579 1101.78 187.513C1101.78 187.513 1039.21 102.67 734.725 102.67Z" fill="#424242"/>
<path d="M734.908 86.4593C1042.89 86.4593 1096.85 149.025 1103.58 182.734C1108.32 160.825 1105.42 70.248 734.908 70.248C364.401 70.248 361.534 160.825 366.239 182.771C372.967 149.025 426.967 86.4593 734.908 86.4593Z" fill="#757575"/>
<path d="M734.911 70.248C1156.44 70.248 1102.15 187.477 1102.15 187.477C1102.15 187.477 988.336 125.536 728.515 125.536C468.693 125.536 367.676 187.477 367.676 187.477C367.676 187.477 313.381 70.248 734.911 70.248Z" stroke="#353434" stroke-width="17.6736" stroke-miterlimit="10" stroke-linecap="round" stroke-linejoin="round"/>
<path d="M734.915 123.693C1201.95 123.693 1141.78 253.604 1141.78 253.604C1141.78 253.604 1015.69 184.936 727.857 184.936C440.024 184.936 328.052 253.567 328.052 253.567C328.052 253.567 267.912 123.693 734.915 123.693Z" fill="#5B5B5B"/>
<path d="M734.727 159.57C397.378 159.57 328.085 253.566 328.085 253.566C426.823 183.869 734.727 184.935 734.727 184.935C734.727 184.935 1042.63 183.832 1141.37 253.566C1141.37 253.566 1072.08 159.57 734.727 159.57Z" fill="#424242"/>
<path d="M734.916 141.632C1076.12 141.632 1135.93 210.962 1143.4 248.311C1148.62 224.012 1145.45 123.693 734.916 123.693C324.377 123.693 321.215 224.012 326.472 248.311C333.935 210.962 393.744 141.632 734.916 141.632Z" fill="#757575"/>
<path d="M734.915 123.693C1201.95 123.693 1141.78 253.604 1141.78 253.604C1141.78 253.604 1015.69 184.936 727.857 184.936C440.024 184.936 328.052 253.567 328.052 253.567C328.052 253.567 267.912 123.693 734.915 123.693Z" stroke="#353434" stroke-width="19.5811" stroke-miterlimit="10" stroke-linecap="round" stroke-linejoin="round"/>
</g>
<defs>
<clipPath id="clip0_429_1440">
<rect width="1343.04" height="2381" fill="white"/>
</clipPath>
</defs>
</svg>
